<ttFont>
<head>
    <!-- Most of this table will be recalculated by the compiler -->
    <tableVersion value="1.0"/>
    <fontRevision value="4.0"/>
    <checkSumAdjustment value="0x3ee7205c"/>
    <magicNumber value="0x5f0f3cf5"/>
    <flags value="00001000 00011011"/>
    <unitsPerEm value="2048"/>
    <created value="Fri Jan 17 13:40:28 2014"/>
    <modified value="Tue Aug 18 21:34:52 2020"/>
    <xMin value="-861"/>
    <yMin value="-689"/>
    <xMax value="3495"/>
    <yMax value="2105"/>
    <macStyle value="00000000 00000000"/>
    <lowestRecPPEM value="3"/>
    <fontDirectionHint value="1"/>
    <indexToLocFormat value="0"/>
    <glyphDataFormat value="0"/>
  </head>
    <TTGlyph name=".notdef" xMin="284" yMin="0" xMax="1308" yMax="1280">
      <contour>
        <pt x="284" y="0" on="1"/>
        <pt x="284" y="1280" on="1"/>
        <pt x="1308" y="1280" on="1"/>
        <pt x="1308" y="0" on="1"/>
      </contour>
      <contour>
        <pt x="316" y="32" on="1"/>
        <pt x="1276" y="32" on="1"/>
        <pt x="1276" y="1248" on="1"/>
        <pt x="316" y="1248" on="1"/>
      </contour>
    </TTGlyph>
    <TTGlyph name="A" xMin="-125" yMin="-102" xMax="1493" yMax="1317">
      <contour>
        <pt x="891" y="412" on="1"/>
        <pt x="771" y="408" on="0"/>
        <pt x="715" y="408" on="1"/>
        <pt x="629" y="408" on="0"/>
        <pt x="477" y="412" on="1"/>
        <pt x="445" y="377" on="0"/>
        <pt x="353" y="282" on="0"/>
        <pt x="271" y="201" on="0"/>
        <pt x="212" y="144" on="0"/>
        <pt x="193" y="125" on="1"/>
        <pt x="82" y="17" on="0"/>
        <pt x="15" y="-49" on="0"/>
        <pt x="-59" y="-102" on="0"/>
        <pt x="-90" y="-102" on="1"/>
        <pt x="-125" y="-102" on="0"/>
        <pt x="-125" y="-70" on="1"/>
        <pt x="-125" y="-35" on="0"/>
        <pt x="-25" y="111" on="0"/>
        <pt x="101" y="223" on="0"/>
        <pt x="141" y="223" on="1"/>
        <pt x="152" y="223" on="0"/>
        <pt x="172" y="213" on="1"/>
        <pt x="362" y="416" on="1"/>
        <pt x="326" y="421" on="0"/>
        <pt x="210" y="424" on="0"/>
        <pt x="170" y="438" on="0"/>
        <pt x="170" y="465" on="1"/>
        <pt x="170" y="508" on="0"/>
        <pt x="262" y="600" on="1"/>
        <pt x="312" y="651" on="0"/>
        <pt x="400" y="679" on="0"/>
        <pt x="524" y="680" on="1"/>
        <pt x="451" y="670" on="0"/>
        <pt x="390" y="643" on="0"/>
        <pt x="387" y="616" on="1"/>
        <pt x="416" y="616" on="0"/>
        <pt x="465" y="616" on="0"/>
        <pt x="544" y="617" on="0"/>
        <pt x="563" y="618" on="1"/>
        <pt x="727" y="778" on="0"/>
        <pt x="995" y="1015" on="0"/>
        <pt x="1292" y="1228" on="0"/>
        <pt x="1460" y="1317" on="1"/>
        <pt x="1493" y="1274" on="0"/>
        <pt x="1493" y="1227" on="1"/>
        <pt x="1493" y="1188" on="0"/>
        <pt x="1442" y="1086" on="0"/>
        <pt x="1277" y="805" on="0"/>
        <pt x="1192" y="647" on="1"/>
        <pt x="1220" y="647" on="0"/>
        <pt x="1257" y="646" on="0"/>
        <pt x="1278" y="645" on="1"/>
        <pt x="1335" y="645" on="0"/>
        <pt x="1360" y="641" on="0"/>
        <pt x="1360" y="623" on="1"/>
        <pt x="1360" y="615" on="0"/>
        <pt x="1329" y="574" on="0"/>
        <pt x="1251" y="479" on="0"/>
        <pt x="1214" y="430" on="1"/>
        <pt x="1067" y="418" on="1"/>
        <pt x="950" y="198" on="0"/>
        <pt x="950" y="170" on="1"/>
        <pt x="950" y="129" on="0"/>
        <pt x="993" y="129" on="1"/>
        <pt x="1014" y="129" on="0"/>
        <pt x="1167" y="217" on="1"/>
        <pt x="1159" y="164" on="1"/>
        <pt x="1077" y="102" on="0"/>
        <pt x="986" y="31" on="0"/>
        <pt x="919" y="-16" on="0"/>
        <pt x="864" y="-39" on="0"/>
        <pt x="836" y="-39" on="1"/>
        <pt x="803" y="-39" on="0"/>
        <pt x="739" y="22" on="0"/>
        <pt x="739" y="78" on="1"/>
        <pt x="739" y="101" on="0"/>
        <pt x="773" y="186" on="0"/>
        <pt x="812" y="264" on="0"/>
      </contour>
      <contour>
        <pt x="702" y="639" on="1"/>
        <pt x="1026" y="645" on="1"/>
        <pt x="1083" y="742" on="0"/>
        <pt x="1154" y="862" on="0"/>
        <pt x="1239" y="1003" on="0"/>
        <pt x="1300" y="1101" on="0"/>
        <pt x="1337" y="1163" on="1"/>
        <pt x="1265" y="1118" on="0"/>
        <pt x="1115" y="1008" on="0"/>
        <pt x="927" y="853" on="0"/>
        <pt x="781" y="720" on="0"/>
      </contour>
    </TTGlyph>
    <TTGlyph name="B" xMin="43" yMin="-33" xMax="1329" yMax="1333">
      <contour>
        <pt x="563" y="676" on="1"/>
        <pt x="512" y="616" on="1"/>
        <pt x="601" y="608" on="0"/>
        <pt x="741" y="581" on="0"/>
        <pt x="860" y="548" on="0"/>
        <pt x="905" y="530" on="1"/>
        <pt x="1063" y="464" on="0"/>
        <pt x="1063" y="346" on="1"/>
        <pt x="1063" y="274" on="0"/>
        <pt x="931" y="136" on="0"/>
        <pt x="720" y="28" on="0"/>
        <pt x="497" y="-33" on="0"/>
        <pt x="406" y="-33" on="1"/>
        <pt x="254" y="-33" on="0"/>
        <pt x="84" y="80" on="0"/>
        <pt x="84" y="178" on="1"/>
        <pt x="84" y="246" on="0"/>
        <pt x="188" y="430" on="0"/>
        <pt x="297" y="567" on="1"/>
        <pt x="215" y="571" on="0"/>
        <pt x="147" y="612" on="0"/>
        <pt x="147" y="649" on="1"/>
        <pt x="147" y="672" on="0"/>
        <pt x="173" y="696" on="0"/>
        <pt x="217" y="707" on="0"/>
        <pt x="342" y="723" on="0"/>
        <pt x="440" y="735" on="1"/>
        <pt x="549" y="869" on="0"/>
        <pt x="722" y="1004" on="0"/>
        <pt x="821" y="1014" on="1"/>
        <pt x="829" y="1015" on="0"/>
        <pt x="848" y="1015" on="0"/>
        <pt x="848" y="1010" on="1"/>
        <pt x="848" y="1004" on="0"/>
        <pt x="803" y="952" on="0"/>
        <pt x="702" y="838" on="0"/>
        <pt x="633" y="760" on="1"/>
        <pt x="821" y="785" on="0"/>
        <pt x="1060" y="850" on="0"/>
        <pt x="1182" y="940" on="0"/>
        <pt x="1182" y="995" on="1"/>
        <pt x="1182" y="1062" on="0"/>
        <pt x="1052" y="1122" on="0"/>
        <pt x="918" y="1122" on="1"/>
        <pt x="844" y="1122" on="0"/>
        <pt x="653" y="1092" on="0"/>
        <pt x="498" y="1054" on="0"/>
        <pt x="377" y="1011" on="0"/>
        <pt x="377" y="1001" on="1"/>
        <pt x="377" y="998" on="0"/>
        <pt x="383" y="995" on="1"/>
        <pt x="432" y="977" on="0"/>
        <pt x="432" y="965" on="1"/>
        <pt x="432" y="949" on="0"/>
        <pt x="132" y="858" on="0"/>
        <pt x="80" y="858" on="1"/>
        <pt x="43" y="858" on="0"/>
        <pt x="43" y="895" on="1"/>
        <pt x="43" y="939" on="0"/>
        <pt x="204" y="1168" on="0"/>
        <pt x="270" y="1200" on="1"/>
        <pt x="293" y="1211" on="0"/>
        <pt x="461" y="1259" on="0"/>
        <pt x="662" y="1303" on="0"/>
        <pt x="870" y="1333" on="0"/>
        <pt x="950" y="1333" on="1"/>
        <pt x="1139" y="1333" on="0"/>
        <pt x="1329" y="1198" on="0"/>
        <pt x="1329" y="1096" on="1"/>
        <pt x="1329" y="1027" on="0"/>
        <pt x="1242" y="899" on="0"/>
        <pt x="1058" y="785" on="0"/>
        <pt x="763" y="699" on="0"/>
      </contour>
      <contour>
        <pt x="457" y="547" on="1"/>
        <pt x="405" y="485" on="0"/>
        <pt x="324" y="390" on="0"/>
        <pt x="289" y="331" on="0"/>
        <pt x="289" y="301" on="1"/>
        <pt x="289" y="253" on="0"/>
        <pt x="388" y="178" on="0"/>
        <pt x="481" y="178" on="1"/>
        <pt x="567" y="178" on="0"/>
        <pt x="762" y="239" on="0"/>
        <pt x="895" y="337" on="0"/>
        <pt x="895" y="387" on="1"/>
        <pt x="895" y="430" on="0"/>
        <pt x="797" y="486" on="0"/>
        <pt x="597" y="529" on="0"/>
      </contour>
    </TTGlyph>
    <TTGlyph name="C" xMin="78" yMin="-307" xMax="1360" yMax="1337">
      <contour>
        <pt x="1262" y="319" on="1"/>
        <pt x="1262" y="254" on="1"/>
        <pt x="1094" y="67" on="0"/>
        <pt x="813" y="-176" on="0"/>
        <pt x="545" y="-307" on="0"/>
        <pt x="420" y="-307" on="1"/>
        <pt x="312" y="-307" on="0"/>
        <pt x="157" y="-221" on="0"/>
        <pt x="78" y="-56" on="0"/>
        <pt x="78" y="57" on="1"/>
        <pt x="78" y="146" on="0"/>
        <pt x="135" y="345" on="0"/>
        <pt x="243" y="548" on="0"/>
        <pt x="400" y="764" on="0"/>
        <pt x="506" y="883" on="1"/>
        <pt x="616" y="1006" on="0"/>
        <pt x="830" y="1185" on="0"/>
        <pt x="1004" y="1287" on="0"/>
        <pt x="1153" y="1337" on="0"/>
        <pt x="1202" y="1337" on="1"/>
        <pt x="1252" y="1337" on="0"/>
        <pt x="1322" y="1289" on="0"/>
        <pt x="1360" y="1197" on="0"/>
        <pt x="1360" y="1137" on="1"/>
        <pt x="1360" y="1024" on="0"/>
        <pt x="1206" y="747" on="0"/>
        <pt x="976" y="489" on="0"/>
        <pt x="767" y="326" on="0"/>
        <pt x="721" y="326" on="1"/>
        <pt x="690" y="326" on="0"/>
        <pt x="637" y="375" on="0"/>
        <pt x="637" y="406" on="1"/>
        <pt x="637" y="463" on="0"/>
        <pt x="758" y="625" on="0"/>
        <pt x="901" y="760" on="0"/>
        <pt x="915" y="760" on="1"/>
        <pt x="922" y="760" on="0"/>
        <pt x="922" y="754" on="1"/>
        <pt x="922" y="745" on="0"/>
        <pt x="901" y="701" on="0"/>
        <pt x="901" y="696" on="1"/>
        <pt x="901" y="688" on="0"/>
        <pt x="907" y="688" on="1"/>
        <pt x="924" y="688" on="0"/>
        <pt x="1086" y="870" on="0"/>
        <pt x="1221" y="1089" on="0"/>
        <pt x="1221" y="1159" on="1"/>
        <pt x="1221" y="1188" on="0"/>
        <pt x="1196" y="1219" on="0"/>
        <pt x="1171" y="1219" on="1"/>
        <pt x="1101" y="1219" on="0"/>
        <pt x="816" y="992" on="0"/>
        <pt x="517" y="641" on="0"/>
        <pt x="317" y="267" on="0"/>
        <pt x="317" y="125" on="1"/>
        <pt x="317" y="43" on="0"/>
        <pt x="366" y="-67" on="0"/>
        <pt x="461" y="-127" on="0"/>
        <pt x="528" y="-127" on="1"/>
        <pt x="673" y="-127" on="0"/>
        <pt x="1041" y="99" on="0"/>
      </contour>
    </TTGlyph>
    <TTGlyph name="D" xMin="-41" yMin="-41" xMax="1294" yMax="1311">
      <contour>
        <pt x="106" y="879" on="1"/>
        <pt x="106" y="872" on="0"/>
        <pt x="119" y="872" on="1"/>
        <pt x="128" y="872" on="0"/>
        <pt x="273" y="896" on="0"/>
        <pt x="332" y="897" on="1"/>
        <pt x="266" y="879" on="0"/>
        <pt x="171" y="842" on="0"/>
        <pt x="70" y="797" on="0"/>
        <pt x="26" y="782" on="0"/>
        <pt x="10" y="782" on="1"/>
        <pt x="-41" y="782" on="0"/>
        <pt x="-41" y="848" on="1"/>
        <pt x="-41" y="1018" on="0"/>
        <pt x="45" y="1087" on="1"/>
        <pt x="80" y="1115" on="0"/>
        <pt x="235" y="1192" on="0"/>
        <pt x="430" y="1261" on="0"/>
        <pt x="664" y="1311" on="0"/>
        <pt x="778" y="1311" on="1"/>
        <pt x="895" y="1311" on="0"/>
        <pt x="1091" y="1243" on="0"/>
        <pt x="1223" y="1120" on="0"/>
        <pt x="1294" y="942" on="0"/>
        <pt x="1294" y="831" on="1"/>
        <pt x="1294" y="662" on="0"/>
        <pt x="1099" y="344" on="0"/>
        <pt x="774" y="101" on="0"/>
        <pt x="366" y="-41" on="0"/>
        <pt x="168" y="-41" on="1"/>
        <pt x="131" y="-41" on="0"/>
        <pt x="88" y="-25" on="0"/>
        <pt x="70" y="22" on="0"/>
        <pt x="70" y="68" on="1"/>
        <pt x="70" y="125" on="0"/>
        <pt x="88" y="197" on="0"/>
        <pt x="109" y="244" on="1"/>
        <pt x="253" y="563" on="0"/>
        <pt x="610" y="1047" on="1"/>
        <pt x="538" y="1039" on="0"/>
        <pt x="366" y="994" on="0"/>
        <pt x="212" y="940" on="0"/>
        <pt x="106" y="890" on="0"/>
      </contour>
      <contour>
        <pt x="639" y="1053" on="1"/>
        <pt x="639" y="1051" on="0"/>
        <pt x="647" y="1010" on="0"/>
        <pt x="647" y="995" on="1"/>
        <pt x="647" y="972" on="0"/>
        <pt x="600" y="889" on="0"/>
        <pt x="462" y="677" on="0"/>
        <pt x="364" y="517" on="0"/>
        <pt x="297" y="391" on="1"/>
        <pt x="276" y="351" on="0"/>
        <pt x="260" y="323" on="0"/>
        <pt x="225" y="259" on="0"/>
        <pt x="209" y="213" on="0"/>
        <pt x="209" y="201" on="1"/>
        <pt x="209" y="175" on="0"/>
        <pt x="266" y="154" on="0"/>
        <pt x="319" y="154" on="1"/>
        <pt x="455" y="154" on="0"/>
        <pt x="759" y="253" on="0"/>
        <pt x="1026" y="429" on="0"/>
        <pt x="1186" y="651" on="0"/>
        <pt x="1186" y="772" on="1"/>
        <pt x="1186" y="910" on="0"/>
        <pt x="984" y="1059" on="0"/>
        <pt x="791" y="1059" on="1"/>
        <pt x="710" y="1059" on="0"/>
      </contour>
    </TTGlyph>
    <TTGlyph name="E" xMin="68" yMin="-147" xMax="1333" yMax="1382">
      <contour>
        <pt x="1333" y="1260" on="1"/>
        <pt x="1333" y="1192" on="1"/>
        <pt x="1333" y="1150" on="0"/>
        <pt x="1300" y="1128" on="0"/>
        <pt x="1091" y="1032" on="0"/>
        <pt x="995" y="967" on="1"/>
        <pt x="1032" y="1021" on="0"/>
        <pt x="1093" y="1073" on="0"/>
        <pt x="1145" y="1112" on="1"/>
        <pt x="1100" y="1130" on="0"/>
        <pt x="1020" y="1130" on="1"/>
        <pt x="896" y="1130" on="0"/>
        <pt x="609" y="1032" on="0"/>
        <pt x="408" y="896" on="0"/>
        <pt x="408" y="850" on="1"/>
        <pt x="408" y="826" on="0"/>
        <pt x="469" y="795" on="0"/>
        <pt x="604" y="778" on="0"/>
        <pt x="806" y="772" on="0"/>
        <pt x="954" y="772" on="1"/>
        <pt x="1062" y="772" on="0"/>
        <pt x="1124" y="756" on="0"/>
        <pt x="1124" y="727" on="1"/>
        <pt x="1124" y="690" on="0"/>
        <pt x="1051" y="595" on="0"/>
        <pt x="991" y="586" on="1"/>
        <pt x="898" y="571" on="0"/>
        <pt x="788" y="550" on="0"/>
        <pt x="637" y="500" on="0"/>
        <pt x="545" y="453" on="1"/>
        <pt x="408" y="381" on="0"/>
        <pt x="254" y="233" on="0"/>
        <pt x="254" y="176" on="1"/>
        <pt x="254" y="127" on="0"/>
        <pt x="364" y="72" on="0"/>
        <pt x="467" y="72" on="1"/>
        <pt x="822" y="72" on="0"/>
        <pt x="1190" y="391" on="1"/>
        <pt x="1192" y="293" on="0"/>
        <pt x="1145" y="144" on="0"/>
        <pt x="1073" y="76" on="1"/>
        <pt x="1013" y="19" on="0"/>
        <pt x="782" y="-85" on="0"/>
        <pt x="509" y="-147" on="0"/>
        <pt x="389" y="-147" on="1"/>
        <pt x="250" y="-147" on="0"/>
        <pt x="68" y="-14" on="0"/>
        <pt x="68" y="96" on="1"/>
        <pt x="68" y="176" on="0"/>
        <pt x="156" y="334" on="0"/>
        <pt x="338" y="479" on="0"/>
        <pt x="617" y="597" on="0"/>
        <pt x="799" y="631" on="1"/>
        <pt x="825" y="636" on="0"/>
        <pt x="825" y="647" on="1"/>
        <pt x="825" y="659" on="0"/>
        <pt x="764" y="664" on="0"/>
        <pt x="601" y="666" on="0"/>
        <pt x="477" y="678" on="0"/>
        <pt x="408" y="698" on="1"/>
        <pt x="337" y="720" on="0"/>
        <pt x="260" y="830" on="0"/>
        <pt x="260" y="897" on="1"/>
        <pt x="260" y="983" on="0"/>
        <pt x="384" y="1157" on="0"/>
        <pt x="610" y="1297" on="0"/>
        <pt x="931" y="1382" on="0"/>
        <pt x="1122" y="1382" on="1"/>
        <pt x="1232" y="1382" on="0"/>
        <pt x="1319" y="1357" on="0"/>
        <pt x="1333" y="1316" on="0"/>
      </contour>
    </TTGlyph>
    <TTGlyph name="F" xMin="4" yMin="-311" xMax="1272" yMax="1276">
      <contour>
        <pt x="664" y="498" on="1"/>
        <pt x="815" y="498" on="1"/>
        <pt x="946" y="674" on="0"/>
        <pt x="1083" y="936" on="0"/>
        <pt x="1083" y="977" on="1"/>
        <pt x="1083" y="1034" on="0"/>
        <pt x="985" y="1034" on="1"/>
        <pt x="928" y="1029" on="0"/>
        <pt x="638" y="990" on="0"/>
        <pt x="502" y="963" on="1"/>
        <pt x="380" y="940" on="0"/>
        <pt x="233" y="891" on="0"/>
        <pt x="173" y="859" on="0"/>
        <pt x="166" y="852" on="1"/>
        <pt x="240" y="856" on="0"/>
        <pt x="291" y="856" on="1"/>
        <pt x="371" y="856" on="0"/>
        <pt x="371" y="838" on="1"/>
        <pt x="371" y="830" on="0"/>
        <pt x="259" y="805" on="0"/>
        <pt x="209" y="791" on="1"/>
        <pt x="160" y="777" on="0"/>
        <pt x="67" y="739" on="0"/>
        <pt x="57" y="739" on="1"/>
        <pt x="34" y="739" on="0"/>
        <pt x="4" y="774" on="0"/>
        <pt x="4" y="799" on="1"/>
        <pt x="4" y="816" on="0"/>
        <pt x="59" y="959" on="0"/>
        <pt x="159" y="1104" on="0"/>
        <pt x="233" y="1139" on="1"/>
        <pt x="260" y="1152" on="0"/>
        <pt x="551" y="1220" on="0"/>
        <pt x="917" y="1276" on="0"/>
        <pt x="1069" y="1276" on="1"/>
        <pt x="1161" y="1276" on="0"/>
        <pt x="1272" y="1225" on="0"/>
        <pt x="1272" y="1141" on="1"/>
        <pt x="1272" y="1114" on="0"/>
        <pt x="1232" y="1001" on="0"/>
        <pt x="1145" y="825" on="0"/>
        <pt x="1020" y="615" on="0"/>
        <pt x="940" y="498" on="1"/>
        <pt x="1094" y="498" on="1"/>
        <pt x="961" y="307" on="1"/>
        <pt x="934" y="305" on="0"/>
        <pt x="853" y="303" on="0"/>
        <pt x="805" y="301" on="1"/>
        <pt x="682" y="141" on="0"/>
        <pt x="395" y="-141" on="0"/>
        <pt x="162" y="-311" on="0"/>
        <pt x="115" y="-311" on="1"/>
        <pt x="96" y="-311" on="0"/>
        <pt x="68" y="-286" on="0"/>
        <pt x="68" y="-266" on="1"/>
        <pt x="68" y="-249" on="0"/>
        <pt x="157" y="-109" on="0"/>
        <pt x="315" y="13" on="0"/>
        <pt x="416" y="20" on="1"/>
        <pt x="457" y="63" on="0"/>
        <pt x="516" y="130" on="0"/>
        <pt x="624" y="257" on="0"/>
        <pt x="653" y="291" on="1"/>
        <pt x="352" y="276" on="1"/>
        <pt x="303" y="274" on="0"/>
        <pt x="266" y="287" on="0"/>
        <pt x="266" y="313" on="1"/>
        <pt x="266" y="313" on="0"/>
        <pt x="286" y="364" on="0"/>
        <pt x="297" y="383" on="1"/>
        <pt x="313" y="412" on="0"/>
        <pt x="332" y="424" on="0"/>
        <pt x="377" y="434" on="1"/>
        <pt x="561" y="479" on="1"/>
        <pt x="635" y="498" on="0"/>
      </contour>
    </TTGlyph>
    <TTGlyph name="G" xMin="78" yMin="-514" xMax="1333" yMax="1354">
      <contour>
        <pt x="1174" y="319" on="1"/>
        <pt x="1174" y="266" on="1"/>
        <pt x="1060" y="170" on="0"/>
        <pt x="836" y="-5" on="0"/>
        <pt x="676" y="-113" on="1"/>
        <pt x="594" y="-225" on="0"/>
        <pt x="476" y="-368" on="0"/>
        <pt x="390" y="-462" on="0"/>
        <pt x="389" y="-463" on="1"/>
        <pt x="375" y="-480" on="0"/>
        <pt x="309" y="-514" on="0"/>
        <pt x="287" y="-514" on="1"/>
        <pt x="256" y="-514" on="0"/>
        <pt x="215" y="-469" on="0"/>
        <pt x="215" y="-438" on="1"/>
        <pt x="215" y="-358" on="0"/>
        <pt x="383" y="-177" on="0"/>
        <pt x="545" y="-82" on="1"/>
        <pt x="625" y="33" on="0"/>
        <pt x="771" y="266" on="0"/>
        <pt x="880" y="458" on="0"/>
        <pt x="926" y="551" on="1"/>
        <pt x="854" y="491" on="0"/>
        <pt x="712" y="380" on="0"/>
        <pt x="576" y="279" on="0"/>
        <pt x="544" y="255" on="0"/>
        <pt x="532" y="246" on="1"/>
        <pt x="358" y="94" on="0"/>
        <pt x="272" y="94" on="1"/>
        <pt x="190" y="94" on="0"/>
        <pt x="78" y="250" on="0"/>
        <pt x="78" y="369" on="1"/>
        <pt x="78" y="444" on="0"/>
        <pt x="126" y="607" on="0"/>
        <pt x="225" y="779" on="0"/>
        <pt x="363" y="939" on="0"/>
        <pt x="446" y="1006" on="1"/>
        <pt x="574" y="1108" on="0"/>
        <pt x="892" y="1269" on="0"/>
        <pt x="1166" y="1354" on="0"/>
        <pt x="1231" y="1354" on="1"/>
        <pt x="1269" y="1354" on="0"/>
        <pt x="1314" y="1317" on="0"/>
        <pt x="1333" y="1254" on="0"/>
        <pt x="1333" y="1219" on="1"/>
        <pt x="1333" y="1187" on="0"/>
        <pt x="1313" y="1155" on="1"/>
        <pt x="1284" y="1112" on="0"/>
        <pt x="1138" y="1017" on="0"/>
        <pt x="990" y="944" on="0"/>
        <pt x="979" y="944" on="1"/>
        <pt x="973" y="944" on="0"/>
        <pt x="973" y="948" on="1"/>
        <pt x="973" y="957" on="0"/>
        <pt x="1019" y="997" on="0"/>
        <pt x="1047" y="1018" on="1"/>
        <pt x="1109" y="1065" on="0"/>
        <pt x="1120" y="1118" on="1"/>
        <pt x="1023" y="1091" on="0"/>
        <pt x="831" y="1003" on="0"/>
        <pt x="643" y="881" on="0"/>
        <pt x="549" y="803" on="1"/>
        <pt x="443" y="714" on="0"/>
        <pt x="294" y="521" on="0"/>
        <pt x="217" y="357" on="0"/>
        <pt x="217" y="313" on="1"/>
        <pt x="217" y="280" on="0"/>
        <pt x="259" y="231" on="0"/>
        <pt x="295" y="231" on="1"/>
        <pt x="337" y="231" on="0"/>
        <pt x="399" y="268" on="1"/>
        <pt x="466" y="308" on="0"/>
        <pt x="627" y="433" on="0"/>
        <pt x="763" y="545" on="0"/>
        <pt x="842" y="612" on="1"/>
        <pt x="915" y="673" on="0"/>
        <pt x="996" y="748" on="0"/>
        <pt x="1016" y="776" on="1"/>
        <pt x="1058" y="834" on="0"/>
        <pt x="1141" y="852" on="0"/>
        <pt x="1200" y="801" on="0"/>
        <pt x="1200" y="764" on="1"/>
        <pt x="1200" y="752" on="0"/>
        <pt x="1113" y="589" on="0"/>
        <pt x="934" y="280" on="0"/>
        <pt x="803" y="70" on="1"/>
        <pt x="919" y="132" on="0"/>
      </contour>
    </TTGlyph>
    <TTGlyph name="H" xMin="-113" yMin="-38" xMax="1436" yMax="1330">
      <contour>
        <pt x="229" y="878" on="1"/>
        <pt x="14" y="765" on="1"/>
        <pt x="-36" y="740" on="0"/>
        <pt x="-53" y="740" on="1"/>
        <pt x="-84" y="740" on="0"/>
        <pt x="-113" y="779" on="0"/>
        <pt x="-113" y="820" on="1"/>
        <pt x="-113" y="867" on="0"/>
        <pt x="-73" y="990" on="0"/>
        <pt x="-47" y="1019" on="1"/>
        <pt x="-20" y="1049" on="0"/>
        <pt x="179" y="1154" on="0"/>
        <pt x="459" y="1260" on="0"/>
        <pt x="763" y="1330" on="0"/>
        <pt x="889" y="1330" on="1"/>
        <pt x="977" y="1330" on="0"/>
        <pt x="1061" y="1274" on="0"/>
        <pt x="1061" y="1154" on="1"/>
        <pt x="1061" y="1089" on="0"/>
        <pt x="972" y="930" on="0"/>
        <pt x="847" y="780" on="0"/>
        <pt x="678" y="589" on="1"/>
        <pt x="768" y="603" on="0"/>
        <pt x="852" y="611" on="0"/>
        <pt x="967" y="624" on="1"/>
        <pt x="1100" y="816" on="0"/>
        <pt x="1264" y="1045" on="0"/>
        <pt x="1378" y="1196" on="0"/>
        <pt x="1389" y="1207" on="1"/>
        <pt x="1409" y="1230" on="0"/>
        <pt x="1436" y="1219" on="0"/>
        <pt x="1436" y="1183" on="1"/>
        <pt x="1436" y="1142" on="0"/>
        <pt x="1419" y="1090" on="0"/>
        <pt x="1383" y="1039" on="0"/>
        <pt x="1382" y="1037" on="1"/>
        <pt x="1356" y="994" on="0"/>
        <pt x="1258" y="855" on="0"/>
        <pt x="1164" y="719" on="0"/>
        <pt x="1104" y="626" on="1"/>
        <pt x="1216" y="622" on="0"/>
        <pt x="1325" y="597" on="1"/>
        <pt x="1145" y="353" on="1"/>
        <pt x="1071" y="363" on="0"/>
        <pt x="948" y="363" on="1"/>
        <pt x="918" y="303" on="0"/>
        <pt x="885" y="235" on="0"/>
        <pt x="862" y="174" on="0"/>
        <pt x="862" y="148" on="1"/>
        <pt x="862" y="132" on="0"/>
        <pt x="881" y="79" on="0"/>
        <pt x="881" y="75" on="1"/>
        <pt x="881" y="55" on="0"/>
        <pt x="822" y="10" on="0"/>
        <pt x="743" y="-24" on="0"/>
        <pt x="721" y="-24" on="1"/>
        <pt x="684" y="-24" on="0"/>
        <pt x="684" y="32" on="1"/>
        <pt x="684" y="148" on="0"/>
        <pt x="803" y="355" on="1"/>
        <pt x="645" y="342" on="0"/>
        <pt x="440" y="308" on="1"/>
        <pt x="381" y="230" on="0"/>
        <pt x="285" y="90" on="0"/>
        <pt x="224" y="-6" on="0"/>
        <pt x="195" y="-38" on="0"/>
        <pt x="178" y="-38" on="1"/>
        <pt x="149" y="-38" on="0"/>
        <pt x="129" y="-13" on="1"/>
        <pt x="120" y="-3" on="0"/>
        <pt x="115" y="17" on="0"/>
        <pt x="115" y="41" on="0"/>
        <pt x="115" y="50" on="1"/>
        <pt x="115" y="62" on="0"/>
        <pt x="141" y="108" on="0"/>
        <pt x="239" y="245" on="0"/>
        <pt x="262" y="280" on="1"/>
        <pt x="236" y="277" on="0"/>
        <pt x="195" y="277" on="1"/>
        <pt x="143" y="277" on="0"/>
        <pt x="78" y="315" on="0"/>
        <pt x="78" y="343" on="1"/>
        <pt x="78" y="375" on="0"/>
        <pt x="112" y="448" on="0"/>
        <pt x="166" y="497" on="0"/>
        <pt x="193" y="497" on="1"/>
        <pt x="211" y="497" on="0"/>
        <pt x="236" y="486" on="1"/>
        <pt x="494" y="550" on="1"/>
        <pt x="710" y="784" on="0"/>
        <pt x="922" y="1056" on="0"/>
        <pt x="922" y="1095" on="1"/>
        <pt x="922" y="1117" on="0"/>
        <pt x="898" y="1146" on="0"/>
        <pt x="855" y="1162" on="0"/>
        <pt x="827" y="1162" on="1"/>
        <pt x="794" y="1162" on="0"/>
        <pt x="651" y="1126" on="0"/>
        <pt x="453" y="1056" on="0"/>
        <pt x="305" y="994" on="1"/>
        <pt x="195" y="949" on="0"/>
        <pt x="195" y="937" on="1"/>
        <pt x="195" y="923" on="0"/>
        <pt x="225" y="915" on="0"/>
        <pt x="272" y="911" on="0"/>
        <pt x="272" y="906" on="1"/>
        <pt x="272" y="902" on="0"/>
        <pt x="249" y="888" on="0"/>
      </contour>
    </TTGlyph>
    <TTGlyph name="I" xMin="61" yMin="-37" xMax="903" yMax="1333">
      <contour>
        <pt x="365" y="-29" on="1"/>
        <pt x="303" y="16" on="1"/>
        <pt x="289" y="28" on="0"/>
        <pt x="289" y="41" on="1"/>
        <pt x="289" y="54" on="0"/>
        <pt x="336" y="131" on="1"/>
        <pt x="370" y="186" on="0"/>
        <pt x="485" y="378" on="0"/>
        <pt x="555" y="502" on="0"/>
        <pt x="656" y="703" on="0"/>
        <pt x="698" y="799" on="1"/>
        <pt x="795" y="1020" on="0"/>
        <pt x="795" y="1081" on="1"/>
        <pt x="795" y="1153" on="0"/>
        <pt x="739" y="1153" on="1"/>
        <pt x="697" y="1153" on="0"/>
        <pt x="542" y="1068" on="0"/>
        <pt x="376" y="930" on="0"/>
        <pt x="266" y="780" on="0"/>
        <pt x="266" y="723" on="1"/>
        <pt x="266" y="714" on="0"/>
        <pt x="276" y="705" on="0"/>
        <pt x="289" y="705" on="1"/>
        <pt x="313" y="705" on="0"/>
        <pt x="367" y="733" on="1"/>
        <pt x="391" y="745" on="0"/>
        <pt x="391" y="729" on="1"/>
        <pt x="391" y="713" on="0"/>
        <pt x="239" y="580" on="0"/>
        <pt x="203" y="580" on="1"/>
        <pt x="172" y="580" on="0"/>
        <pt x="61" y="687" on="0"/>
        <pt x="61" y="731" on="1"/>
        <pt x="61" y="748" on="0"/>
        <pt x="123" y="876" on="0"/>
        <pt x="231" y="1037" on="0"/>
        <pt x="291" y="1096" on="1"/>
        <pt x="360" y="1165" on="0"/>
        <pt x="537" y="1273" on="0"/>
        <pt x="700" y="1333" on="0"/>
        <pt x="750" y="1333" on="1"/>
        <pt x="822" y="1333" on="0"/>
        <pt x="903" y="1224" on="0"/>
        <pt x="903" y="1126" on="1"/>
        <pt x="903" y="996" on="0"/>
        <pt x="699" y="504" on="0"/>
        <pt x="487" y="174" on="1"/>
        <pt x="490" y="164" on="0"/>
        <pt x="498" y="141" on="0"/>
        <pt x="498" y="131" on="1"/>
        <pt x="498" y="129" on="0"/>
        <pt x="492" y="118" on="0"/>
        <pt x="484" y="106" on="0"/>
        <pt x="483" y="104" on="1"/>
        <pt x="410" y="-16" on="1"/>
        <pt x="398" y="-37" on="0"/>
        <pt x="385" y="-37" on="1"/>
        <pt x="373" y="-37" on="0"/>
      </contour>
    </TTGlyph>
    <TTGlyph name="J" xMin="-82" yMin="-584" xMax="920" yMax="1309">
      <contour>
        <pt x="782" y="244" on="1"/>
        <pt x="516" y="94" on="1"/>
        <pt x="428" y="-55" on="0"/>
        <pt x="251" y="-320" on="0"/>
        <pt x="114" y="-493" on="0"/>
        <pt x="14" y="-584" on="0"/>
        <pt x="-10" y="-584" on="1"/>
        <pt x="-42" y="-584" on="0"/>
        <pt x="-82" y="-541" on="0"/>
        <pt x="-82" y="-512" on="1"/>
        <pt x="-82" y="-404" on="0"/>
        <pt x="161" y="-79" on="0"/>
        <pt x="424" y="104" on="1"/>
        <pt x="538" y="323" on="0"/>
        <pt x="686" y="681" on="0"/>
        <pt x="764" y="935" on="0"/>
        <pt x="795" y="1089" on="0"/>
        <pt x="795" y="1110" on="1"/>
        <pt x="795" y="1153" on="0"/>
        <pt x="762" y="1153" on="1"/>
        <pt x="735" y="1153" on="0"/>
        <pt x="630" y="1091" on="0"/>
        <pt x="508" y="968" on="0"/>
        <pt x="455" y="887" on="1"/>
        <pt x="402" y="807" on="0"/>
        <pt x="315" y="608" on="0"/>
        <pt x="268" y="440" on="0"/>
        <pt x="268" y="389" on="1"/>
        <pt x="268" y="376" on="0"/>
        <pt x="272" y="332" on="1"/>
        <pt x="281" y="346" on="0"/>
        <pt x="307" y="386" on="0"/>
        <pt x="347" y="428" on="0"/>
        <pt x="369" y="442" on="1"/>
        <pt x="382" y="452" on="0"/>
        <pt x="418" y="465" on="0"/>
        <pt x="418" y="457" on="1"/>
        <pt x="418" y="451" on="0"/>
        <pt x="304" y="312" on="0"/>
        <pt x="262" y="256" on="1"/>
        <pt x="238" y="224" on="0"/>
        <pt x="158" y="168" on="0"/>
        <pt x="133" y="168" on="1"/>
        <pt x="103" y="168" on="0"/>
        <pt x="84" y="224" on="0"/>
        <pt x="84" y="285" on="1"/>
        <pt x="84" y="432" on="0"/>
        <pt x="185" y="792" on="0"/>
        <pt x="270" y="928" on="1"/>
        <pt x="339" y="1036" on="0"/>
        <pt x="539" y="1211" on="0"/>
        <pt x="728" y="1309" on="0"/>
        <pt x="782" y="1309" on="1"/>
        <pt x="848" y="1309" on="0"/>
        <pt x="920" y="1226" on="0"/>
        <pt x="920" y="1153" on="1"/>
        <pt x="920" y="1117" on="0"/>
        <pt x="903" y="1027" on="0"/>
        <pt x="877" y="935" on="0"/>
        <pt x="813" y="731" on="0"/>
        <pt x="803" y="698" on="1"/>
        <pt x="772" y="595" on="0"/>
        <pt x="671" y="378" on="0"/>
        <pt x="578" y="199" on="1"/>
        <pt x="782" y="309" on="1"/>
      </contour>
    </TTGlyph>
    <TTGlyph name="K" xMin="-4" yMin="-115" xMax="1520" yMax="1268">
      <contour>
        <pt x="1214" y="-115" on="1"/>
        <pt x="1202" y="-115" on="0"/>
        <pt x="1155" y="-89" on="0"/>
        <pt x="1066" y="-26" on="0"/>
        <pt x="1010" y="12" on="1"/>
        <pt x="469" y="375" on="1"/>
        <pt x="309" y="164" on="1"/>
        <pt x="309" y="137" on="0"/>
        <pt x="295" y="110" on="0"/>
        <pt x="272" y="86" on="1"/>
        <pt x="217" y="29" on="0"/>
        <pt x="140" y="-31" on="0"/>
        <pt x="109" y="-31" on="1"/>
        <pt x="94" y="-31" on="0"/>
        <pt x="72" y="-6" on="0"/>
        <pt x="72" y="12" on="1"/>
        <pt x="72" y="36" on="0"/>
        <pt x="100" y="76" on="1"/>
        <pt x="393" y="440" on="1"/>
        <pt x="367" y="481" on="0"/>
        <pt x="367" y="524" on="1"/>
        <pt x="367" y="568" on="0"/>
        <pt x="416" y="630" on="0"/>
        <pt x="480" y="668" on="0"/>
        <pt x="625" y="745" on="1"/>
        <pt x="831" y="1018" on="0"/>
        <pt x="831" y="1051" on="1"/>
        <pt x="831" y="1073" on="0"/>
        <pt x="805" y="1073" on="1"/>
        <pt x="778" y="1073" on="0"/>
        <pt x="593" y="1009" on="0"/>
        <pt x="292" y="876" on="0"/>
        <pt x="86" y="772" on="1"/>
        <pt x="69" y="763" on="0"/>
        <pt x="26" y="766" on="0"/>
        <pt x="-4" y="797" on="0"/>
        <pt x="-4" y="823" on="1"/>
        <pt x="-4" y="831" on="0"/>
        <pt x="3" y="853" on="0"/>
        <pt x="19" y="900" on="0"/>
        <pt x="25" y="918" on="1"/>
        <pt x="27" y="924" on="0"/>
        <pt x="42" y="998" on="0"/>
        <pt x="78" y="1059" on="0"/>
        <pt x="165" y="1133" on="0"/>
        <pt x="246" y="1174" on="1"/>
        <pt x="261" y="1183" on="0"/>
        <pt x="287" y="1188" on="0"/>
        <pt x="287" y="1178" on="1"/>
        <pt x="287" y="1175" on="0"/>
        <pt x="228" y="1132" on="0"/>
        <pt x="193" y="1083" on="1"/>
        <pt x="485" y="1185" on="0"/>
        <pt x="762" y="1268" on="0"/>
        <pt x="846" y="1268" on="1"/>
        <pt x="892" y="1268" on="0"/>
        <pt x="954" y="1143" on="0"/>
        <pt x="954" y="1124" on="1"/>
        <pt x="954" y="1096" on="0"/>
        <pt x="932" y="1061" on="1"/>
        <pt x="772" y="821" on="1"/>
        <pt x="962" y="915" on="0"/>
        <pt x="1173" y="1026" on="0"/>
        <pt x="1421" y="1157" on="0"/>
        <pt x="1487" y="1190" on="0"/>
        <pt x="1497" y="1190" on="1"/>
        <pt x="1520" y="1190" on="0"/>
        <pt x="1520" y="1169" on="1"/>
        <pt x="1520" y="1157" on="0"/>
        <pt x="1451" y="1050" on="0"/>
        <pt x="1367" y="965" on="0"/>
        <pt x="1339" y="965" on="1"/>
        <pt x="1332" y="965" on="0"/>
        <pt x="1312" y="972" on="0"/>
        <pt x="1303" y="975" on="1"/>
        <pt x="1168" y="905" on="0"/>
        <pt x="777" y="713" on="0"/>
        <pt x="664" y="659" on="1"/>
        <pt x="578" y="530" on="1"/>
        <pt x="1085" y="186" on="1"/>
        <pt x="1155" y="139" on="0"/>
        <pt x="1218" y="83" on="0"/>
        <pt x="1249" y="17" on="0"/>
        <pt x="1249" y="-33" on="1"/>
        <pt x="1249" y="-115" on="0"/>
      </contour>
    </TTGlyph>
    <TTGlyph name="L" xMin="-109" yMin="-70" xMax="1286" yMax="1331">
      <contour>
        <pt x="1075" y="758" on="1"/>
        <pt x="1106" y="727" on="1"/>
        <pt x="1024" y="624" on="0"/>
        <pt x="901" y="530" on="0"/>
        <pt x="872" y="530" on="1"/>
        <pt x="848" y="530" on="0"/>
        <pt x="848" y="573" on="1"/>
        <pt x="848" y="680" on="0"/>
        <pt x="989" y="903" on="1"/>
        <pt x="1108" y="1096" on="0"/>
        <pt x="1108" y="1118" on="1"/>
        <pt x="1108" y="1137" on="0"/>
        <pt x="1092" y="1137" on="1"/>
        <pt x="1064" y="1137" on="0"/>
        <pt x="838" y="885" on="0"/>
        <pt x="672" y="655" on="1"/>
        <pt x="484" y="399" on="0"/>
        <pt x="414" y="289" on="1"/>
        <pt x="547" y="276" on="0"/>
        <pt x="718" y="235" on="0"/>
        <pt x="1043" y="143" on="0"/>
        <pt x="1120" y="135" on="1"/>
        <pt x="1026" y="28" on="0"/>
        <pt x="955" y="-49" on="0"/>
        <pt x="936" y="-57" on="1"/>
        <pt x="906" y="-70" on="0"/>
        <pt x="788" y="-47" on="0"/>
        <pt x="532" y="19" on="0"/>
        <pt x="309" y="63" on="0"/>
        <pt x="217" y="63" on="1"/>
        <pt x="165" y="63" on="0"/>
        <pt x="90" y="39" on="0"/>
        <pt x="-43" y="-16" on="0"/>
        <pt x="-70" y="-16" on="1"/>
        <pt x="-109" y="-16" on="0"/>
        <pt x="-109" y="16" on="1"/>
        <pt x="-109" y="34" on="0"/>
        <pt x="-96" y="57" on="1"/>
        <pt x="-63" y="110" on="0"/>
        <pt x="-1" y="206" on="0"/>
        <pt x="69" y="260" on="0"/>
        <pt x="201" y="290" on="0"/>
        <pt x="309" y="291" on="1"/>
        <pt x="472" y="541" on="0"/>
        <pt x="754" y="928" on="0"/>
        <pt x="985" y="1194" on="0"/>
        <pt x="1159" y="1331" on="0"/>
        <pt x="1210" y="1331" on="1"/>
        <pt x="1246" y="1331" on="0"/>
        <pt x="1286" y="1291" on="0"/>
        <pt x="1286" y="1255" on="1"/>
        <pt x="1286" y="1135" on="0"/>
      </contour>
    </TTGlyph>
    <TTGlyph name="M" xMin="-90" yMin="-72" xMax="1858" yMax="1325">
      <contour>
        <pt x="1729" y="319" on="1"/>
        <pt x="1729" y="250" on="1"/>
        <pt x="1634" y="161" on="0"/>
        <pt x="1501" y="52" on="0"/>
        <pt x="1369" y="-35" on="0"/>
        <pt x="1282" y="-72" on="0"/>
        <pt x="1251" y="-72" on="1"/>
        <pt x="1177" y="-72" on="0"/>
        <pt x="1083" y="38" on="0"/>
        <pt x="1083" y="125" on="1"/>
        <pt x="1083" y="225" on="0"/>
        <pt x="1164" y="421" on="0"/>
        <pt x="1314" y="630" on="0"/>
        <pt x="1427" y="760" on="1"/>
        <pt x="1511" y="856" on="0"/>
        <pt x="1511" y="868" on="1"/>
        <pt x="1511" y="875" on="0"/>
        <pt x="1501" y="885" on="0"/>
        <pt x="1495" y="885" on="1"/>
        <pt x="1476" y="885" on="0"/>
        <pt x="1280" y="717" on="0"/>
        <pt x="973" y="391" on="0"/>
        <pt x="795" y="166" on="1"/>
        <pt x="785" y="154" on="0"/>
        <pt x="678" y="15" on="0"/>
        <pt x="634" y="-27" on="0"/>
        <pt x="618" y="-27" on="1"/>
        <pt x="590" y="-27" on="0"/>
        <pt x="549" y="86" on="0"/>
        <pt x="549" y="150" on="1"/>
        <pt x="549" y="189" on="0"/>
        <pt x="600" y="279" on="0"/>
        <pt x="771" y="512" on="0"/>
        <pt x="883" y="672" on="0"/>
        <pt x="950" y="786" on="1"/>
        <pt x="997" y="865" on="0"/>
        <pt x="1042" y="959" on="0"/>
        <pt x="1042" y="995" on="1"/>
        <pt x="1042" y="1026" on="0"/>
        <pt x="1024" y="1026" on="1"/>
        <pt x="986" y="1026" on="0"/>
        <pt x="776" y="823" on="0"/>
        <pt x="467" y="423" on="0"/>
        <pt x="299" y="160" on="1"/>
        <pt x="244" y="70" on="0"/>
        <pt x="198" y="8" on="0"/>
        <pt x="170" y="8" on="1"/>
        <pt x="135" y="8" on="0"/>
        <pt x="74" y="157" on="0"/>
        <pt x="74" y="203" on="1"/>
        <pt x="74" y="218" on="0"/>
        <pt x="86" y="236" on="1"/>
        <pt x="218" y="412" on="0"/>
        <pt x="388" y="658" on="0"/>
        <pt x="520" y="879" on="0"/>
        <pt x="580" y="1022" on="0"/>
        <pt x="580" y="1063" on="1"/>
        <pt x="580" y="1106" on="0"/>
        <pt x="541" y="1106" on="1"/>
        <pt x="509" y="1106" on="0"/>
        <pt x="355" y="1024" on="0"/>
        <pt x="120" y="882" on="0"/>
        <pt x="-22" y="807" on="0"/>
        <pt x="-57" y="807" on="1"/>
        <pt x="-90" y="807" on="0"/>
        <pt x="-90" y="844" on="1"/>
        <pt x="-90" y="865" on="0"/>
        <pt x="-62" y="1016" on="0"/>
        <pt x="-47" y="1047" on="1"/>
        <pt x="-26" y="1087" on="0"/>
        <pt x="147" y="1219" on="0"/>
        <pt x="156" y="1219" on="1"/>
        <pt x="164" y="1219" on="0"/>
        <pt x="164" y="1212" on="1"/>
        <pt x="164" y="1208" on="0"/>
        <pt x="156" y="1200" on="1"/>
        <pt x="115" y="1167" on="0"/>
        <pt x="75" y="1125" on="0"/>
        <pt x="70" y="1100" on="1"/>
        <pt x="253" y="1210" on="0"/>
        <pt x="542" y="1325" on="0"/>
        <pt x="598" y="1325" on="1"/>
        <pt x="626" y="1325" on="0"/>
        <pt x="676" y="1250" on="0"/>
        <pt x="711" y="1151" on="0"/>
        <pt x="711" y="1137" on="1"/>
        <pt x="711" y="1086" on="0"/>
        <pt x="659" y="947" on="0"/>
        <pt x="570" y="763" on="0"/>
        <pt x="504" y="625" on="1"/>
        <pt x="556" y="692" on="0"/>
        <pt x="650" y="806" on="0"/>
        <pt x="743" y="914" on="0"/>
        <pt x="791" y="969" on="1"/>
        <pt x="856" y="1044" on="0"/>
        <pt x="1018" y="1181" on="0"/>
        <pt x="1159" y="1268" on="0"/>
        <pt x="1184" y="1268" on="1"/>
        <pt x="1219" y="1268" on="0"/>
        <pt x="1274" y="1191" on="0"/>
        <pt x="1274" y="1147" on="1"/>
        <pt x="1274" y="1118" on="0"/>
        <pt x="1198" y="954" on="0"/>
        <pt x="1052" y="698" on="0"/>
        <pt x="932" y="496" on="1"/>
        <pt x="1046" y="617" on="0"/>
        <pt x="1292" y="873" on="0"/>
        <pt x="1412" y="991" on="0"/>
        <pt x="1452" y="1022" on="1"/>
        <pt x="1507" y="1064" on="0"/>
        <pt x="1618" y="1161" on="0"/>
        <pt x="1682" y="1217" on="0"/>
        <pt x="1732" y="1247" on="0"/>
        <pt x="1753" y="1247" on="1"/>
        <pt x="1779" y="1247" on="0"/>
        <pt x="1858" y="1127" on="0"/>
        <pt x="1858" y="1110" on="1"/>
        <pt x="1858" y="1089" on="0"/>
        <pt x="1811" y="1031" on="0"/>
        <pt x="1737" y="952" on="1"/>
        <pt x="1601" y="806" on="0"/>
        <pt x="1401" y="509" on="0"/>
        <pt x="1298" y="264" on="0"/>
        <pt x="1298" y="193" on="1"/>
        <pt x="1298" y="149" on="0"/>
        <pt x="1331" y="109" on="0"/>
        <pt x="1366" y="109" on="1"/>
        <pt x="1398" y="109" on="0"/>
        <pt x="1453" y="133" on="0"/>
        <pt x="1520" y="177" on="0"/>
        <pt x="1550" y="197" on="1"/>
        <pt x="1592" y="222" on="0"/>
        <pt x="1673" y="279" on="0"/>
        <pt x="1718" y="312" on="0"/>
      </contour>
    </TTGlyph>
    <TTGlyph name="N" xMin="-104" yMin="-111" xMax="1321" yMax="1354">
      <contour>
        <pt x="219" y="387" on="1"/>
        <pt x="398" y="680" on="0"/>
        <pt x="575" y="1017" on="0"/>
        <pt x="575" y="1063" on="1"/>
        <pt x="575" y="1080" on="0"/>
        <pt x="551" y="1102" on="0"/>
        <pt x="535" y="1102" on="1"/>
        <pt x="504" y="1102" on="0"/>
        <pt x="360" y="1042" on="1"/>
        <pt x="241" y="992" on="0"/>
        <pt x="131" y="933" on="0"/>
        <pt x="-62" y="823" on="0"/>
        <pt x="-76" y="823" on="1"/>
        <pt x="-104" y="823" on="0"/>
        <pt x="-104" y="862" on="1"/>
        <pt x="-104" y="936" on="0"/>
        <pt x="90" y="1186" on="0"/>
        <pt x="254" y="1280" on="1"/>
        <pt x="274" y="1293" on="0"/>
        <pt x="274" y="1278" on="1"/>
        <pt x="274" y="1273" on="0"/>
        <pt x="226" y="1237" on="0"/>
        <pt x="189" y="1200" on="0"/>
        <pt x="166" y="1163" on="1"/>
        <pt x="376" y="1268" on="0"/>
        <pt x="573" y="1354" on="0"/>
        <pt x="643" y="1354" on="1"/>
        <pt x="704" y="1354" on="0"/>
        <pt x="774" y="1303" on="0"/>
        <pt x="774" y="1255" on="1"/>
        <pt x="774" y="1213" on="0"/>
        <pt x="707" y="1053" on="0"/>
        <pt x="579" y="824" on="0"/>
        <pt x="446" y="600" on="0"/>
        <pt x="272" y="307" on="1"/>
        <pt x="466" y="550" on="0"/>
        <pt x="792" y="914" on="0"/>
        <pt x="1034" y="1142" on="0"/>
        <pt x="1200" y="1257" on="0"/>
        <pt x="1239" y="1257" on="1"/>
        <pt x="1253" y="1257" on="0"/>
        <pt x="1291" y="1204" on="0"/>
        <pt x="1321" y="1128" on="0"/>
        <pt x="1321" y="1104" on="1"/>
        <pt x="1321" y="1038" on="0"/>
        <pt x="1254" y="908" on="0"/>
        <pt x="1188" y="817" on="1"/>
        <pt x="1000" y="563" on="0"/>
        <pt x="827" y="271" on="0"/>
        <pt x="827" y="182" on="1"/>
        <pt x="827" y="115" on="0"/>
        <pt x="897" y="115" on="1"/>
        <pt x="929" y="115" on="0"/>
        <pt x="1015" y="163" on="0"/>
        <pt x="1135" y="263" on="0"/>
        <pt x="1196" y="322" on="1"/>
        <pt x="1198" y="244" on="1"/>
        <pt x="1112" y="156" on="0"/>
        <pt x="976" y="31" on="0"/>
        <pt x="855" y="-63" on="0"/>
        <pt x="759" y="-111" on="0"/>
        <pt x="723" y="-111" on="1"/>
        <pt x="671" y="-111" on="0"/>
        <pt x="608" y="-40" on="0"/>
        <pt x="608" y="18" on="1"/>
        <pt x="608" y="72" on="0"/>
        <pt x="655" y="225" on="0"/>
        <pt x="752" y="425" on="0"/>
        <pt x="895" y="659" on="0"/>
        <pt x="985" y="786" on="1"/>
        <pt x="1073" y="912" on="0"/>
        <pt x="1073" y="948" on="1"/>
        <pt x="1073" y="969" on="0"/>
        <pt x="1051" y="969" on="1"/>
        <pt x="962" y="969" on="0"/>
        <pt x="645" y="614" on="1"/>
        <pt x="625" y="592" on="0"/>
        <pt x="526" y="473" on="0"/>
        <pt x="423" y="339" on="0"/>
        <pt x="295" y="172" on="0"/>
        <pt x="229" y="86" on="1"/>
        <pt x="198" y="45" on="0"/>
        <pt x="176" y="45" on="1"/>
        <pt x="152" y="45" on="0"/>
        <pt x="74" y="123" on="0"/>
        <pt x="74" y="141" on="1"/>
        <pt x="74" y="162" on="0"/>
        <pt x="185" y="330" on="0"/>
      </contour>
    </TTGlyph>
    <TTGlyph name="O" xMin="80" yMin="-27" xMax="1120" yMax="1292">
      <contour>
        <pt x="772" y="1026" on="1"/>
        <pt x="799" y="1033" on="0"/>
        <pt x="854" y="1047" on="0"/>
        <pt x="911" y="1057" on="0"/>
        <pt x="938" y="1057" on="1"/>
        <pt x="996" y="1057" on="0"/>
        <pt x="1079" y="1005" on="0"/>
        <pt x="1120" y="916" on="0"/>
        <pt x="1120" y="864" on="1"/>
        <pt x="1120" y="783" on="0"/>
        <pt x="1061" y="574" on="0"/>
        <pt x="951" y="358" on="0"/>
        <pt x="877" y="262" on="1"/>
        <pt x="776" y="132" on="0"/>
        <pt x="493" y="-27" on="0"/>
        <pt x="375" y="-27" on="1"/>
        <pt x="288" y="-27" on="0"/>
        <pt x="155" y="68" on="0"/>
        <pt x="80" y="249" on="0"/>
        <pt x="80" y="371" on="1"/>
        <pt x="80" y="535" on="0"/>
        <pt x="259" y="864" on="0"/>
        <pt x="532" y="1131" on="0"/>
        <pt x="810" y="1292" on="0"/>
        <pt x="897" y="1292" on="1"/>
        <pt x="968" y="1292" on="0"/>
        <pt x="1044" y="1205" on="0"/>
        <pt x="1077" y="1108" on="1"/>
        <pt x="984" y="1105" on="0"/>
        <pt x="846" y="1066" on="0"/>
      </contour>
      <contour>
        <pt x="520" y="823" on="1"/>
        <pt x="450" y="748" on="0"/>
        <pt x="307" y="511" on="0"/>
        <pt x="219" y="283" on="0"/>
        <pt x="219" y="223" on="1"/>
        <pt x="219" y="74" on="0"/>
        <pt x="358" y="74" on="1"/>
        <pt x="455" y="74" on="0"/>
        <pt x="762" y="336" on="0"/>
        <pt x="989" y="705" on="0"/>
        <pt x="989" y="856" on="1"/>
        <pt x="989" y="967" on="0"/>
        <pt x="901" y="967" on="1"/>
        <pt x="833" y="967" on="0"/>
        <pt x="637" y="859" on="0"/>
        <pt x="547" y="760" on="1"/>
        <pt x="515" y="724" on="0"/>
        <pt x="420" y="584" on="1"/>
        <pt x="438" y="678" on="0"/>
      </contour>
    </TTGlyph>
    <TTGlyph name="P" xMin="47" yMin="-168" xMax="1341" yMax="1303">
      <contour>
        <pt x="418" y="594" on="1"/>
        <pt x="723" y="1049" on="1"/>
        <pt x="619" y="1045" on="0"/>
        <pt x="389" y="993" on="0"/>
        <pt x="225" y="934" on="0"/>
        <pt x="96" y="881" on="0"/>
        <pt x="68" y="870" on="1"/>
        <pt x="61" y="870" on="0"/>
        <pt x="47" y="880" on="0"/>
        <pt x="47" y="887" on="1"/>
        <pt x="47" y="895" on="0"/>
        <pt x="140" y="1075" on="0"/>
        <pt x="203" y="1178" on="1"/>
        <pt x="553" y="1303" on="0"/>
        <pt x="821" y="1303" on="1"/>
        <pt x="1131" y="1303" on="0"/>
        <pt x="1251" y="1171" on="1"/>
        <pt x="1294" y="1125" on="0"/>
        <pt x="1341" y="990" on="0"/>
        <pt x="1341" y="924" on="1"/>
        <pt x="1341" y="774" on="0"/>
        <pt x="1216" y="529" on="0"/>
        <pt x="984" y="349" on="0"/>
        <pt x="670" y="254" on="0"/>
        <pt x="483" y="254" on="1"/>
        <pt x="450" y="254" on="0"/>
        <pt x="348" y="266" on="1"/>
        <pt x="258" y="102" on="1"/>
        <pt x="272" y="81" on="0"/>
        <pt x="272" y="68" on="1"/>
        <pt x="272" y="37" on="0"/>
        <pt x="258" y="16" on="1"/>
        <pt x="238" y="-14" on="0"/>
        <pt x="172" y="-112" on="0"/>
        <pt x="149" y="-144" on="0"/>
        <pt x="120" y="-168" on="0"/>
        <pt x="106" y="-168" on="1"/>
        <pt x="77" y="-168" on="0"/>
        <pt x="61" y="-133" on="0"/>
        <pt x="61" y="-102" on="1"/>
        <pt x="61" y="-58" on="0"/>
        <pt x="148" y="133" on="0"/>
        <pt x="236" y="291" on="1"/>
        <pt x="189" y="309" on="0"/>
        <pt x="137" y="367" on="0"/>
        <pt x="137" y="395" on="1"/>
        <pt x="137" y="457" on="0"/>
        <pt x="279" y="563" on="0"/>
      </contour>
      <contour>
        <pt x="522" y="567" on="1"/>
        <pt x="465" y="471" on="1"/>
        <pt x="503" y="469" on="0"/>
        <pt x="562" y="465" on="0"/>
        <pt x="582" y="465" on="1"/>
        <pt x="757" y="465" on="0"/>
        <pt x="1014" y="559" on="0"/>
        <pt x="1165" y="698" on="0"/>
        <pt x="1233" y="838" on="0"/>
        <pt x="1233" y="885" on="1"/>
        <pt x="1233" y="950" on="0"/>
        <pt x="1129" y="1024" on="0"/>
        <pt x="934" y="1051" on="0"/>
        <pt x="780" y="1051" on="1"/>
        <pt x="782" y="1040" on="0"/>
        <pt x="782" y="1024" on="1"/>
        <pt x="782" y="972" on="0"/>
        <pt x="727" y="887" on="1"/>
        <pt x="553" y="614" on="1"/>
        <pt x="684" y="629" on="1"/>
        <pt x="700" y="629" on="0"/>
        <pt x="700" y="614" on="1"/>
        <pt x="700" y="601" on="0"/>
        <pt x="674" y="596" on="1"/>
      </contour>
    </TTGlyph>
    <TTGlyph name="Q" xMin="59" yMin="-84" xMax="1374" yMax="1260">
      <contour>
        <pt x="276" y="698" on="1"/>
        <pt x="276" y="786" on="1"/>
        <pt x="276" y="862" on="0"/>
        <pt x="326" y="960" on="0"/>
        <pt x="475" y="1056" on="0"/>
        <pt x="621" y="1120" on="1"/>
        <pt x="783" y="1193" on="0"/>
        <pt x="994" y="1260" on="0"/>
        <pt x="1106" y="1260" on="1"/>
        <pt x="1234" y="1260" on="0"/>
        <pt x="1374" y="1140" on="0"/>
        <pt x="1374" y="1032" on="1"/>
        <pt x="1374" y="705" on="0"/>
        <pt x="524" y="244" on="1"/>
        <pt x="613" y="230" on="0"/>
        <pt x="848" y="182" on="0"/>
        <pt x="990" y="160" on="0"/>
        <pt x="1065" y="160" on="1"/>
        <pt x="1160" y="160" on="0"/>
        <pt x="1249" y="186" on="1"/>
        <pt x="1187" y="52" on="0"/>
        <pt x="1134" y="-41" on="0"/>
        <pt x="1072" y="-84" on="0"/>
        <pt x="1020" y="-84" on="1"/>
        <pt x="910" y="-84" on="0"/>
        <pt x="734" y="-57" on="0"/>
        <pt x="447" y="1" on="0"/>
        <pt x="289" y="26" on="0"/>
        <pt x="211" y="23" on="1"/>
        <pt x="183" y="5" on="0"/>
        <pt x="148" y="-16" on="0"/>
        <pt x="114" y="-31" on="0"/>
        <pt x="100" y="-31" on="1"/>
        <pt x="59" y="-31" on="0"/>
        <pt x="59" y="14" on="1"/>
        <pt x="59" y="54" on="0"/>
        <pt x="119" y="173" on="0"/>
        <pt x="145" y="197" on="1"/>
        <pt x="174" y="225" on="0"/>
        <pt x="289" y="249" on="0"/>
        <pt x="389" y="254" on="1"/>
        <pt x="604" y="377" on="0"/>
        <pt x="905" y="587" on="0"/>
        <pt x="1026" y="709" on="1"/>
        <pt x="1098" y="781" on="0"/>
        <pt x="1193" y="915" on="0"/>
        <pt x="1235" y="1005" on="0"/>
        <pt x="1235" y="1024" on="1"/>
        <pt x="1235" y="1065" on="0"/>
        <pt x="1167" y="1065" on="1"/>
        <pt x="1069" y="1065" on="0"/>
        <pt x="848" y="999" on="0"/>
        <pt x="607" y="875" on="0"/>
        <pt x="455" y="776" on="1"/>
        <pt x="523" y="782" on="0"/>
        <pt x="588" y="782" on="1"/>
        <pt x="664" y="782" on="0"/>
        <pt x="664" y="754" on="1"/>
        <pt x="664" y="743" on="0"/>
        <pt x="621" y="729" on="0"/>
        <pt x="569" y="719" on="1"/>
        <pt x="539" y="714" on="0"/>
        <pt x="476" y="689" on="0"/>
        <pt x="392" y="649" on="0"/>
        <pt x="347" y="631" on="0"/>
        <pt x="332" y="631" on="1"/>
        <pt x="276" y="631" on="0"/>
      </contour>
    </TTGlyph>
    <TTGlyph name="R" xMin="74" yMin="-139" xMax="1542" yMax="1251">
      <contour>
        <pt x="776" y="92" on="1"/>
        <pt x="399" y="276" on="1"/>
        <pt x="255" y="79" on="0"/>
        <pt x="238" y="16" on="1"/>
        <pt x="226" y="-29" on="0"/>
        <pt x="143" y="-90" on="0"/>
        <pt x="125" y="-90" on="1"/>
        <pt x="74" y="-90" on="0"/>
        <pt x="74" y="-51" on="1"/>
        <pt x="74" y="-29" on="0"/>
        <pt x="195" y="180" on="0"/>
        <pt x="301" y="322" on="1"/>
        <pt x="242" y="346" on="0"/>
        <pt x="214" y="362" on="0"/>
        <pt x="220" y="407" on="0"/>
        <pt x="252" y="455" on="1"/>
        <pt x="280" y="497" on="0"/>
        <pt x="308" y="526" on="0"/>
        <pt x="346" y="543" on="0"/>
        <pt x="388" y="549" on="0"/>
        <pt x="485" y="561" on="1"/>
        <pt x="564" y="668" on="0"/>
        <pt x="749" y="916" on="0"/>
        <pt x="801" y="985" on="1"/>
        <pt x="644" y="964" on="0"/>
        <pt x="582" y="950" on="1"/>
        <pt x="516" y="937" on="0"/>
        <pt x="427" y="920" on="0"/>
        <pt x="391" y="907" on="0"/>
        <pt x="391" y="895" on="1"/>
        <pt x="391" y="884" on="0"/>
        <pt x="435" y="876" on="0"/>
        <pt x="502" y="876" on="0"/>
        <pt x="539" y="871" on="0"/>
        <pt x="539" y="862" on="1"/>
        <pt x="539" y="852" on="0"/>
        <pt x="490" y="849" on="0"/>
        <pt x="377" y="844" on="1"/>
        <pt x="313" y="842" on="0"/>
        <pt x="226" y="838" on="0"/>
        <pt x="209" y="838" on="1"/>
        <pt x="186" y="838" on="0"/>
        <pt x="160" y="866" on="0"/>
        <pt x="160" y="889" on="1"/>
        <pt x="160" y="906" on="0"/>
        <pt x="198" y="998" on="0"/>
        <pt x="268" y="1092" on="0"/>
        <pt x="313" y="1118" on="1"/>
        <pt x="364" y="1149" on="0"/>
        <pt x="579" y="1212" on="0"/>
        <pt x="842" y="1251" on="0"/>
        <pt x="971" y="1251" on="1"/>
        <pt x="1049" y="1251" on="0"/>
        <pt x="1198" y="1233" on="0"/>
        <pt x="1319" y="1207" on="0"/>
        <pt x="1354" y="1194" on="1"/>
        <pt x="1445" y="1164" on="0"/>
        <pt x="1542" y="1042" on="0"/>
        <pt x="1542" y="969" on="1"/>
        <pt x="1542" y="898" on="0"/>
        <pt x="1493" y="763" on="0"/>
        <pt x="1392" y="648" on="0"/>
        <pt x="1321" y="612" on="1"/>
        <pt x="1263" y="582" on="0"/>
        <pt x="1027" y="520" on="0"/>
        <pt x="693" y="472" on="0"/>
        <pt x="487" y="461" on="1"/>
        <pt x="641" y="407" on="0"/>
        <pt x="908" y="298" on="0"/>
        <pt x="1091" y="213" on="0"/>
        <pt x="1143" y="186" on="1"/>
        <pt x="1216" y="148" on="0"/>
        <pt x="1260" y="114" on="0"/>
        <pt x="1274" y="60" on="0"/>
        <pt x="1274" y="-2" on="1"/>
        <pt x="1274" y="-72" on="0"/>
        <pt x="1257" y="-139" on="0"/>
        <pt x="1229" y="-139" on="1"/>
        <pt x="1220" y="-139" on="0"/>
        <pt x="1143" y="-100" on="0"/>
        <pt x="1007" y="-25" on="0"/>
        <pt x="896" y="34" on="0"/>
      </contour>
      <contour>
        <pt x="864" y="995" on="1"/>
        <pt x="865" y="988" on="0"/>
        <pt x="866" y="976" on="0"/>
        <pt x="866" y="965" on="1"/>
        <pt x="866" y="937" on="0"/>
        <pt x="831" y="864" on="0"/>
        <pt x="776" y="787" on="0"/>
        <pt x="667" y="644" on="0"/>
        <pt x="621" y="584" on="1"/>
        <pt x="831" y="624" on="0"/>
        <pt x="1128" y="698" on="0"/>
        <pt x="1320" y="773" on="0"/>
        <pt x="1417" y="856" on="0"/>
        <pt x="1417" y="901" on="1"/>
        <pt x="1417" y="951" on="0"/>
        <pt x="1214" y="1008" on="0"/>
        <pt x="1067" y="1008" on="1"/>
        <pt x="1037" y="1008" on="0"/>
        <pt x="970" y="1005" on="0"/>
        <pt x="877" y="996" on="0"/>
      </contour>
    </TTGlyph>
    <TTGlyph name="S" xMin="20" yMin="-117" xMax="1413" yMax="1202">
      <contour>
        <pt x="1051" y="289" on="1"/>
        <pt x="1026" y="335" on="0"/>
        <pt x="926" y="409" on="0"/>
        <pt x="801" y="454" on="0"/>
        <pt x="733" y="465" on="1"/>
        <pt x="531" y="495" on="0"/>
        <pt x="356" y="596" on="1"/>
        <pt x="341" y="604" on="0"/>
        <pt x="307" y="656" on="0"/>
        <pt x="307" y="680" on="1"/>
        <pt x="307" y="768" on="0"/>
        <pt x="366" y="945" on="0"/>
        <pt x="412" y="995" on="1"/>
        <pt x="486" y="1078" on="0"/>
        <pt x="871" y="1202" on="0"/>
        <pt x="1112" y="1202" on="1"/>
        <pt x="1256" y="1202" on="0"/>
        <pt x="1413" y="1158" on="0"/>
        <pt x="1413" y="1112" on="1"/>
        <pt x="1413" y="1037" on="0"/>
        <pt x="1372" y="955" on="0"/>
        <pt x="1325" y="928" on="0"/>
        <pt x="1266" y="905" on="1"/>
        <pt x="1203" y="883" on="0"/>
        <pt x="1110" y="835" on="0"/>
        <pt x="1044" y="791" on="0"/>
        <pt x="1036" y="791" on="1"/>
        <pt x="1026" y="791" on="0"/>
        <pt x="1026" y="799" on="1"/>
        <pt x="1026" y="816" on="0"/>
        <pt x="1097" y="885" on="0"/>
        <pt x="1149" y="911" on="1"/>
        <pt x="1204" y="940" on="0"/>
        <pt x="1204" y="948" on="1"/>
        <pt x="1204" y="961" on="0"/>
        <pt x="1143" y="961" on="1"/>
        <pt x="958" y="961" on="0"/>
        <pt x="644" y="895" on="0"/>
        <pt x="463" y="787" on="0"/>
        <pt x="463" y="731" on="1"/>
        <pt x="463" y="696" on="0"/>
        <pt x="538" y="667" on="0"/>
        <pt x="794" y="599" on="0"/>
        <pt x="895" y="555" on="1"/>
        <pt x="1040" y="493" on="0"/>
        <pt x="1180" y="359" on="0"/>
        <pt x="1180" y="276" on="1"/>
        <pt x="1180" y="219" on="0"/>
        <pt x="1125" y="104" on="0"/>
        <pt x="1019" y="8" on="0"/>
        <pt x="950" y="-23" on="1"/>
        <pt x="891" y="-48" on="0"/>
        <pt x="712" y="-92" on="0"/>
        <pt x="503" y="-117" on="0"/>
        <pt x="408" y="-117" on="1"/>
        <pt x="233" y="-117" on="0"/>
        <pt x="20" y="-51" on="0"/>
        <pt x="20" y="16" on="1"/>
        <pt x="20" y="46" on="0"/>
        <pt x="92" y="173" on="0"/>
        <pt x="141" y="195" on="1"/>
        <pt x="184" y="212" on="0"/>
        <pt x="264" y="217" on="0"/>
        <pt x="264" y="205" on="1"/>
        <pt x="264" y="202" on="0"/>
        <pt x="258" y="196" on="0"/>
        <pt x="250" y="192" on="0"/>
        <pt x="246" y="190" on="1"/>
        <pt x="226" y="182" on="0"/>
        <pt x="201" y="173" on="0"/>
        <pt x="186" y="164" on="0"/>
        <pt x="186" y="156" on="1"/>
        <pt x="186" y="135" on="0"/>
        <pt x="393" y="135" on="1"/>
        <pt x="573" y="135" on="0"/>
        <pt x="803" y="161" on="0"/>
        <pt x="979" y="229" on="0"/>
      </contour>
    </TTGlyph>
    <TTGlyph name="T" xMin="123" yMin="-102" xMax="1319" yMax="1341">
      <contour>
        <pt x="817" y="199" on="1"/>
        <pt x="850" y="174" on="1"/>
        <pt x="837" y="146" on="0"/>
        <pt x="813" y="104" on="0"/>
        <pt x="779" y="44" on="0"/>
        <pt x="770" y="29" on="1"/>
        <pt x="695" y="-102" on="0"/>
        <pt x="629" y="-102" on="1"/>
        <pt x="601" y="-102" on="0"/>
        <pt x="561" y="-58" on="0"/>
        <pt x="561" y="-20" on="1"/>
        <pt x="561" y="34" on="0"/>
        <pt x="638" y="222" on="0"/>
        <pt x="799" y="497" on="0"/>
        <pt x="1043" y="845" on="0"/>
        <pt x="1196" y="1038" on="1"/>
        <pt x="1108" y="1051" on="0"/>
        <pt x="987" y="1051" on="1"/>
        <pt x="848" y="1051" on="0"/>
        <pt x="507" y="989" on="0"/>
        <pt x="254" y="908" on="0"/>
        <pt x="254" y="889" on="1"/>
        <pt x="254" y="882" on="0"/>
        <pt x="264" y="877" on="0"/>
        <pt x="287" y="874" on="0"/>
        <pt x="305" y="872" on="1"/>
        <pt x="422" y="856" on="0"/>
        <pt x="422" y="836" on="1"/>
        <pt x="422" y="826" on="0"/>
        <pt x="320" y="827" on="0"/>
        <pt x="248" y="827" on="1"/>
        <pt x="191" y="827" on="0"/>
        <pt x="140" y="836" on="0"/>
        <pt x="123" y="861" on="0"/>
        <pt x="123" y="887" on="1"/>
        <pt x="123" y="904" on="0"/>
        <pt x="133" y="961" on="1"/>
        <pt x="152" y="1067" on="0"/>
        <pt x="231" y="1195" on="0"/>
        <pt x="394" y="1276" on="0"/>
        <pt x="537" y="1300" on="1"/>
        <pt x="777" y="1341" on="0"/>
        <pt x="934" y="1341" on="1"/>
        <pt x="1050" y="1341" on="0"/>
        <pt x="1184" y="1322" on="0"/>
        <pt x="1247" y="1286" on="0"/>
        <pt x="1264" y="1251" on="0"/>
        <pt x="1278" y="1208" on="1"/>
        <pt x="1309" y="1116" on="1"/>
        <pt x="1312" y="1107" on="0"/>
        <pt x="1316" y="1096" on="0"/>
        <pt x="1319" y="1084" on="0"/>
        <pt x="1319" y="1079" on="1"/>
        <pt x="1319" y="1040" on="0"/>
        <pt x="1284" y="978" on="0"/>
        <pt x="1191" y="854" on="0"/>
        <pt x="1169" y="819" on="1"/>
        <pt x="911" y="400" on="0"/>
      </contour>
    </TTGlyph>
    <TTGlyph name="U" xMin="-80" yMin="-37" xMax="1409" yMax="1331">
      <contour>
        <pt x="1227" y="788" on="1"/>
        <pt x="1129" y="644" on="0"/>
        <pt x="995" y="410" on="0"/>
        <pt x="928" y="245" on="0"/>
        <pt x="928" y="205" on="1"/>
        <pt x="928" y="131" on="0"/>
        <pt x="993" y="131" on="1"/>
        <pt x="1062" y="131" on="0"/>
        <pt x="1305" y="319" on="1"/>
        <pt x="1303" y="250" on="1"/>
        <pt x="1022" y="-37" on="0"/>
        <pt x="891" y="-37" on="1"/>
        <pt x="735" y="-37" on="0"/>
        <pt x="735" y="125" on="1"/>
        <pt x="735" y="222" on="0"/>
        <pt x="925" y="578" on="0"/>
        <pt x="1120" y="860" on="1"/>
        <pt x="891" y="610" on="0"/>
        <pt x="584" y="288" on="0"/>
        <pt x="420" y="137" on="1"/>
        <pt x="381" y="100" on="0"/>
        <pt x="317" y="39" on="0"/>
        <pt x="253" y="4" on="0"/>
        <pt x="215" y="4" on="1"/>
        <pt x="156" y="4" on="0"/>
        <pt x="78" y="96" on="0"/>
        <pt x="78" y="180" on="1"/>
        <pt x="78" y="234" on="0"/>
        <pt x="142" y="377" on="0"/>
        <pt x="272" y="567" on="0"/>
        <pt x="367" y="680" on="1"/>
        <pt x="521" y="865" on="0"/>
        <pt x="639" y="1017" on="0"/>
        <pt x="639" y="1038" on="1"/>
        <pt x="639" y="1053" on="0"/>
        <pt x="623" y="1053" on="1"/>
        <pt x="604" y="1053" on="0"/>
        <pt x="515" y="1018" on="0"/>
        <pt x="369" y="939" on="0"/>
        <pt x="254" y="866" on="1"/>
        <pt x="168" y="812" on="0"/>
        <pt x="1" y="745" on="0"/>
        <pt x="-33" y="745" on="1"/>
        <pt x="-53" y="745" on="0"/>
        <pt x="-80" y="767" on="0"/>
        <pt x="-80" y="784" on="1"/>
        <pt x="-80" y="808" on="0"/>
        <pt x="-38" y="917" on="0"/>
        <pt x="29" y="1034" on="0"/>
        <pt x="55" y="1063" on="1"/>
        <pt x="127" y="1143" on="0"/>
        <pt x="377" y="1265" on="0"/>
        <pt x="641" y="1331" on="0"/>
        <pt x="727" y="1331" on="1"/>
        <pt x="791" y="1331" on="0"/>
        <pt x="850" y="1288" on="0"/>
        <pt x="850" y="1239" on="1"/>
        <pt x="850" y="1132" on="0"/>
        <pt x="796" y="1015" on="0"/>
        <pt x="733" y="922" on="1"/>
        <pt x="710" y="886" on="0"/>
        <pt x="619" y="761" on="0"/>
        <pt x="526" y="642" on="0"/>
        <pt x="466" y="562" on="0"/>
        <pt x="434" y="514" on="1"/>
        <pt x="347" y="386" on="0"/>
        <pt x="301" y="312" on="0"/>
        <pt x="301" y="285" on="1"/>
        <pt x="301" y="250" on="0"/>
        <pt x="334" y="250" on="1"/>
        <pt x="364" y="250" on="0"/>
        <pt x="420" y="293" on="0"/>
        <pt x="512" y="373" on="1"/>
        <pt x="618" y="464" on="0"/>
        <pt x="818" y="664" on="0"/>
        <pt x="982" y="845" on="0"/>
        <pt x="1108" y="989" on="1"/>
        <pt x="1249" y="1153" on="0"/>
        <pt x="1327" y="1235" on="0"/>
        <pt x="1352" y="1235" on="1"/>
        <pt x="1374" y="1235" on="0"/>
        <pt x="1409" y="1164" on="0"/>
        <pt x="1409" y="1100" on="1"/>
        <pt x="1409" y="1066" on="0"/>
        <pt x="1340" y="953" on="0"/>
      </contour>
    </TTGlyph>
    <TTGlyph name="V" xMin="-233" yMin="-111" xMax="1042" yMax="1298">
      <contour>
        <pt x="723" y="1130" on="1"/>
        <pt x="723" y="1121" on="0"/>
        <pt x="677" y="1048" on="0"/>
        <pt x="587" y="907" on="0"/>
        <pt x="459" y="688" on="0"/>
        <pt x="391" y="555" on="1"/>
        <pt x="313" y="402" on="0"/>
        <pt x="244" y="227" on="0"/>
        <pt x="244" y="164" on="1"/>
        <pt x="244" y="114" on="0"/>
        <pt x="297" y="76" on="1"/>
        <pt x="361" y="126" on="0"/>
        <pt x="485" y="264" on="0"/>
        <pt x="606" y="434" on="0"/>
        <pt x="765" y="694" on="0"/>
        <pt x="827" y="803" on="1"/>
        <pt x="824" y="812" on="0"/>
        <pt x="817" y="830" on="0"/>
        <pt x="817" y="836" on="1"/>
        <pt x="817" y="883" on="0"/>
        <pt x="855" y="965" on="0"/>
        <pt x="912" y="1043" on="0"/>
        <pt x="969" y="1114" on="1"/>
        <pt x="984" y="1133" on="0"/>
        <pt x="1006" y="1133" on="1"/>
        <pt x="1042" y="1133" on="0"/>
        <pt x="1042" y="1087" on="1"/>
        <pt x="1042" y="1041" on="0"/>
        <pt x="967" y="844" on="0"/>
        <pt x="821" y="578" on="0"/>
        <pt x="604" y="249" on="0"/>
        <pt x="467" y="70" on="1"/>
        <pt x="328" y="-111" on="0"/>
        <pt x="268" y="-111" on="1"/>
        <pt x="234" y="-111" on="0"/>
        <pt x="148" y="-36" on="0"/>
        <pt x="86" y="94" on="0"/>
        <pt x="86" y="168" on="1"/>
        <pt x="86" y="212" on="0"/>
        <pt x="123" y="350" on="0"/>
        <pt x="202" y="543" on="0"/>
        <pt x="252" y="637" on="1"/>
        <pt x="304" y="736" on="0"/>
        <pt x="383" y="866" on="0"/>
        <pt x="483" y="1025" on="0"/>
        <pt x="483" y="1032" on="1"/>
        <pt x="483" y="1047" on="0"/>
        <pt x="463" y="1047" on="1"/>
        <pt x="405" y="1047" on="0"/>
        <pt x="212" y="929" on="0"/>
        <pt x="57" y="809" on="1"/>
        <pt x="-2" y="763" on="0"/>
        <pt x="-33" y="736" on="0"/>
        <pt x="-33" y="727" on="1"/>
        <pt x="-33" y="715" on="0"/>
        <pt x="-14" y="715" on="1"/>
        <pt x="-6" y="715" on="0"/>
        <pt x="86" y="727" on="0"/>
        <pt x="113" y="727" on="1"/>
        <pt x="158" y="727" on="0"/>
        <pt x="158" y="711" on="1"/>
        <pt x="158" y="697" on="0"/>
        <pt x="121" y="681" on="0"/>
        <pt x="56" y="665" on="0"/>
        <pt x="0" y="651" on="1"/>
        <pt x="-60" y="635" on="0"/>
        <pt x="-195" y="575" on="0"/>
        <pt x="-205" y="575" on="1"/>
        <pt x="-224" y="575" on="0"/>
        <pt x="-233" y="603" on="0"/>
        <pt x="-233" y="635" on="1"/>
        <pt x="-233" y="777" on="0"/>
        <pt x="-139" y="932" on="0"/>
        <pt x="-18" y="1016" on="1"/>
        <pt x="120" y="1112" on="0"/>
        <pt x="372" y="1239" on="0"/>
        <pt x="555" y="1298" on="0"/>
        <pt x="598" y="1298" on="1"/>
        <pt x="640" y="1298" on="0"/>
        <pt x="723" y="1190" on="0"/>
      </contour>
    </TTGlyph>
    <TTGlyph name="W" xMin="-78" yMin="-63" xMax="1606" yMax="1237">
      <contour>
        <pt x="88" y="162" on="1"/>
        <pt x="88" y="185" on="0"/>
        <pt x="108" y="268" on="0"/>
        <pt x="125" y="291" on="1"/>
        <pt x="168" y="352" on="0"/>
        <pt x="240" y="454" on="0"/>
        <pt x="296" y="528" on="0"/>
        <pt x="324" y="557" on="1"/>
        <pt x="495" y="742" on="0"/>
        <pt x="643" y="925" on="0"/>
        <pt x="643" y="961" on="1"/>
        <pt x="643" y="985" on="0"/>
        <pt x="599" y="1012" on="0"/>
        <pt x="563" y="1012" on="1"/>
        <pt x="489" y="1012" on="0"/>
        <pt x="265" y="907" on="0"/>
        <pt x="-34" y="739" on="0"/>
        <pt x="-51" y="739" on="1"/>
        <pt x="-78" y="739" on="0"/>
        <pt x="-78" y="778" on="1"/>
        <pt x="-78" y="811" on="0"/>
        <pt x="-57" y="872" on="1"/>
        <pt x="-41" y="938" on="0"/>
        <pt x="-21" y="1011" on="0"/>
        <pt x="26" y="1069" on="0"/>
        <pt x="135" y="1137" on="0"/>
        <pt x="248" y="1196" on="1"/>
        <pt x="258" y="1159" on="1"/>
        <pt x="352" y="1197" on="0"/>
        <pt x="519" y="1237" on="0"/>
        <pt x="578" y="1237" on="1"/>
        <pt x="694" y="1237" on="0"/>
        <pt x="791" y="1158" on="0"/>
        <pt x="791" y="1026" on="1"/>
        <pt x="791" y="954" on="0"/>
        <pt x="749" y="858" on="0"/>
        <pt x="688" y="772" on="1"/>
        <pt x="549" y="570" on="0"/>
        <pt x="479" y="492" on="1"/>
        <pt x="276" y="260" on="0"/>
        <pt x="276" y="221" on="1"/>
        <pt x="276" y="199" on="0"/>
        <pt x="305" y="199" on="1"/>
        <pt x="329" y="199" on="0"/>
        <pt x="417" y="267" on="0"/>
        <pt x="541" y="395" on="0"/>
        <pt x="651" y="514" on="1"/>
        <pt x="768" y="640" on="0"/>
        <pt x="929" y="833" on="0"/>
        <pt x="1033" y="970" on="0"/>
        <pt x="1036" y="975" on="1"/>
        <pt x="1090" y="1041" on="0"/>
        <pt x="1205" y="1126" on="0"/>
        <pt x="1221" y="1126" on="1"/>
        <pt x="1233" y="1126" on="0"/>
        <pt x="1265" y="1082" on="0"/>
        <pt x="1288" y="1022" on="0"/>
        <pt x="1288" y="1006" on="1"/>
        <pt x="1288" y="1001" on="0"/>
        <pt x="1240" y="914" on="0"/>
        <pt x="1184" y="821" on="0"/>
        <pt x="1122" y="725" on="1"/>
        <pt x="986" y="514" on="0"/>
        <pt x="842" y="227" on="0"/>
        <pt x="842" y="182" on="1"/>
        <pt x="842" y="166" on="0"/>
        <pt x="865" y="139" on="0"/>
        <pt x="877" y="139" on="1"/>
        <pt x="893" y="139" on="0"/>
        <pt x="977" y="190" on="0"/>
        <pt x="1028" y="238" on="1"/>
        <pt x="1095" y="302" on="0"/>
        <pt x="1205" y="440" on="0"/>
        <pt x="1313" y="610" on="0"/>
        <pt x="1397" y="762" on="0"/>
        <pt x="1440" y="846" on="1"/>
        <pt x="1423" y="897" on="1"/>
        <pt x="1419" y="909" on="0"/>
        <pt x="1419" y="928" on="1"/>
        <pt x="1419" y="943" on="0"/>
        <pt x="1537" y="1108" on="0"/>
        <pt x="1556" y="1108" on="1"/>
        <pt x="1577" y="1108" on="0"/>
        <pt x="1606" y="1047" on="0"/>
        <pt x="1606" y="1016" on="1"/>
        <pt x="1606" y="982" on="0"/>
        <pt x="1545" y="779" on="0"/>
        <pt x="1416" y="491" on="0"/>
        <pt x="1321" y="342" on="1"/>
        <pt x="1239" y="212" on="0"/>
        <pt x="1052" y="27" on="0"/>
        <pt x="902" y="-63" on="0"/>
        <pt x="866" y="-63" on="1"/>
        <pt x="825" y="-63" on="0"/>
        <pt x="780" y="-27" on="1"/>
        <pt x="743" y="5" on="0"/>
        <pt x="712" y="56" on="0"/>
        <pt x="702" y="116" on="0"/>
        <pt x="702" y="156" on="1"/>
        <pt x="702" y="241" on="0"/>
        <pt x="796" y="469" on="0"/>
        <pt x="889" y="639" on="1"/>
        <pt x="598" y="285" on="0"/>
        <pt x="279" y="-37" on="0"/>
        <pt x="205" y="-37" on="1"/>
        <pt x="156" y="-37" on="0"/>
        <pt x="88" y="80" on="0"/>
      </contour>
    </TTGlyph>
    <TTGlyph name="X" xMin="68" yMin="-131" xMax="1331" yMax="1278">
      <contour>
        <pt x="725" y="610" on="1"/>
        <pt x="735" y="1059" on="1"/>
        <pt x="641" y="1045" on="0"/>
        <pt x="460" y="972" on="0"/>
        <pt x="319" y="890" on="0"/>
        <pt x="227" y="818" on="0"/>
        <pt x="227" y="809" on="1"/>
        <pt x="227" y="799" on="0"/>
        <pt x="254" y="799" on="1"/>
        <pt x="264" y="799" on="0"/>
        <pt x="303" y="802" on="0"/>
        <pt x="336" y="805" on="1"/>
        <pt x="354" y="805" on="0"/>
        <pt x="354" y="799" on="1"/>
        <pt x="354" y="796" on="0"/>
        <pt x="342" y="786" on="0"/>
        <pt x="340" y="786" on="1"/>
        <pt x="246" y="749" on="0"/>
        <pt x="97" y="702" on="0"/>
        <pt x="86" y="702" on="1"/>
        <pt x="68" y="702" on="0"/>
        <pt x="68" y="725" on="1"/>
        <pt x="68" y="785" on="0"/>
        <pt x="137" y="950" on="0"/>
        <pt x="199" y="1012" on="1"/>
        <pt x="242" y="1057" on="0"/>
        <pt x="398" y="1153" on="0"/>
        <pt x="581" y="1231" on="0"/>
        <pt x="767" y="1278" on="0"/>
        <pt x="844" y="1278" on="1"/>
        <pt x="890" y="1278" on="0"/>
        <pt x="940" y="1243" on="0"/>
        <pt x="940" y="1182" on="1"/>
        <pt x="940" y="1157" on="0"/>
        <pt x="925" y="937" on="0"/>
        <pt x="924" y="827" on="1"/>
        <pt x="1110" y="1030" on="1"/>
        <pt x="1154" y="1078" on="0"/>
        <pt x="1246" y="1181" on="0"/>
        <pt x="1279" y="1206" on="0"/>
        <pt x="1296" y="1206" on="1"/>
        <pt x="1331" y="1206" on="0"/>
        <pt x="1331" y="1176" on="1"/>
        <pt x="1331" y="1135" on="0"/>
        <pt x="1249" y="989" on="1"/>
        <pt x="1219" y="973" on="0"/>
        <pt x="1176" y="965" on="1"/>
        <pt x="909" y="662" on="1"/>
        <pt x="877" y="119" on="1"/>
        <pt x="875" y="92" on="0"/>
        <pt x="898" y="66" on="0"/>
        <pt x="920" y="66" on="1"/>
        <pt x="948" y="66" on="0"/>
        <pt x="1051" y="123" on="0"/>
        <pt x="1135" y="180" on="1"/>
        <pt x="1139" y="182" on="0"/>
        <pt x="1147" y="182" on="1"/>
        <pt x="1165" y="182" on="0"/>
        <pt x="1165" y="166" on="1"/>
        <pt x="1165" y="141" on="0"/>
        <pt x="1037" y="-10" on="0"/>
        <pt x="868" y="-129" on="0"/>
        <pt x="799" y="-129" on="1"/>
        <pt x="748" y="-129" on="0"/>
        <pt x="713" y="-51" on="0"/>
        <pt x="713" y="39" on="1"/>
        <pt x="713" y="68" on="0"/>
        <pt x="714" y="126" on="0"/>
        <pt x="716" y="236" on="0"/>
        <pt x="719" y="354" on="0"/>
        <pt x="721" y="442" on="1"/>
        <pt x="602" y="316" on="0"/>
        <pt x="448" y="136" on="0"/>
        <pt x="369" y="34" on="0"/>
        <pt x="358" y="18" on="1"/>
        <pt x="309" y="-41" on="0"/>
        <pt x="175" y="-131" on="0"/>
        <pt x="143" y="-131" on="1"/>
        <pt x="111" y="-131" on="0"/>
        <pt x="111" y="-82" on="1"/>
        <pt x="111" y="-22" on="0"/>
        <pt x="222" y="138" on="0"/>
        <pt x="307" y="197" on="1"/>
        <pt x="330" y="210" on="0"/>
        <pt x="395" y="244" on="1"/>
      </contour>
    </TTGlyph>
    <TTGlyph name="Y" xMin="-137" yMin="-528" xMax="1141" yMax="1327">
      <contour>
        <pt x="-131" y="696" on="1"/>
        <pt x="-113" y="813" on="1"/>
        <pt x="-104" y="873" on="0"/>
        <pt x="-58" y="949" on="0"/>
        <pt x="57" y="1040" on="0"/>
        <pt x="178" y="1124" on="1"/>
        <pt x="469" y="1327" on="0"/>
        <pt x="631" y="1327" on="1"/>
        <pt x="680" y="1327" on="0"/>
        <pt x="721" y="1287" on="0"/>
        <pt x="721" y="1237" on="1"/>
        <pt x="721" y="1202" on="0"/>
        <pt x="668" y="1080" on="0"/>
        <pt x="527" y="816" on="0"/>
        <pt x="473" y="711" on="1"/>
        <pt x="429" y="625" on="0"/>
        <pt x="317" y="432" on="0"/>
        <pt x="279" y="360" on="0"/>
        <pt x="279" y="342" on="1"/>
        <pt x="279" y="322" on="0"/>
        <pt x="305" y="293" on="0"/>
        <pt x="324" y="293" on="1"/>
        <pt x="350" y="293" on="0"/>
        <pt x="415" y="349" on="0"/>
        <pt x="510" y="442" on="1"/>
        <pt x="556" y="488" on="0"/>
        <pt x="661" y="614" on="0"/>
        <pt x="817" y="812" on="0"/>
        <pt x="883" y="897" on="1"/>
        <pt x="924" y="950" on="0"/>
        <pt x="990" y="1034" on="0"/>
        <pt x="1037" y="1079" on="0"/>
        <pt x="1051" y="1079" on="1"/>
        <pt x="1063" y="1079" on="0"/>
        <pt x="1090" y="1049" on="1"/>
        <pt x="1114" y="1018" on="1"/>
        <pt x="1141" y="980" on="0"/>
        <pt x="1141" y="963" on="1"/>
        <pt x="1141" y="943" on="0"/>
        <pt x="992" y="690" on="0"/>
        <pt x="888" y="505" on="0"/>
        <pt x="723" y="156" on="0"/>
        <pt x="647" y="-57" on="1"/>
        <pt x="850" y="96" on="0"/>
        <pt x="1000" y="199" on="0"/>
        <pt x="1034" y="199" on="1"/>
        <pt x="1057" y="199" on="0"/>
        <pt x="1057" y="180" on="1"/>
        <pt x="1057" y="159" on="0"/>
        <pt x="1013" y="92" on="0"/>
        <pt x="939" y="11" on="0"/>
        <pt x="790" y="-142" on="0"/>
        <pt x="702" y="-231" on="1"/>
        <pt x="648" y="-286" on="0"/>
        <pt x="546" y="-432" on="0"/>
        <pt x="490" y="-512" on="0"/>
        <pt x="467" y="-518" on="1"/>
        <pt x="433" y="-528" on="0"/>
        <pt x="377" y="-478" on="0"/>
        <pt x="377" y="-424" on="1"/>
        <pt x="377" y="-386" on="0"/>
        <pt x="454" y="-148" on="0"/>
        <pt x="532" y="29" on="1"/>
        <pt x="578" y="135" on="0"/>
        <pt x="674" y="324" on="0"/>
        <pt x="799" y="551" on="0"/>
        <pt x="919" y="755" on="0"/>
        <pt x="961" y="827" on="1"/>
        <pt x="861" y="696" on="0"/>
        <pt x="664" y="449" on="0"/>
        <pt x="421" y="176" on="0"/>
        <pt x="297" y="57" on="1"/>
        <pt x="243" y="6" on="0"/>
        <pt x="196" y="-31" on="0"/>
        <pt x="158" y="-31" on="1"/>
        <pt x="134" y="-31" on="0"/>
        <pt x="89" y="2" on="0"/>
        <pt x="59" y="55" on="0"/>
        <pt x="59" y="80" on="1"/>
        <pt x="59" y="122" on="0"/>
        <pt x="84" y="186" on="0"/>
        <pt x="115" y="250" on="1"/>
        <pt x="251" y="525" on="0"/>
        <pt x="313" y="627" on="1"/>
        <pt x="535" y="983" on="0"/>
        <pt x="535" y="1026" on="1"/>
        <pt x="535" y="1040" on="0"/>
        <pt x="515" y="1057" on="0"/>
        <pt x="500" y="1057" on="1"/>
        <pt x="472" y="1057" on="0"/>
        <pt x="394" y="1008" on="0"/>
        <pt x="276" y="912" on="0"/>
        <pt x="107" y="778" on="0"/>
        <pt x="14" y="717" on="1"/>
        <pt x="-23" y="693" on="0"/>
        <pt x="-116" y="627" on="0"/>
        <pt x="-123" y="627" on="1"/>
        <pt x="-137" y="627" on="0"/>
        <pt x="-137" y="641" on="1"/>
        <pt x="-137" y="654" on="0"/>
      </contour>
    </TTGlyph>
    <TTGlyph name="Z" xMin="92" yMin="-592" xMax="1198" yMax="1227">
      <contour>
        <pt x="158" y="-573" on="1"/>
        <pt x="123" y="-541" on="1"/>
        <pt x="92" y="-510" on="0"/>
        <pt x="92" y="-473" on="1"/>
        <pt x="92" y="-439" on="0"/>
        <pt x="187" y="-294" on="0"/>
        <pt x="381" y="-105" on="0"/>
        <pt x="678" y="104" on="0"/>
        <pt x="866" y="199" on="1"/>
        <pt x="855" y="272" on="0"/>
        <pt x="798" y="322" on="0"/>
        <pt x="729" y="322" on="1"/>
        <pt x="671" y="322" on="0"/>
        <pt x="385" y="201" on="0"/>
        <pt x="274" y="111" on="1"/>
        <pt x="232" y="76" on="0"/>
        <pt x="215" y="76" on="1"/>
        <pt x="195" y="76" on="0"/>
        <pt x="195" y="109" on="1"/>
        <pt x="195" y="165" on="0"/>
        <pt x="260" y="310" on="0"/>
        <pt x="307" y="350" on="1"/>
        <pt x="372" y="407" on="0"/>
        <pt x="508" y="469" on="1"/>
        <pt x="655" y="538" on="0"/>
        <pt x="897" y="703" on="0"/>
        <pt x="1030" y="845" on="0"/>
        <pt x="1030" y="881" on="1"/>
        <pt x="1030" y="920" on="0"/>
        <pt x="954" y="920" on="1"/>
        <pt x="856" y="920" on="0"/>
        <pt x="594" y="834" on="0"/>
        <pt x="272" y="649" on="0"/>
        <pt x="96" y="514" on="1"/>
        <pt x="104" y="653" on="0"/>
        <pt x="136" y="816" on="0"/>
        <pt x="204" y="918" on="0"/>
        <pt x="314" y="996" on="0"/>
        <pt x="424" y="1057" on="1"/>
        <pt x="726" y="1227" on="0"/>
        <pt x="930" y="1227" on="1"/>
        <pt x="1054" y="1227" on="0"/>
        <pt x="1198" y="1105" on="0"/>
        <pt x="1198" y="993" on="1"/>
        <pt x="1198" y="915" on="0"/>
        <pt x="1133" y="783" on="0"/>
        <pt x="1008" y="667" on="0"/>
        <pt x="841" y="565" on="0"/>
        <pt x="721" y="506" on="1"/>
        <pt x="854" y="501" on="0"/>
        <pt x="973" y="394" on="0"/>
        <pt x="991" y="258" on="1"/>
        <pt x="1122" y="313" on="1"/>
        <pt x="1122" y="238" on="1"/>
        <pt x="985" y="174" on="1"/>
        <pt x="946" y="5" on="0"/>
        <pt x="743" y="-281" on="0"/>
        <pt x="492" y="-482" on="0"/>
        <pt x="260" y="-592" on="0"/>
        <pt x="203" y="-592" on="1"/>
        <pt x="179" y="-592" on="0"/>
      </contour>
      <contour>
        <pt x="840" y="96" on="1"/>
        <pt x="723" y="45" on="0"/>
        <pt x="503" y="-118" on="0"/>
        <pt x="343" y="-278" on="0"/>
        <pt x="240" y="-415" on="0"/>
        <pt x="240" y="-436" on="1"/>
        <pt x="240" y="-455" on="0"/>
        <pt x="268" y="-455" on="1"/>
        <pt x="313" y="-455" on="0"/>
        <pt x="545" y="-313" on="0"/>
        <pt x="674" y="-174" on="1"/>
        <pt x="760" y="-81" on="0"/>
        <pt x="819" y="30" on="0"/>
      </contour>
    </TTGlyph>
    <TTGlyph name="a" xMin="6" yMin="-29" xMax="856" yMax="766">
      <contour>
        <pt x="133" y="494" on="1"/>
        <pt x="285" y="632" on="0"/>
        <pt x="571" y="766" on="0"/>
        <pt x="649" y="766" on="1"/>
        <pt x="670" y="766" on="0"/>
        <pt x="706" y="731" on="0"/>
        <pt x="727" y="685" on="0"/>
        <pt x="727" y="674" on="1"/>
        <pt x="727" y="656" on="0"/>
        <pt x="699" y="639" on="0"/>
        <pt x="664" y="627" on="1"/>
        <pt x="671" y="611" on="0"/>
        <pt x="693" y="561" on="0"/>
        <pt x="705" y="530" on="0"/>
        <pt x="705" y="518" on="1"/>
        <pt x="705" y="494" on="0"/>
        <pt x="608" y="363" on="0"/>
        <pt x="569" y="301" on="0"/>
        <pt x="569" y="256" on="1"/>
        <pt x="569" y="182" on="0"/>
        <pt x="637" y="182" on="1"/>
        <pt x="707" y="182" on="0"/>
        <pt x="856" y="313" on="1"/>
        <pt x="856" y="252" on="1"/>
        <pt x="603" y="-29" on="0"/>
        <pt x="494" y="-29" on="1"/>
        <pt x="455" y="-29" on="0"/>
        <pt x="422" y="22" on="0"/>
        <pt x="422" y="72" on="1"/>
        <pt x="422" y="151" on="0"/>
        <pt x="479" y="301" on="1"/>
        <pt x="333" y="139" on="0"/>
        <pt x="191" y="2" on="0"/>
        <pt x="145" y="2" on="1"/>
        <pt x="123" y="2" on="0"/>
        <pt x="57" y="78" on="0"/>
        <pt x="6" y="199" on="0"/>
        <pt x="6" y="264" on="1"/>
        <pt x="6" y="311" on="0"/>
        <pt x="24" y="374" on="0"/>
        <pt x="76" y="440" on="0"/>
      </contour>
      <contour>
        <pt x="612" y="604" on="1"/>
        <pt x="352" y="485" on="0"/>
        <pt x="131" y="319" on="0"/>
        <pt x="131" y="231" on="1"/>
        <pt x="131" y="199" on="0"/>
        <pt x="153" y="158" on="0"/>
        <pt x="172" y="158" on="1"/>
        <pt x="183" y="158" on="0"/>
        <pt x="211" y="172" on="1"/>
        <pt x="316" y="234" on="0"/>
        <pt x="490" y="433" on="0"/>
      </contour>
    </TTGlyph>
    <TTGlyph name="a.fina" xMin="-58" yMin="599" xMax="1547" yMax="1469">
      <contour>
        <pt x="715" y="823" on="0"/>
        <pt x="827" y="819" on="0"/>
        <pt x="1063" y="806" on="0"/>
        <pt x="1224" y="799" on="0"/>
        <pt x="1310" y="801" on="0"/>
        <pt x="1430" y="829" on="0"/>
        <pt x="1471" y="933" on="0"/>
        <pt x="1379" y="1062" on="0"/>
        <pt x="1290" y="1137" on="0"/>
        <pt x="1170" y="1219" on="0"/>
        <pt x="967" y="1316" on="0"/>
        <pt x="763" y="1357" on="0"/>
        <pt x="656" y="1366" on="0"/>
        <pt x="653" y="1370" on="0"/>
        <pt x="653" y="1367" on="1"/>
        <pt x="544" y="1382" on="0"/>
        <pt x="544" y="1421" on="1"/>
        <pt x="544" y="1428" on="1"/>
        <pt x="544" y="1466" on="0"/>
        <pt x="677" y="1469" on="0"/>
        <pt x="763" y="1459" on="0"/>
        <pt x="878" y="1439" on="0"/>
        <pt x="1005" y="1402" on="0"/>
        <pt x="1174" y="1316" on="0"/>
        <pt x="1317" y="1212" on="0"/>
        <pt x="1420" y="1110" on="0"/>
        <pt x="1526" y="974" on="0"/>
        <pt x="1547" y="894" on="1"/>
        <pt x="1547" y="836" on="1"/>
        <pt x="1547" y="788" on="0"/>
        <pt x="1441" y="711" on="0"/>
        <pt x="1195" y="663" on="0"/>
        <pt x="980" y="644" on="0"/>
        <pt x="827" y="637" on="0"/>
        <pt x="709" y="626" on="0"/>
        <pt x="168" y="601" on="1"/>
        <pt x="163" y="601" on="1"/>
        <pt x="152" y="601" on="0"/>
        <pt x="11" y="599" on="0"/>
        <pt x="-44" y="632" on="0"/>
        <pt x="-51" y="687" on="1"/>
        <pt x="-58" y="738" on="0"/>
        <pt x="-51" y="784" on="1"/>
        <pt x="-51" y="787" on="0"/>
        <pt x="-50" y="790" on="1"/>
        <pt x="-42" y="834" on="0"/>
        <pt x="0" y="856" on="1"/>
        <pt x="54" y="869" on="0"/>
        <pt x="159" y="864" on="0"/>
        <pt x="222" y="862" on="0"/>
      </contour>
    </TTGlyph>
    <TTGlyph name="a.init" xMin="-19" yMin="349" xMax="1025" yMax="1203">
      <contour>
        <pt x="581" y="868" on="0"/>
        <pt x="590" y="867" on="1"/>
        <pt x="681" y="865" on="0"/>
        <pt x="821" y="867" on="0"/>
        <pt x="956" y="855" on="1"/>
        <pt x="1011" y="840" on="0"/>
        <pt x="1025" y="728" on="0"/>
        <pt x="999" y="600" on="0"/>
        <pt x="956" y="605" on="1"/>
        <pt x="920" y="604" on="0"/>
        <pt x="855" y="581" on="0"/>
        <pt x="869" y="484" on="0"/>
        <pt x="886" y="397" on="0"/>
        <pt x="783" y="349" on="0"/>
        <pt x="710" y="424" on="0"/>
        <pt x="677" y="501" on="1"/>
        <pt x="652" y="560" on="0"/>
        <pt x="618" y="608" on="0"/>
        <pt x="500" y="598" on="0"/>
        <pt x="427" y="589" on="0"/>
        <pt x="396" y="524" on="0"/>
        <pt x="335" y="421" on="0"/>
        <pt x="261" y="400" on="0"/>
        <pt x="213" y="469" on="0"/>
        <pt x="194" y="563" on="0"/>
        <pt x="192" y="645" on="0"/>
        <pt x="222" y="750" on="0"/>
        <pt x="262" y="781" on="0"/>
        <pt x="308" y="835" on="0"/>
        <pt x="290" y="917" on="0"/>
        <pt x="238" y="1006" on="0"/>
        <pt x="160" y="1050" on="0"/>
        <pt x="49" y="1033" on="0"/>
        <pt x="7" y="1073" on="1"/>
        <pt x="-19" y="1158" on="0"/>
        <pt x="112" y="1203" on="0"/>
        <pt x="246" y="1158" on="0"/>
        <pt x="353" y="1051" on="0"/>
        <pt x="392" y="954" on="0"/>
        <pt x="403" y="873" on="0"/>
        <pt x="460" y="868" on="1"/>
        <pt x="495" y="866" on="0"/>
      </contour>
    </TTGlyph>
    <TTGlyph name="a.isol" xMin="-19" yMin="400" xMax="2110" yMax="1469">
      <contour>
        <pt x="595" y="606" on="0"/>
        <pt x="500" y="624" on="0"/>
        <pt x="471" y="623" on="1"/>
        <pt x="427" y="623" on="0"/>
        <pt x="396" y="524" on="0"/>
        <pt x="335" y="421" on="0"/>
        <pt x="261" y="400" on="0"/>
        <pt x="213" y="469" on="0"/>
        <pt x="194" y="563" on="0"/>
        <pt x="192" y="645" on="0"/>
        <pt x="222" y="750" on="0"/>
        <pt x="262" y="781" on="0"/>
        <pt x="308" y="835" on="0"/>
        <pt x="290" y="917" on="0"/>
        <pt x="238" y="1006" on="0"/>
        <pt x="160" y="1050" on="0"/>
        <pt x="49" y="1033" on="0"/>
        <pt x="7" y="1073" on="1"/>
        <pt x="-19" y="1158" on="0"/>
        <pt x="112" y="1203" on="0"/>
        <pt x="246" y="1158" on="0"/>
        <pt x="353" y="1051" on="0"/>
        <pt x="392" y="954" on="0"/>
        <pt x="403" y="873" on="0"/>
        <pt x="460" y="868" on="1"/>
        <pt x="495" y="866" on="0"/>
        <pt x="564" y="871" on="0"/>
        <pt x="608" y="869" on="1"/>
        <pt x="627" y="868" on="0"/>
        <pt x="648" y="867" on="1"/>
        <pt x="1066" y="827" on="0"/>
        <pt x="1149" y="824" on="1"/>
        <pt x="1278" y="823" on="0"/>
        <pt x="1390" y="819" on="0"/>
        <pt x="1627" y="806" on="0"/>
        <pt x="1787" y="799" on="0"/>
        <pt x="1873" y="801" on="0"/>
        <pt x="1994" y="829" on="0"/>
        <pt x="2035" y="933" on="0"/>
        <pt x="1942" y="1062" on="0"/>
        <pt x="1854" y="1137" on="0"/>
        <pt x="1734" y="1219" on="0"/>
        <pt x="1531" y="1316" on="0"/>
        <pt x="1327" y="1357" on="0"/>
        <pt x="1219" y="1366" on="0"/>
        <pt x="1216" y="1370" on="0"/>
        <pt x="1216" y="1367" on="1"/>
        <pt x="1107" y="1382" on="0"/>
        <pt x="1107" y="1421" on="1"/>
        <pt x="1107" y="1428" on="1"/>
        <pt x="1107" y="1466" on="0"/>
        <pt x="1241" y="1469" on="0"/>
        <pt x="1327" y="1459" on="0"/>
        <pt x="1441" y="1439" on="0"/>
        <pt x="1569" y="1402" on="0"/>
        <pt x="1737" y="1316" on="0"/>
        <pt x="1881" y="1212" on="0"/>
        <pt x="1984" y="1110" on="0"/>
        <pt x="2090" y="974" on="0"/>
        <pt x="2110" y="894" on="1"/>
        <pt x="2110" y="836" on="1"/>
        <pt x="2110" y="788" on="0"/>
        <pt x="2005" y="711" on="0"/>
        <pt x="1758" y="663" on="0"/>
        <pt x="1543" y="644" on="0"/>
        <pt x="1390" y="637" on="0"/>
        <pt x="1272" y="626" on="0"/>
        <pt x="1151" y="622" on="0"/>
        <pt x="1101" y="622" on="0"/>
      </contour>
    </TTGlyph>
    <TTGlyph name="a.medi" xMin="-58" yMin="348" xMax="546" yMax="867">
      <contour>
        <pt x="379" y="569" on="0"/>
        <pt x="384" y="532" on="1"/>
        <pt x="391" y="483" on="0"/>
        <pt x="391" y="413" on="0"/>
        <pt x="304" y="348" on="0"/>
        <pt x="232" y="423" on="0"/>
        <pt x="166" y="576" on="0"/>
        <pt x="152" y="601" on="0"/>
        <pt x="11" y="599" on="0"/>
        <pt x="-44" y="632" on="0"/>
        <pt x="-58" y="740" on="0"/>
        <pt x="-42" y="838" on="0"/>
        <pt x="0" y="855" on="1"/>
        <pt x="46" y="864" on="0"/>
        <pt x="143" y="863" on="0"/>
        <pt x="243" y="866" on="1"/>
        <pt x="273" y="866" on="1"/>
        <pt x="342" y="867" on="0"/>
        <pt x="478" y="855" on="1"/>
        <pt x="533" y="840" on="0"/>
        <pt x="546" y="728" on="0"/>
        <pt x="521" y="600" on="0"/>
        <pt x="478" y="605" on="1"/>
        <pt x="442" y="604" on="0"/>
        <pt x="410" y="593" on="1"/>
        <pt x="401" y="590" on="0"/>
        <pt x="395" y="585" on="1"/>
      </contour>
    </TTGlyph>
    <TTGlyph name="a1.fina" xMin="-205" yMin="-535" xMax="2568" yMax="904">
      <contour>
        <pt x="2399" y="-478" on="1"/>
        <pt x="2368" y="-481" on="0"/>
        <pt x="2308" y="-482" on="0"/>
        <pt x="2233" y="-481" on="1"/>
        <pt x="2190" y="-484" on="0"/>
        <pt x="2157" y="-490" on="1"/>
        <pt x="2111" y="-502" on="1"/>
        <pt x="2040" y="-535" on="0"/>
        <pt x="2077" y="-464" on="0"/>
        <pt x="2121" y="-450" on="1"/>
        <pt x="2184" y="-434" on="1"/>
        <pt x="2252" y="-419" on="0"/>
        <pt x="2296" y="-421" on="1"/>
        <pt x="2320" y="-405" on="0"/>
        <pt x="2320" y="-400" on="1"/>
        <pt x="2339" y="-354" on="0"/>
        <pt x="2291" y="-325" on="0"/>
        <pt x="2206" y="-279" on="0"/>
        <pt x="2150" y="-255" on="1"/>
        <pt x="2125" y="-239" on="0"/>
        <pt x="2024" y="-201" on="0"/>
        <pt x="1957" y="-167" on="1"/>
        <pt x="1843" y="-118" on="1"/>
        <pt x="1706" y="-56" on="0"/>
        <pt x="1489" y="27" on="1"/>
        <pt x="613" y="402" on="0"/>
        <pt x="528" y="430" on="0"/>
        <pt x="304" y="504" on="0"/>
        <pt x="170" y="552" on="0"/>
        <pt x="66" y="579" on="0"/>
        <pt x="31" y="548" on="0"/>
        <pt x="18" y="500" on="0"/>
        <pt x="-6" y="456" on="0"/>
        <pt x="-38" y="418" on="0"/>
        <pt x="-85" y="380" on="1"/>
        <pt x="-114" y="356" on="0"/>
        <pt x="-140" y="359" on="1"/>
        <pt x="-182" y="359" on="0"/>
        <pt x="-197" y="507" on="1"/>
        <pt x="-205" y="588" on="0"/>
        <pt x="-182" y="694" on="0"/>
        <pt x="-154" y="740" on="1"/>
        <pt x="-140" y="775" on="0"/>
        <pt x="-89" y="849" on="0"/>
        <pt x="-9" y="904" on="0"/>
        <pt x="98" y="821" on="0"/>
        <pt x="208" y="770" on="0"/>
        <pt x="355" y="712" on="0"/>
        <pt x="441" y="675" on="0"/>
        <pt x="617" y="598" on="0"/>
        <pt x="1543" y="165" on="0"/>
        <pt x="1812" y="22" on="0"/>
        <pt x="2120" y="-141" on="0"/>
        <pt x="2327" y="-238" on="0"/>
        <pt x="2495" y="-301" on="0"/>
        <pt x="2555" y="-343" on="0"/>
        <pt x="2568" y="-400" on="0"/>
        <pt x="2540" y="-441" on="0"/>
        <pt x="2422" y="-476" on="0"/>
      </contour>
    </TTGlyph>
    <TTGlyph name="ampersand" xMin="82" yMin="8" xMax="1077" yMax="1348">
      <contour>
        <pt x="365" y="8" on="1"/>
        <pt x="294" y="8" on="0"/>
        <pt x="162" y="96" on="0"/>
        <pt x="82" y="252" on="0"/>
        <pt x="82" y="348" on="1"/>
        <pt x="82" y="476" on="0"/>
        <pt x="277" y="686" on="0"/>
        <pt x="467" y="788" on="1"/>
        <pt x="457" y="851" on="0"/>
        <pt x="457" y="877" on="1"/>
        <pt x="457" y="978" on="0"/>
        <pt x="542" y="1156" on="0"/>
        <pt x="678" y="1281" on="0"/>
        <pt x="830" y="1348" on="0"/>
        <pt x="899" y="1348" on="1"/>
        <pt x="979" y="1348" on="0"/>
        <pt x="1077" y="1271" on="0"/>
        <pt x="1077" y="1210" on="1"/>
        <pt x="1077" y="1129" on="0"/>
        <pt x="994" y="1001" on="0"/>
        <pt x="865" y="900" on="0"/>
        <pt x="677" y="783" on="0"/>
        <pt x="657" y="768" on="1"/>
        <pt x="689" y="642" on="0"/>
        <pt x="754" y="510" on="1"/>
        <pt x="844" y="571" on="0"/>
        <pt x="946" y="668" on="0"/>
        <pt x="1016" y="750" on="0"/>
        <pt x="1028" y="750" on="1"/>
        <pt x="1037" y="750" on="0"/>
        <pt x="1049" y="706" on="0"/>
        <pt x="1049" y="680" on="1"/>
        <pt x="1049" y="619" on="0"/>
        <pt x="1005" y="511" on="0"/>
        <pt x="924" y="403" on="0"/>
        <pt x="864" y="342" on="1"/>
        <pt x="930" y="270" on="1"/>
        <pt x="939" y="278" on="0"/>
        <pt x="965" y="308" on="0"/>
        <pt x="979" y="319" on="0"/>
        <pt x="987" y="319" on="1"/>
        <pt x="997" y="319" on="0"/>
        <pt x="1008" y="303" on="0"/>
        <pt x="1008" y="293" on="1"/>
        <pt x="1008" y="252" on="0"/>
        <pt x="892" y="59" on="0"/>
        <pt x="854" y="59" on="1"/>
        <pt x="834" y="59" on="0"/>
        <pt x="796" y="92" on="0"/>
        <pt x="742" y="165" on="0"/>
        <pt x="725" y="190" on="1"/>
        <pt x="610" y="102" on="0"/>
        <pt x="431" y="8" on="0"/>
      </contour>
      <contour>
        <pt x="635" y="956" on="1"/>
        <pt x="635" y="915" on="1"/>
        <pt x="779" y="996" on="0"/>
        <pt x="938" y="1176" on="0"/>
        <pt x="938" y="1229" on="1"/>
        <pt x="938" y="1274" on="0"/>
        <pt x="893" y="1274" on="1"/>
        <pt x="852" y="1274" on="0"/>
        <pt x="726" y="1177" on="0"/>
        <pt x="635" y="1030" on="0"/>
      </contour>
      <contour>
        <pt x="500" y="657" on="1"/>
        <pt x="426" y="606" on="0"/>
        <pt x="311" y="488" on="0"/>
        <pt x="244" y="377" on="0"/>
        <pt x="244" y="340" on="1"/>
        <pt x="244" y="266" on="0"/>
        <pt x="311" y="266" on="1"/>
        <pt x="360" y="266" on="0"/>
        <pt x="528" y="331" on="0"/>
        <pt x="612" y="393" on="1"/>
        <pt x="568" y="495" on="0"/>
      </contour>
    </TTGlyph>
    <TTGlyph name="arrowdown" xMin="255" yMin="-432" xMax="1004" yMax="1724">
      <contour>
        <pt x="667" y="1724" on="1"/>
        <pt x="667" y="-143" on="1"/>
        <pt x="971" y="273" on="1"/>
        <pt x="1004" y="253" on="1"/>
        <pt x="630" y="-432" on="1"/>
        <pt x="255" y="251" on="1"/>
        <pt x="286" y="273" on="1"/>
        <pt x="589" y="-143" on="1"/>
        <pt x="589" y="1724" on="1"/>
      </contour>
    </TTGlyph>
    <TTGlyph name="arrowleft" xMin="340" yMin="389" xMax="2494" yMax="1139">
      <contour>
        <pt x="2494" y="725" on="1"/>
        <pt x="629" y="725" on="1"/>
        <pt x="1044" y="422" on="1"/>
        <pt x="1025" y="389" on="1"/>
        <pt x="340" y="763" on="1"/>
        <pt x="1023" y="1139" on="1"/>
        <pt x="1044" y="1107" on="1"/>
        <pt x="629" y="804" on="1"/>
        <pt x="2494" y="804" on="1"/>
      </contour>
    </TTGlyph>
    <TTGlyph name="arrowright" xMin="340" yMin="389" xMax="2494" yMax="1139">
      <contour>
        <pt x="2494" y="763" on="1"/>
        <pt x="1811" y="389" on="1"/>
        <pt x="1790" y="422" on="1"/>
        <pt x="2207" y="725" on="1"/>
        <pt x="340" y="725" on="1"/>
        <pt x="340" y="804" on="1"/>
        <pt x="2207" y="804" on="1"/>
        <pt x="1790" y="1107" on="1"/>
        <pt x="1813" y="1139" on="1"/>
      </contour>
    </TTGlyph>
    <TTGlyph name="arrowup" xMin="255" yMin="-432" xMax="1004" yMax="1724">
      <contour>
        <pt x="592" y="-432" on="1"/>
        <pt x="592" y="1435" on="1"/>
        <pt x="289" y="1019" on="1"/>
        <pt x="255" y="1039" on="1"/>
        <pt x="629" y="1724" on="1"/>
        <pt x="1004" y="1041" on="1"/>
        <pt x="972" y="1019" on="1"/>
        <pt x="670" y="1435" on="1"/>
        <pt x="670" y="-432" on="1"/>
      </contour>
    </TTGlyph>
    <TTGlyph name="asciicircum" xMin="53" yMin="530" xMax="907" yMax="1331">
      <contour>
        <pt x="477" y="1128" on="1"/>
        <pt x="238" y="530" on="1"/>
        <pt x="53" y="530" on="1"/>
        <pt x="408" y="1331" on="1"/>
        <pt x="551" y="1331" on="1"/>
        <pt x="907" y="530" on="1"/>
        <pt x="725" y="530" on="1"/>
      </contour>
    </TTGlyph>
    <TTGlyph name="asciitilde" xMin="174" yMin="577" xMax="1264" yMax="901">
      <contour>
        <pt x="231" y="577" on="1"/>
        <pt x="174" y="577" on="1"/>
        <pt x="183" y="741" on="0"/>
        <pt x="327" y="901" on="0"/>
        <pt x="432" y="901" on="1"/>
        <pt x="501" y="901" on="0"/>
        <pt x="659" y="850" on="0"/>
        <pt x="876" y="755" on="0"/>
        <pt x="983" y="716" on="0"/>
        <pt x="1026" y="716" on="1"/>
        <pt x="1101" y="716" on="0"/>
        <pt x="1197" y="812" on="0"/>
        <pt x="1206" y="901" on="1"/>
        <pt x="1264" y="901" on="1"/>
        <pt x="1258" y="747" on="0"/>
        <pt x="1108" y="579" on="0"/>
        <pt x="997" y="579" on="1"/>
        <pt x="933" y="579" on="0"/>
        <pt x="794" y="624" on="0"/>
        <pt x="590" y="711" on="0"/>
        <pt x="460" y="757" on="0"/>
        <pt x="406" y="757" on="1"/>
        <pt x="263" y="757" on="0"/>
      </contour>
    </TTGlyph>
    <TTGlyph name="asterisk" xMin="-74" yMin="686" xMax="602" yMax="1362">
      <contour>
        <pt x="-72" y="893" on="1"/>
        <pt x="-72" y="909" on="0"/>
        <pt x="-35" y="926" on="0"/>
        <pt x="76" y="958" on="0"/>
        <pt x="144" y="981" on="0"/>
        <pt x="193" y="1006" on="1"/>
        <pt x="141" y="1026" on="0"/>
        <pt x="-32" y="1065" on="0"/>
        <pt x="-74" y="1078" on="0"/>
        <pt x="-74" y="1100" on="1"/>
        <pt x="-74" y="1115" on="0"/>
        <pt x="-10" y="1214" on="0"/>
        <pt x="10" y="1214" on="1"/>
        <pt x="30" y="1214" on="0"/>
        <pt x="141" y="1152" on="0"/>
        <pt x="238" y="1090" on="1"/>
        <pt x="238" y="1163" on="0"/>
        <pt x="190" y="1317" on="0"/>
        <pt x="190" y="1331" on="1"/>
        <pt x="190" y="1350" on="0"/>
        <pt x="215" y="1362" on="0"/>
        <pt x="242" y="1362" on="1"/>
        <pt x="348" y="1362" on="0"/>
        <pt x="348" y="1292" on="1"/>
        <pt x="348" y="1276" on="0"/>
        <pt x="321" y="1144" on="0"/>
        <pt x="317" y="1087" on="1"/>
        <pt x="346" y="1102" on="0"/>
        <pt x="388" y="1149" on="0"/>
        <pt x="453" y="1236" on="0"/>
        <pt x="497" y="1278" on="0"/>
        <pt x="518" y="1278" on="1"/>
        <pt x="534" y="1278" on="0"/>
        <pt x="573" y="1220" on="0"/>
        <pt x="602" y="1147" on="0"/>
        <pt x="602" y="1133" on="1"/>
        <pt x="602" y="1103" on="0"/>
        <pt x="563" y="1086" on="0"/>
        <pt x="414" y="1048" on="0"/>
        <pt x="365" y="1022" on="1"/>
        <pt x="405" y="1011" on="0"/>
        <pt x="547" y="982" on="0"/>
        <pt x="596" y="962" on="0"/>
        <pt x="596" y="940" on="1"/>
        <pt x="596" y="909" on="0"/>
        <pt x="530" y="823" on="0"/>
        <pt x="506" y="823" on="1"/>
        <pt x="500" y="823" on="0"/>
        <pt x="393" y="899" on="0"/>
        <pt x="326" y="940" on="1"/>
        <pt x="330" y="889" on="0"/>
        <pt x="358" y="765" on="0"/>
        <pt x="358" y="745" on="1"/>
        <pt x="358" y="720" on="0"/>
        <pt x="330" y="686" on="0"/>
        <pt x="303" y="686" on="1"/>
        <pt x="190" y="686" on="0"/>
        <pt x="190" y="739" on="1"/>
        <pt x="190" y="742" on="0"/>
        <pt x="210" y="791" on="0"/>
        <pt x="231" y="873" on="0"/>
        <pt x="236" y="940" on="1"/>
        <pt x="194" y="912" on="0"/>
        <pt x="128" y="858" on="0"/>
        <pt x="79" y="821" on="0"/>
        <pt x="35" y="807" on="0"/>
        <pt x="4" y="807" on="1"/>
        <pt x="-13" y="807" on="0"/>
        <pt x="-72" y="868" on="0"/>
      </contour>
    </TTGlyph>
    <TTGlyph name="at" xMin="111" yMin="-543" xMax="2005" yMax="1380">
      <contour>
        <pt x="1012" y="971" on="1"/>
        <pt x="1103" y="971" on="0"/>
        <pt x="1260" y="876" on="0"/>
        <pt x="1313" y="788" on="1"/>
        <pt x="1346" y="944" on="1"/>
        <pt x="1526" y="944" on="1"/>
        <pt x="1382" y="272" on="1"/>
        <pt x="1374" y="231" on="0"/>
        <pt x="1352" y="134" on="0"/>
        <pt x="1352" y="115" on="1"/>
        <pt x="1352" y="91" on="0"/>
        <pt x="1394" y="51" on="0"/>
        <pt x="1425" y="51" on="1"/>
        <pt x="1487" y="51" on="0"/>
        <pt x="1670" y="193" on="0"/>
        <pt x="1808" y="447" on="0"/>
        <pt x="1808" y="604" on="1"/>
        <pt x="1808" y="739" on="0"/>
        <pt x="1701" y="971" on="0"/>
        <pt x="1507" y="1142" on="0"/>
        <pt x="1243" y="1235" on="0"/>
        <pt x="1092" y="1235" on="1"/>
        <pt x="910" y="1235" on="0"/>
        <pt x="604" y="1105" on="0"/>
        <pt x="379" y="869" on="0"/>
        <pt x="258" y="552" on="0"/>
        <pt x="258" y="373" on="1"/>
        <pt x="258" y="193" on="0"/>
        <pt x="373" y="-92" on="0"/>
        <pt x="598" y="-291" on="0"/>
        <pt x="921" y="-395" on="0"/>
        <pt x="1124" y="-395" on="1"/>
        <pt x="1366" y="-395" on="0"/>
        <pt x="1730" y="-232" on="0"/>
        <pt x="1825" y="-94" on="1"/>
        <pt x="2005" y="-94" on="1"/>
        <pt x="1975" y="-156" on="0"/>
        <pt x="1870" y="-278" on="0"/>
        <pt x="1723" y="-392" on="0"/>
        <pt x="1550" y="-478" on="0"/>
        <pt x="1458" y="-504" on="1"/>
        <pt x="1313" y="-543" on="0"/>
        <pt x="1122" y="-543" on="1"/>
        <pt x="805" y="-543" on="0"/>
        <pt x="348" y="-322" on="0"/>
        <pt x="111" y="84" on="0"/>
        <pt x="111" y="356" on="1"/>
        <pt x="111" y="558" on="0"/>
        <pt x="246" y="928" on="0"/>
        <pt x="371" y="1073" on="1"/>
        <pt x="460" y="1177" on="0"/>
        <pt x="682" y="1314" on="0"/>
        <pt x="946" y="1380" on="0"/>
        <pt x="1100" y="1380" on="1"/>
        <pt x="1295" y="1380" on="0"/>
        <pt x="1612" y="1258" on="0"/>
        <pt x="1836" y="1046" on="0"/>
        <pt x="1956" y="770" on="0"/>
        <pt x="1956" y="616" on="1"/>
        <pt x="1956" y="465" on="0"/>
        <pt x="1853" y="198" on="0"/>
        <pt x="1677" y="-5" on="0"/>
        <pt x="1463" y="-117" on="0"/>
        <pt x="1360" y="-117" on="1"/>
        <pt x="1246" y="-117" on="0"/>
        <pt x="1168" y="-30" on="0"/>
        <pt x="1161" y="51" on="1"/>
        <pt x="1118" y="1" on="0"/>
        <pt x="1012" y="-76" on="0"/>
        <pt x="907" y="-115" on="0"/>
        <pt x="858" y="-115" on="1"/>
        <pt x="757" y="-115" on="0"/>
        <pt x="588" y="1" on="0"/>
        <pt x="492" y="209" on="0"/>
        <pt x="492" y="338" on="1"/>
        <pt x="492" y="451" on="0"/>
        <pt x="576" y="677" on="0"/>
        <pt x="723" y="863" on="0"/>
        <pt x="910" y="971" on="0"/>
      </contour>
      <contour>
        <pt x="676" y="322" on="1"/>
        <pt x="676" y="234" on="0"/>
        <pt x="733" y="104" on="0"/>
        <pt x="833" y="33" on="0"/>
        <pt x="897" y="33" on="1"/>
        <pt x="957" y="33" on="0"/>
        <pt x="1086" y="111" on="0"/>
        <pt x="1191" y="249" on="0"/>
        <pt x="1255" y="431" on="0"/>
        <pt x="1255" y="532" on="1"/>
        <pt x="1255" y="668" on="0"/>
        <pt x="1128" y="823" on="0"/>
        <pt x="1022" y="823" on="1"/>
        <pt x="926" y="823" on="0"/>
        <pt x="767" y="670" on="0"/>
        <pt x="676" y="433" on="0"/>
      </contour>
    </TTGlyph>
    <TTGlyph name="b" xMin="4" yMin="-27" xMax="809" yMax="1323">
      <contour>
        <pt x="678" y="313" on="1"/>
        <pt x="678" y="248" on="1"/>
        <pt x="574" y="182" on="0"/>
        <pt x="514" y="182" on="1"/>
        <pt x="481" y="182" on="0"/>
        <pt x="444" y="193" on="1"/>
        <pt x="354" y="79" on="0"/>
        <pt x="225" y="-27" on="0"/>
        <pt x="160" y="-27" on="1"/>
        <pt x="85" y="-27" on="0"/>
        <pt x="4" y="131" on="0"/>
        <pt x="4" y="248" on="1"/>
        <pt x="4" y="407" on="0"/>
        <pt x="196" y="782" on="0"/>
        <pt x="467" y="1109" on="0"/>
        <pt x="721" y="1323" on="0"/>
        <pt x="766" y="1323" on="1"/>
        <pt x="809" y="1323" on="0"/>
        <pt x="809" y="1264" on="1"/>
        <pt x="809" y="1002" on="0"/>
        <pt x="137" y="350" on="1"/>
        <pt x="135" y="332" on="0"/>
        <pt x="135" y="279" on="1"/>
        <pt x="135" y="141" on="0"/>
        <pt x="209" y="141" on="1"/>
        <pt x="238" y="141" on="0"/>
        <pt x="297" y="188" on="0"/>
        <pt x="358" y="254" on="1"/>
        <pt x="334" y="308" on="0"/>
        <pt x="334" y="334" on="1"/>
        <pt x="334" y="389" on="0"/>
        <pt x="424" y="517" on="0"/>
        <pt x="539" y="610" on="0"/>
        <pt x="565" y="610" on="1"/>
        <pt x="606" y="610" on="0"/>
        <pt x="606" y="551" on="1"/>
        <pt x="606" y="506" on="0"/>
        <pt x="559" y="380" on="0"/>
        <pt x="514" y="299" on="1"/>
        <pt x="531" y="285" on="0"/>
        <pt x="551" y="272" on="0"/>
        <pt x="571" y="272" on="1"/>
        <pt x="617" y="272" on="0"/>
      </contour>
      <contour>
        <pt x="170" y="463" on="1"/>
        <pt x="222" y="508" on="0"/>
        <pt x="327" y="631" on="0"/>
        <pt x="428" y="758" on="1"/>
        <pt x="525" y="880" on="0"/>
        <pt x="636" y="1043" on="0"/>
        <pt x="692" y="1151" on="0"/>
        <pt x="692" y="1171" on="1"/>
        <pt x="692" y="1186" on="0"/>
        <pt x="684" y="1186" on="1"/>
        <pt x="662" y="1186" on="0"/>
        <pt x="523" y="1041" on="0"/>
        <pt x="434" y="915" on="1"/>
        <pt x="311" y="741" on="0"/>
        <pt x="201" y="565" on="0"/>
      </contour>
    </TTGlyph>
    <TTGlyph name="b.fina" xMin="-57" yMin="-671" xMax="2592" yMax="1345">
      <contour>
        <pt x="581" y="346" on="0"/>
        <pt x="751" y="372" on="0"/>
        <pt x="816" y="487" on="0"/>
        <pt x="808" y="591" on="0"/>
        <pt x="763" y="617" on="0"/>
        <pt x="666" y="611" on="0"/>
        <pt x="529" y="598" on="0"/>
        <pt x="422" y="607" on="0"/>
        <pt x="299" y="606" on="0"/>
        <pt x="326" y="529" on="0"/>
        <pt x="366" y="469" on="0"/>
        <pt x="452" y="387" on="0"/>
      </contour>
      <contour>
        <pt x="93" y="883" on="0"/>
        <pt x="96" y="915" on="1"/>
        <pt x="99" y="994" on="0"/>
        <pt x="181" y="1152" on="0"/>
        <pt x="328" y="1272" on="0"/>
        <pt x="463" y="1331" on="0"/>
        <pt x="568" y="1345" on="0"/>
        <pt x="711" y="1339" on="0"/>
        <pt x="856" y="1296" on="0"/>
        <pt x="998" y="1207" on="0"/>
        <pt x="1080" y="1144" on="0"/>
        <pt x="1192" y="1037" on="0"/>
        <pt x="1279" y="946" on="0"/>
        <pt x="1393" y="829" on="0"/>
        <pt x="1476" y="739" on="0"/>
        <pt x="1589" y="623" on="0"/>
        <pt x="1668" y="529" on="0"/>
        <pt x="1753" y="444" on="0"/>
        <pt x="1833" y="344" on="0"/>
        <pt x="2002" y="127" on="0"/>
        <pt x="2267" y="-193" on="0"/>
        <pt x="2421" y="-361" on="0"/>
        <pt x="2553" y="-485" on="0"/>
        <pt x="2592" y="-546" on="0"/>
        <pt x="2581" y="-603" on="0"/>
        <pt x="2540" y="-631" on="0"/>
        <pt x="2418" y="-618" on="0"/>
        <pt x="2396" y="-611" on="1"/>
        <pt x="2366" y="-602" on="0"/>
        <pt x="2309" y="-597" on="0"/>
        <pt x="2201" y="-604" on="0"/>
        <pt x="2121" y="-625" on="1"/>
        <pt x="2034" y="-671" on="0"/>
        <pt x="2104" y="-577" on="0"/>
        <pt x="2159" y="-547" on="1"/>
        <pt x="2231" y="-522" on="1"/>
        <pt x="2282" y="-517" on="0"/>
        <pt x="2322" y="-519" on="1"/>
        <pt x="2352" y="-509" on="1"/>
        <pt x="2388" y="-473" on="0"/>
        <pt x="2355" y="-428" on="0"/>
        <pt x="2294" y="-354" on="0"/>
        <pt x="2252" y="-309" on="1"/>
        <pt x="2234" y="-285" on="0"/>
        <pt x="2155" y="-211" on="0"/>
        <pt x="1900" y="104" on="0"/>
        <pt x="1473" y="577" on="0"/>
        <pt x="1263" y="792" on="0"/>
        <pt x="1068" y="971" on="0"/>
        <pt x="962" y="1051" on="0"/>
        <pt x="835" y="1119" on="0"/>
        <pt x="671" y="1190" on="0"/>
        <pt x="498" y="1185" on="0"/>
        <pt x="363" y="1144" on="0"/>
        <pt x="259" y="1057" on="0"/>
        <pt x="224" y="958" on="0"/>
        <pt x="223" y="906" on="1"/>
        <pt x="226" y="862" on="0"/>
        <pt x="505" y="858" on="0"/>
        <pt x="807" y="804" on="0"/>
        <pt x="892" y="758" on="0"/>
        <pt x="917" y="701" on="0"/>
        <pt x="919" y="638" on="0"/>
        <pt x="909" y="569" on="0"/>
        <pt x="884" y="465" on="0"/>
        <pt x="840" y="380" on="0"/>
        <pt x="722" y="289" on="0"/>
        <pt x="577" y="263" on="0"/>
        <pt x="469" y="282" on="0"/>
        <pt x="348" y="348" on="0"/>
        <pt x="222" y="484" on="0"/>
        <pt x="189" y="546" on="1"/>
        <pt x="173" y="575" on="0"/>
        <pt x="151" y="592" on="1"/>
        <pt x="142" y="598" on="0"/>
        <pt x="127" y="599" on="1"/>
        <pt x="102" y="600" on="0"/>
        <pt x="82" y="600" on="1"/>
        <pt x="12" y="599" on="0"/>
        <pt x="-43" y="632" on="0"/>
        <pt x="-49" y="687" on="1"/>
        <pt x="-57" y="733" on="0"/>
        <pt x="-51" y="777" on="1"/>
        <pt x="-51" y="784" on="0"/>
        <pt x="-49" y="790" on="1"/>
        <pt x="-42" y="839" on="0"/>
        <pt x="0" y="856" on="1"/>
        <pt x="3" y="857" on="0"/>
        <pt x="6" y="857" on="1"/>
        <pt x="23" y="861" on="0"/>
        <pt x="39" y="863" on="1"/>
        <pt x="74" y="860" on="0"/>
      </contour>
    </TTGlyph>
    <TTGlyph name="b.init" xMin="-59" yMin="263" xMax="1417" yMax="1345">
      <component glyphName="b.isol" x="0" y="0" flags="0x1000"/>
    </TTGlyph>
    <TTGlyph name="b.isol" xMin="-59" yMin="263" xMax="1417" yMax="1345">
      <contour>
        <pt x="698" y="372" on="0"/>
        <pt x="762" y="487" on="0"/>
        <pt x="754" y="591" on="0"/>
        <pt x="709" y="617" on="0"/>
        <pt x="612" y="611" on="0"/>
        <pt x="475" y="607" on="0"/>
        <pt x="385" y="615" on="0"/>
        <pt x="245" y="606" on="0"/>
        <pt x="273" y="529" on="0"/>
        <pt x="312" y="469" on="0"/>
        <pt x="398" y="387" on="0"/>
        <pt x="528" y="346" on="0"/>
      </contour>
      <contour>
        <pt x="42" y="915" on="1"/>
        <pt x="46" y="994" on="0"/>
        <pt x="127" y="1152" on="0"/>
        <pt x="274" y="1272" on="0"/>
        <pt x="409" y="1331" on="0"/>
        <pt x="514" y="1345" on="0"/>
        <pt x="640" y="1330" on="0"/>
        <pt x="784" y="1286" on="0"/>
        <pt x="1024" y="1147" on="0"/>
        <pt x="1218" y="958" on="0"/>
        <pt x="1305" y="847" on="0"/>
        <pt x="1390" y="733" on="0"/>
        <pt x="1417" y="665" on="0"/>
        <pt x="1400" y="628" on="0"/>
        <pt x="1355" y="648" on="0"/>
        <pt x="1286" y="729" on="0"/>
        <pt x="1213" y="831" on="0"/>
        <pt x="1131" y="906" on="1"/>
        <pt x="1053" y="971" on="0"/>
        <pt x="904" y="1061" on="0"/>
        <pt x="786" y="1114" on="0"/>
        <pt x="617" y="1173" on="0"/>
        <pt x="444" y="1176" on="0"/>
        <pt x="309" y="1144" on="0"/>
        <pt x="205" y="1057" on="0"/>
        <pt x="170" y="958" on="0"/>
        <pt x="169" y="906" on="1"/>
        <pt x="164" y="879" on="0"/>
        <pt x="171" y="843" on="1"/>
        <pt x="224" y="843" on="1"/>
        <pt x="235" y="839" on="0"/>
        <pt x="250" y="838" on="1"/>
        <pt x="291" y="834" on="0"/>
        <pt x="353" y="831" on="0"/>
        <pt x="468" y="836" on="0"/>
        <pt x="525" y="834" on="0"/>
        <pt x="589" y="830" on="0"/>
        <pt x="754" y="804" on="0"/>
        <pt x="838" y="758" on="0"/>
        <pt x="863" y="701" on="0"/>
        <pt x="865" y="638" on="0"/>
        <pt x="855" y="569" on="0"/>
        <pt x="830" y="465" on="0"/>
        <pt x="786" y="380" on="0"/>
        <pt x="669" y="289" on="0"/>
        <pt x="523" y="263" on="0"/>
        <pt x="415" y="282" on="0"/>
        <pt x="294" y="348" on="0"/>
        <pt x="168" y="484" on="0"/>
        <pt x="102" y="609" on="0"/>
        <pt x="-59" y="596" on="0"/>
        <pt x="-33" y="738" on="0"/>
        <pt x="5" y="807" on="0"/>
        <pt x="33" y="824" on="0"/>
        <pt x="40" y="866" on="0"/>
      </contour>
    </TTGlyph>
    <TTGlyph name="b.medi" xMin="-57" yMin="263" xMax="1471" yMax="1345">
      <contour>
        <pt x="751" y="372" on="0"/>
        <pt x="816" y="487" on="0"/>
        <pt x="808" y="591" on="0"/>
        <pt x="763" y="617" on="0"/>
        <pt x="666" y="611" on="0"/>
        <pt x="529" y="607" on="0"/>
        <pt x="439" y="615" on="0"/>
        <pt x="299" y="606" on="0"/>
        <pt x="326" y="529" on="0"/>
        <pt x="366" y="469" on="0"/>
        <pt x="452" y="387" on="0"/>
        <pt x="581" y="346" on="0"/>
      </contour>
      <contour>
        <pt x="93" y="883" on="0"/>
        <pt x="96" y="915" on="1"/>
        <pt x="99" y="994" on="0"/>
        <pt x="181" y="1152" on="0"/>
        <pt x="328" y="1272" on="0"/>
        <pt x="463" y="1331" on="0"/>
        <pt x="568" y="1345" on="0"/>
        <pt x="694" y="1330" on="0"/>
        <pt x="838" y="1286" on="0"/>
        <pt x="958" y="1217" on="1"/>
        <pt x="1078" y="1147" on="0"/>
        <pt x="1272" y="958" on="0"/>
        <pt x="1359" y="847" on="0"/>
        <pt x="1444" y="733" on="0"/>
        <pt x="1471" y="665" on="0"/>
        <pt x="1454" y="628" on="0"/>
        <pt x="1408" y="648" on="0"/>
        <pt x="1340" y="729" on="0"/>
        <pt x="1267" y="831" on="0"/>
        <pt x="1185" y="906" on="1"/>
        <pt x="1107" y="971" on="0"/>
        <pt x="1033" y="1016" on="1"/>
        <pt x="968" y="1055" on="0"/>
        <pt x="808" y="1132" on="0"/>
        <pt x="671" y="1173" on="0"/>
        <pt x="498" y="1176" on="0"/>
        <pt x="363" y="1144" on="0"/>
        <pt x="259" y="1057" on="0"/>
        <pt x="224" y="958" on="0"/>
        <pt x="223" y="906" on="1"/>
        <pt x="218" y="862" on="0"/>
        <pt x="345" y="859" on="0"/>
        <pt x="407" y="857" on="0"/>
        <pt x="522" y="849" on="0"/>
        <pt x="643" y="830" on="0"/>
        <pt x="807" y="804" on="0"/>
        <pt x="892" y="758" on="0"/>
        <pt x="917" y="701" on="0"/>
        <pt x="919" y="638" on="0"/>
        <pt x="909" y="569" on="0"/>
        <pt x="884" y="465" on="0"/>
        <pt x="840" y="380" on="0"/>
        <pt x="722" y="289" on="0"/>
        <pt x="577" y="263" on="0"/>
        <pt x="469" y="282" on="0"/>
        <pt x="348" y="348" on="0"/>
        <pt x="222" y="484" on="0"/>
        <pt x="189" y="546" on="1"/>
        <pt x="164" y="591" on="0"/>
        <pt x="112" y="599" on="1"/>
        <pt x="109" y="599" on="0"/>
        <pt x="105" y="600" on="1"/>
        <pt x="82" y="600" on="1"/>
        <pt x="12" y="599" on="0"/>
        <pt x="-43" y="632" on="0"/>
        <pt x="-49" y="687" on="1"/>
        <pt x="-57" y="733" on="0"/>
        <pt x="-51" y="777" on="1"/>
        <pt x="-51" y="784" on="0"/>
        <pt x="-49" y="790" on="1"/>
        <pt x="-42" y="839" on="0"/>
        <pt x="0" y="856" on="1"/>
        <pt x="3" y="857" on="0"/>
        <pt x="6" y="857" on="1"/>
        <pt x="23" y="861" on="0"/>
        <pt x="39" y="863" on="1"/>
        <pt x="82" y="862" on="0"/>
      </contour>
    </TTGlyph>
    <TTGlyph name="backslash" xMin="4" yMin="-135" xMax="573" yMax="1380">
      <contour>
        <pt x="573" y="-135" on="1"/>
        <pt x="428" y="-135" on="1"/>
        <pt x="4" y="1380" on="1"/>
        <pt x="150" y="1380" on="1"/>
      </contour>
    </TTGlyph>
    <TTGlyph name="bar" xMin="530" yMin="-514" xMax="690" yMax="1380">
      <contour>
        <pt x="530" y="-514" on="1"/>
        <pt x="530" y="1380" on="1"/>
        <pt x="690" y="1380" on="1"/>
        <pt x="690" y="-514" on="1"/>
      </contour>
    </TTGlyph>
    <TTGlyph name="braceleft" xMin="172" yMin="-600" xMax="879" yMax="1411">
      <contour>
        <pt x="172" y="328" on="1"/>
        <pt x="186" y="477" on="1"/>
        <pt x="429" y="526" on="0"/>
        <pt x="429" y="660" on="1"/>
        <pt x="429" y="705" on="0"/>
        <pt x="393" y="972" on="0"/>
        <pt x="393" y="1035" on="1"/>
        <pt x="393" y="1202" on="0"/>
        <pt x="538" y="1304" on="1"/>
        <pt x="658" y="1388" on="0"/>
        <pt x="848" y="1411" on="1"/>
        <pt x="879" y="1285" on="1"/>
        <pt x="551" y="1229" on="0"/>
        <pt x="551" y="991" on="1"/>
        <pt x="551" y="942" on="0"/>
        <pt x="588" y="692" on="0"/>
        <pt x="588" y="653" on="1"/>
        <pt x="588" y="562" on="0"/>
        <pt x="441" y="413" on="0"/>
        <pt x="348" y="413" on="1"/>
        <pt x="346" y="407" on="1"/>
        <pt x="404" y="407" on="0"/>
        <pt x="463" y="362" on="1"/>
        <pt x="541" y="303" on="0"/>
        <pt x="541" y="204" on="1"/>
        <pt x="541" y="141" on="0"/>
        <pt x="423" y="-160" on="0"/>
        <pt x="423" y="-224" on="1"/>
        <pt x="423" y="-410" on="0"/>
        <pt x="695" y="-474" on="1"/>
        <pt x="633" y="-600" on="1"/>
        <pt x="252" y="-531" on="0"/>
        <pt x="252" y="-300" on="1"/>
        <pt x="252" y="-226" on="0"/>
        <pt x="382" y="141" on="0"/>
        <pt x="382" y="191" on="1"/>
        <pt x="382" y="255" on="0"/>
        <pt x="305" y="293" on="1"/>
        <pt x="247" y="322" on="0"/>
      </contour>
    </TTGlyph>
    <TTGlyph name="braceright" xMin="60" yMin="-609" xMax="766" yMax="1402">
      <contour>
        <pt x="60" y="-485" on="1"/>
        <pt x="395" y="-436" on="0"/>
        <pt x="395" y="-186" on="1"/>
        <pt x="395" y="-135" on="0"/>
        <pt x="348" y="114" on="0"/>
        <pt x="348" y="151" on="1"/>
        <pt x="348" y="243" on="0"/>
        <pt x="499" y="389" on="0"/>
        <pt x="591" y="389" on="1"/>
        <pt x="591" y="398" on="1"/>
        <pt x="532" y="398" on="0"/>
        <pt x="473" y="441" on="1"/>
        <pt x="395" y="497" on="0"/>
        <pt x="395" y="596" on="1"/>
        <pt x="395" y="667" on="0"/>
        <pt x="523" y="960" on="0"/>
        <pt x="523" y="1029" on="1"/>
        <pt x="523" y="1202" on="0"/>
        <pt x="235" y="1274" on="1"/>
        <pt x="308" y="1402" on="1"/>
        <pt x="687" y="1319" on="0"/>
        <pt x="687" y="1106" on="1"/>
        <pt x="687" y="1021" on="0"/>
        <pt x="559" y="683" on="0"/>
        <pt x="559" y="610" on="1"/>
        <pt x="559" y="546" on="0"/>
        <pt x="634" y="508" on="1"/>
        <pt x="692" y="479" on="0"/>
        <pt x="766" y="474" on="1"/>
        <pt x="750" y="325" on="1"/>
        <pt x="503" y="271" on="0"/>
        <pt x="503" y="146" on="1"/>
        <pt x="503" y="101" on="0"/>
        <pt x="545" y="-169" on="0"/>
        <pt x="545" y="-231" on="1"/>
        <pt x="545" y="-402" on="0"/>
        <pt x="396" y="-506" on="1"/>
        <pt x="271" y="-593" on="0"/>
        <pt x="84" y="-609" on="1"/>
      </contour>
    </TTGlyph>
    <TTGlyph name="bracketleft" xMin="235" yMin="-689" xMax="800" yMax="1439">
      <contour>
        <pt x="413" y="1399" on="1"/>
        <pt x="485" y="1421" on="0"/>
        <pt x="580" y="1423" on="1"/>
        <pt x="643" y="1431" on="0"/>
        <pt x="800" y="1439" on="1"/>
        <pt x="789" y="1366" on="0"/>
        <pt x="775" y="1296" on="0"/>
        <pt x="731" y="1239" on="0"/>
        <pt x="698" y="1199" on="0"/>
        <pt x="668" y="1184" on="1"/>
        <pt x="631" y="1167" on="0"/>
        <pt x="520" y="1169" on="1"/>
        <pt x="485" y="858" on="0"/>
        <pt x="455" y="576" on="0"/>
        <pt x="431" y="371" on="0"/>
        <pt x="409" y="178" on="0"/>
        <pt x="402" y="109" on="1"/>
        <pt x="382" y="-121" on="0"/>
        <pt x="410" y="-305" on="1"/>
        <pt x="495" y="-320" on="0"/>
        <pt x="561" y="-310" on="1"/>
        <pt x="643" y="-293" on="0"/>
        <pt x="729" y="-301" on="1"/>
        <pt x="709" y="-422" on="0"/>
        <pt x="699" y="-564" on="0"/>
        <pt x="714" y="-653" on="1"/>
        <pt x="677" y="-648" on="0"/>
        <pt x="610" y="-653" on="0"/>
        <pt x="565" y="-653" on="1"/>
        <pt x="520" y="-654" on="0"/>
        <pt x="460" y="-666" on="0"/>
        <pt x="379" y="-666" on="1"/>
        <pt x="326" y="-689" on="0"/>
        <pt x="274" y="-573" on="1"/>
        <pt x="247" y="-513" on="0"/>
        <pt x="235" y="-321" on="0"/>
        <pt x="256" y="-38" on="0"/>
        <pt x="304" y="357" on="0"/>
        <pt x="337" y="611" on="1"/>
        <pt x="357" y="758" on="0"/>
        <pt x="381" y="982" on="0"/>
        <pt x="391" y="1100" on="0"/>
        <pt x="407" y="1334" on="0"/>
      </contour>
    </TTGlyph>
    <TTGlyph name="bracketright" xMin="88" yMin="-669" xMax="653" yMax="1458">
      <contour>
        <pt x="475" y="-630" on="1"/>
        <pt x="402" y="-652" on="0"/>
        <pt x="307" y="-654" on="1"/>
        <pt x="244" y="-662" on="0"/>
        <pt x="88" y="-669" on="1"/>
        <pt x="98" y="-597" on="0"/>
        <pt x="113" y="-527" on="0"/>
        <pt x="157" y="-470" on="0"/>
        <pt x="190" y="-430" on="0"/>
        <pt x="220" y="-415" on="1"/>
        <pt x="257" y="-398" on="0"/>
        <pt x="368" y="-400" on="1"/>
        <pt x="403" y="-89" on="0"/>
        <pt x="433" y="193" on="0"/>
        <pt x="457" y="398" on="0"/>
        <pt x="478" y="591" on="0"/>
        <pt x="485" y="660" on="1"/>
        <pt x="506" y="890" on="0"/>
        <pt x="478" y="1074" on="1"/>
        <pt x="393" y="1089" on="0"/>
        <pt x="327" y="1079" on="1"/>
        <pt x="245" y="1062" on="0"/>
        <pt x="159" y="1071" on="1"/>
        <pt x="178" y="1191" on="0"/>
        <pt x="189" y="1333" on="0"/>
        <pt x="174" y="1423" on="1"/>
        <pt x="211" y="1417" on="0"/>
        <pt x="278" y="1422" on="0"/>
        <pt x="322" y="1422" on="1"/>
        <pt x="368" y="1423" on="0"/>
        <pt x="428" y="1435" on="0"/>
        <pt x="509" y="1435" on="1"/>
        <pt x="562" y="1458" on="0"/>
        <pt x="614" y="1342" on="1"/>
        <pt x="641" y="1282" on="0"/>
        <pt x="653" y="1090" on="0"/>
        <pt x="632" y="807" on="0"/>
        <pt x="584" y="412" on="0"/>
        <pt x="550" y="158" on="1"/>
        <pt x="531" y="11" on="0"/>
        <pt x="507" y="-213" on="0"/>
        <pt x="497" y="-331" on="0"/>
        <pt x="481" y="-565" on="0"/>
      </contour>
    </TTGlyph>
    <TTGlyph name="c" xMin="4" yMin="-39" xMax="618" yMax="735">
      <contour>
        <pt x="618" y="313" on="1"/>
        <pt x="618" y="246" on="1"/>
        <pt x="511" y="141" on="0"/>
        <pt x="376" y="25" on="0"/>
        <pt x="259" y="-39" on="0"/>
        <pt x="203" y="-39" on="1"/>
        <pt x="148" y="-39" on="0"/>
        <pt x="56" y="48" on="0"/>
        <pt x="4" y="189" on="0"/>
        <pt x="4" y="268" on="1"/>
        <pt x="4" y="336" on="0"/>
        <pt x="64" y="442" on="0"/>
        <pt x="150" y="526" on="1"/>
        <pt x="252" y="626" on="0"/>
        <pt x="427" y="735" on="0"/>
        <pt x="477" y="735" on="1"/>
        <pt x="513" y="735" on="0"/>
        <pt x="563" y="685" on="0"/>
        <pt x="563" y="647" on="1"/>
        <pt x="563" y="615" on="0"/>
        <pt x="497" y="497" on="0"/>
        <pt x="415" y="410" on="0"/>
        <pt x="391" y="410" on="1"/>
        <pt x="365" y="410" on="0"/>
        <pt x="365" y="438" on="1"/>
        <pt x="366" y="446" on="0"/>
        <pt x="367" y="460" on="0"/>
        <pt x="367" y="467" on="1"/>
        <pt x="367" y="479" on="0"/>
        <pt x="350" y="482" on="0"/>
        <pt x="338" y="473" on="1"/>
        <pt x="238" y="403" on="0"/>
        <pt x="164" y="346" on="0"/>
        <pt x="121" y="288" on="0"/>
        <pt x="121" y="256" on="1"/>
        <pt x="121" y="197" on="0"/>
        <pt x="197" y="123" on="0"/>
        <pt x="258" y="123" on="1"/>
        <pt x="321" y="123" on="0"/>
        <pt x="498" y="220" on="0"/>
      </contour>
    </TTGlyph>
    <TTGlyph name="c.fina" xMin="-58" yMin="-133" xMax="1293" yMax="874">
      <component glyphName="c.medi" x="0" y="0" flags="0x1000"/>
    </TTGlyph>
    <TTGlyph name="c.init" xMin="0" yMin="-133" xMax="1633" yMax="875">
      <component glyphName="c.isol" x="0" y="0" flags="0x1000"/>
    </TTGlyph>
    <TTGlyph name="c.isol" xMin="0" yMin="-133" xMax="1633" yMax="875">
      <contour>
        <pt x="1412" y="605" on="1"/>
        <pt x="1412" y="604" on="1"/>
        <pt x="1406" y="604" on="0"/>
        <pt x="1399" y="605" on="1"/>
        <pt x="1396" y="604" on="0"/>
        <pt x="1392" y="604" on="1"/>
        <pt x="1392" y="605" on="1"/>
        <pt x="1374" y="605" on="1"/>
        <pt x="1270" y="603" on="0"/>
        <pt x="1201" y="586" on="0"/>
        <pt x="1182" y="551" on="1"/>
        <pt x="1170" y="501" on="0"/>
        <pt x="1254" y="403" on="0"/>
        <pt x="1330" y="337" on="0"/>
        <pt x="1448" y="248" on="0"/>
        <pt x="1572" y="122" on="0"/>
        <pt x="1631" y="9" on="0"/>
        <pt x="1633" y="-66" on="1"/>
        <pt x="1613" y="-133" on="0"/>
        <pt x="1494" y="-106" on="0"/>
        <pt x="1393" y="12" on="1"/>
        <pt x="1254" y="180" on="0"/>
        <pt x="1201" y="269" on="0"/>
        <pt x="1145" y="335" on="0"/>
        <pt x="1017" y="365" on="0"/>
        <pt x="917" y="365" on="0"/>
        <pt x="798" y="339" on="0"/>
        <pt x="696" y="279" on="0"/>
        <pt x="641" y="205" on="0"/>
        <pt x="598" y="189" on="0"/>
        <pt x="577" y="188" on="1"/>
        <pt x="530" y="204" on="0"/>
        <pt x="542" y="337" on="0"/>
        <pt x="637" y="456" on="0"/>
        <pt x="761" y="501" on="0"/>
        <pt x="883" y="500" on="0"/>
        <pt x="1023" y="481" on="0"/>
        <pt x="1111" y="457" on="0"/>
        <pt x="1061" y="593" on="0"/>
        <pt x="1009" y="617" on="0"/>
        <pt x="808" y="602" on="0"/>
        <pt x="569" y="597" on="0"/>
        <pt x="373" y="595" on="0"/>
        <pt x="237" y="597" on="0"/>
        <pt x="31" y="600" on="0"/>
        <pt x="3" y="700" on="1"/>
        <pt x="0" y="762" on="1"/>
        <pt x="40" y="831" on="0"/>
        <pt x="103" y="848" on="0"/>
        <pt x="249" y="855" on="0"/>
        <pt x="370" y="858" on="0"/>
        <pt x="605" y="853" on="0"/>
        <pt x="754" y="845" on="0"/>
        <pt x="873" y="836" on="0"/>
        <pt x="1021" y="829" on="1"/>
        <pt x="1119" y="820" on="0"/>
        <pt x="1178" y="847" on="1"/>
        <pt x="1247" y="875" on="0"/>
        <pt x="1370" y="858" on="1"/>
        <pt x="1396" y="857" on="0"/>
        <pt x="1412" y="855" on="1"/>
        <pt x="1466" y="839" on="0"/>
        <pt x="1473" y="784" on="1"/>
        <pt x="1480" y="728" on="0"/>
        <pt x="1467" y="665" on="1"/>
        <pt x="1454" y="601" on="0"/>
      </contour>
    </TTGlyph>
    <TTGlyph name="c.medi" xMin="-58" yMin="-133" xMax="1293" yMax="874">
      <contour>
        <pt x="-51" y="784" on="1"/>
        <pt x="-50" y="787" on="0"/>
        <pt x="-50" y="790" on="1"/>
        <pt x="-42" y="839" on="0"/>
        <pt x="0" y="856" on="1"/>
        <pt x="28" y="871" on="0"/>
        <pt x="179" y="874" on="1"/>
        <pt x="380" y="862" on="0"/>
        <pt x="533" y="845" on="0"/>
        <pt x="681" y="837" on="1"/>
        <pt x="779" y="829" on="0"/>
        <pt x="838" y="851" on="1"/>
        <pt x="894" y="869" on="0"/>
        <pt x="988" y="862" on="1"/>
        <pt x="1025" y="859" on="0"/>
        <pt x="1071" y="855" on="1"/>
        <pt x="1126" y="840" on="0"/>
        <pt x="1140" y="728" on="0"/>
        <pt x="1127" y="665" on="1"/>
        <pt x="1114" y="601" on="0"/>
        <pt x="1072" y="605" on="1"/>
        <pt x="1072" y="604" on="1"/>
        <pt x="1055" y="605" on="0"/>
        <pt x="1034" y="605" on="1"/>
        <pt x="930" y="603" on="0"/>
        <pt x="865" y="584" on="1"/>
        <pt x="865" y="580" on="1"/>
        <pt x="846" y="569" on="0"/>
        <pt x="842" y="551" on="1"/>
        <pt x="829" y="501" on="0"/>
        <pt x="914" y="403" on="0"/>
        <pt x="990" y="337" on="0"/>
        <pt x="1108" y="248" on="0"/>
        <pt x="1231" y="122" on="0"/>
        <pt x="1291" y="9" on="0"/>
        <pt x="1293" y="-66" on="1"/>
        <pt x="1273" y="-133" on="0"/>
        <pt x="1154" y="-106" on="0"/>
        <pt x="1053" y="12" on="1"/>
        <pt x="914" y="180" on="0"/>
        <pt x="861" y="269" on="0"/>
        <pt x="805" y="335" on="0"/>
        <pt x="677" y="365" on="0"/>
        <pt x="577" y="365" on="0"/>
        <pt x="458" y="339" on="0"/>
        <pt x="356" y="279" on="0"/>
        <pt x="301" y="205" on="0"/>
        <pt x="258" y="189" on="0"/>
        <pt x="237" y="188" on="1"/>
        <pt x="189" y="204" on="0"/>
        <pt x="202" y="337" on="0"/>
        <pt x="296" y="456" on="0"/>
        <pt x="421" y="501" on="0"/>
        <pt x="543" y="500" on="0"/>
        <pt x="682" y="481" on="0"/>
        <pt x="771" y="457" on="0"/>
        <pt x="721" y="593" on="0"/>
        <pt x="669" y="617" on="0"/>
        <pt x="468" y="602" on="0"/>
        <pt x="228" y="597" on="0"/>
        <pt x="114" y="601" on="0"/>
        <pt x="81" y="600" on="1"/>
        <pt x="11" y="599" on="0"/>
        <pt x="-44" y="632" on="0"/>
        <pt x="-51" y="687" on="1"/>
        <pt x="-58" y="738" on="0"/>
      </contour>
    </TTGlyph>
    <TTGlyph name="ch.fina" xMin="-58" yMin="-133" xMax="1293" yMax="1610">
      <component glyphName="ch.medi" x="0" y="0" flags="0x1000"/>
    </TTGlyph>
    <TTGlyph name="ch.init" xMin="0" yMin="-133" xMax="1633" yMax="1610">
      <component glyphName="ch.isol" x="0" y="0" flags="0x1000"/>
    </TTGlyph>
    <TTGlyph name="ch.isol" xMin="0" yMin="-133" xMax="1633" yMax="1610">
      <contour>
        <pt x="1196" y="1054" on="0"/>
        <pt x="1023" y="1164" on="0"/>
        <pt x="959" y="1317" on="0"/>
        <pt x="968" y="1448" on="0"/>
        <pt x="1005" y="1527" on="0"/>
        <pt x="1079" y="1595" on="0"/>
        <pt x="1195" y="1610" on="0"/>
        <pt x="1319" y="1570" on="0"/>
        <pt x="1421" y="1467" on="0"/>
        <pt x="1457" y="1357" on="0"/>
        <pt x="1456" y="1240" on="0"/>
        <pt x="1431" y="1175" on="0"/>
        <pt x="1391" y="1115" on="0"/>
        <pt x="1334" y="1072" on="0"/>
        <pt x="1264" y="1060" on="0"/>
        <pt x="1303" y="926" on="0"/>
      </contour>
      <contour>
        <pt x="1288" y="1457" on="0"/>
        <pt x="1196" y="1489" on="0"/>
        <pt x="1123" y="1467" on="0"/>
        <pt x="1085" y="1384" on="0"/>
        <pt x="1110" y="1230" on="0"/>
        <pt x="1246" y="1132" on="0"/>
        <pt x="1325" y="1165" on="1"/>
        <pt x="1357" y="1174" on="0"/>
        <pt x="1390" y="1271" on="0"/>
        <pt x="1366" y="1368" on="0"/>
      </contour>
      <contour>
        <pt x="1412" y="605" on="1"/>
        <pt x="1412" y="604" on="1"/>
        <pt x="1406" y="604" on="0"/>
        <pt x="1399" y="605" on="1"/>
        <pt x="1396" y="604" on="0"/>
        <pt x="1392" y="604" on="1"/>
        <pt x="1392" y="605" on="1"/>
        <pt x="1374" y="605" on="1"/>
        <pt x="1270" y="603" on="0"/>
        <pt x="1201" y="586" on="0"/>
        <pt x="1182" y="551" on="1"/>
        <pt x="1170" y="501" on="0"/>
        <pt x="1254" y="403" on="0"/>
        <pt x="1330" y="337" on="0"/>
        <pt x="1448" y="248" on="0"/>
        <pt x="1572" y="122" on="0"/>
        <pt x="1631" y="9" on="0"/>
        <pt x="1633" y="-66" on="1"/>
        <pt x="1613" y="-133" on="0"/>
        <pt x="1494" y="-106" on="0"/>
        <pt x="1393" y="12" on="1"/>
        <pt x="1254" y="180" on="0"/>
        <pt x="1201" y="269" on="0"/>
        <pt x="1145" y="335" on="0"/>
        <pt x="1017" y="365" on="0"/>
        <pt x="917" y="365" on="0"/>
        <pt x="798" y="339" on="0"/>
        <pt x="696" y="279" on="0"/>
        <pt x="641" y="205" on="0"/>
        <pt x="598" y="189" on="0"/>
        <pt x="577" y="188" on="1"/>
        <pt x="530" y="204" on="0"/>
        <pt x="542" y="337" on="0"/>
        <pt x="637" y="456" on="0"/>
        <pt x="761" y="501" on="0"/>
        <pt x="883" y="500" on="0"/>
        <pt x="1023" y="481" on="0"/>
        <pt x="1111" y="457" on="0"/>
        <pt x="1061" y="593" on="0"/>
        <pt x="1009" y="617" on="0"/>
        <pt x="808" y="602" on="0"/>
        <pt x="569" y="597" on="0"/>
        <pt x="373" y="595" on="0"/>
        <pt x="237" y="597" on="0"/>
        <pt x="31" y="600" on="0"/>
        <pt x="3" y="700" on="1"/>
        <pt x="0" y="762" on="1"/>
        <pt x="40" y="831" on="0"/>
        <pt x="103" y="848" on="0"/>
        <pt x="249" y="855" on="0"/>
        <pt x="370" y="858" on="0"/>
        <pt x="605" y="853" on="0"/>
        <pt x="754" y="845" on="0"/>
        <pt x="873" y="836" on="0"/>
        <pt x="1021" y="829" on="1"/>
        <pt x="1119" y="820" on="0"/>
        <pt x="1178" y="847" on="1"/>
        <pt x="1247" y="875" on="0"/>
        <pt x="1370" y="858" on="1"/>
        <pt x="1396" y="857" on="0"/>
        <pt x="1412" y="855" on="1"/>
        <pt x="1466" y="839" on="0"/>
        <pt x="1473" y="784" on="1"/>
        <pt x="1480" y="728" on="0"/>
        <pt x="1467" y="665" on="1"/>
        <pt x="1454" y="601" on="0"/>
      </contour>
    </TTGlyph>
    <TTGlyph name="ch.medi" xMin="-58" yMin="-133" xMax="1293" yMax="1610">
      <contour>
        <pt x="810" y="1054" on="0"/>
        <pt x="637" y="1164" on="0"/>
        <pt x="573" y="1317" on="0"/>
        <pt x="582" y="1448" on="0"/>
        <pt x="619" y="1527" on="0"/>
        <pt x="693" y="1595" on="0"/>
        <pt x="809" y="1610" on="0"/>
        <pt x="933" y="1570" on="0"/>
        <pt x="1035" y="1467" on="0"/>
        <pt x="1071" y="1357" on="0"/>
        <pt x="1070" y="1240" on="0"/>
        <pt x="1045" y="1175" on="0"/>
        <pt x="1005" y="1115" on="0"/>
        <pt x="948" y="1072" on="0"/>
        <pt x="878" y="1060" on="0"/>
        <pt x="917" y="926" on="0"/>
      </contour>
      <contour>
        <pt x="902" y="1457" on="0"/>
        <pt x="810" y="1489" on="0"/>
        <pt x="737" y="1467" on="0"/>
        <pt x="699" y="1384" on="0"/>
        <pt x="724" y="1230" on="0"/>
        <pt x="860" y="1132" on="0"/>
        <pt x="939" y="1165" on="1"/>
        <pt x="971" y="1174" on="0"/>
        <pt x="1004" y="1271" on="0"/>
        <pt x="980" y="1368" on="0"/>
      </contour>
      <contour>
        <pt x="-51" y="784" on="1"/>
        <pt x="-50" y="787" on="0"/>
        <pt x="-50" y="790" on="1"/>
        <pt x="-42" y="839" on="0"/>
        <pt x="0" y="856" on="1"/>
        <pt x="28" y="871" on="0"/>
        <pt x="179" y="874" on="1"/>
        <pt x="380" y="862" on="0"/>
        <pt x="533" y="845" on="0"/>
        <pt x="681" y="837" on="1"/>
        <pt x="779" y="829" on="0"/>
        <pt x="838" y="851" on="1"/>
        <pt x="894" y="869" on="0"/>
        <pt x="988" y="862" on="1"/>
        <pt x="1025" y="859" on="0"/>
        <pt x="1071" y="855" on="1"/>
        <pt x="1126" y="840" on="0"/>
        <pt x="1140" y="728" on="0"/>
        <pt x="1127" y="665" on="1"/>
        <pt x="1114" y="601" on="0"/>
        <pt x="1072" y="605" on="1"/>
        <pt x="1072" y="604" on="1"/>
        <pt x="1055" y="605" on="0"/>
        <pt x="1034" y="605" on="1"/>
        <pt x="930" y="603" on="0"/>
        <pt x="865" y="584" on="1"/>
        <pt x="865" y="580" on="1"/>
        <pt x="846" y="569" on="0"/>
        <pt x="842" y="551" on="1"/>
        <pt x="829" y="501" on="0"/>
        <pt x="914" y="403" on="0"/>
        <pt x="990" y="337" on="0"/>
        <pt x="1108" y="248" on="0"/>
        <pt x="1231" y="122" on="0"/>
        <pt x="1291" y="9" on="0"/>
        <pt x="1293" y="-66" on="1"/>
        <pt x="1273" y="-133" on="0"/>
        <pt x="1154" y="-106" on="0"/>
        <pt x="1053" y="12" on="1"/>
        <pt x="914" y="180" on="0"/>
        <pt x="861" y="269" on="0"/>
        <pt x="805" y="335" on="0"/>
        <pt x="677" y="365" on="0"/>
        <pt x="577" y="365" on="0"/>
        <pt x="458" y="339" on="0"/>
        <pt x="356" y="279" on="0"/>
        <pt x="301" y="205" on="0"/>
        <pt x="258" y="189" on="0"/>
        <pt x="237" y="188" on="1"/>
        <pt x="189" y="204" on="0"/>
        <pt x="202" y="337" on="0"/>
        <pt x="296" y="456" on="0"/>
        <pt x="421" y="501" on="0"/>
        <pt x="543" y="500" on="0"/>
        <pt x="682" y="481" on="0"/>
        <pt x="771" y="457" on="0"/>
        <pt x="721" y="593" on="0"/>
        <pt x="669" y="617" on="0"/>
        <pt x="468" y="602" on="0"/>
        <pt x="228" y="597" on="0"/>
        <pt x="114" y="601" on="0"/>
        <pt x="81" y="600" on="1"/>
        <pt x="11" y="599" on="0"/>
        <pt x="-44" y="632" on="0"/>
        <pt x="-51" y="687" on="1"/>
        <pt x="-58" y="738" on="0"/>
      </contour>
    </TTGlyph>
    <TTGlyph name="colon" xMin="127" yMin="-4" xMax="545" yMax="672">
      <contour>
        <pt x="176" y="-4" on="1"/>
        <pt x="127" y="-4" on="0"/>
        <pt x="127" y="47" on="1"/>
        <pt x="127" y="84" on="0"/>
        <pt x="190" y="164" on="0"/>
        <pt x="277" y="221" on="0"/>
        <pt x="340" y="223" on="0"/>
        <pt x="340" y="186" on="1"/>
        <pt x="340" y="157" on="0"/>
        <pt x="285" y="66" on="0"/>
        <pt x="206" y="-4" on="0"/>
      </contour>
      <contour>
        <pt x="375" y="426" on="1"/>
        <pt x="351" y="426" on="0"/>
        <pt x="326" y="459" on="0"/>
        <pt x="326" y="485" on="1"/>
        <pt x="326" y="516" on="0"/>
        <pt x="387" y="606" on="0"/>
        <pt x="471" y="672" on="0"/>
        <pt x="500" y="672" on="1"/>
        <pt x="521" y="672" on="0"/>
        <pt x="545" y="645" on="0"/>
        <pt x="545" y="623" on="1"/>
        <pt x="545" y="596" on="0"/>
        <pt x="487" y="498" on="0"/>
        <pt x="408" y="426" on="0"/>
      </contour>
    </TTGlyph>
    <TTGlyph name="colon.vrt2" xMin="475" yMin="544" xMax="1588" yMax="904">
      <contour>
        <pt x="797" y="880" on="0"/>
        <pt x="835" y="828" on="0"/>
        <pt x="819" y="683" on="0"/>
        <pt x="761" y="629" on="1"/>
        <pt x="667" y="544" on="0"/>
        <pt x="475" y="613" on="0"/>
        <pt x="584" y="846" on="0"/>
        <pt x="717" y="904" on="0"/>
      </contour>
      <contour>
        <pt x="1549" y="880" on="0"/>
        <pt x="1588" y="828" on="0"/>
        <pt x="1572" y="683" on="0"/>
        <pt x="1513" y="629" on="1"/>
        <pt x="1419" y="544" on="0"/>
        <pt x="1227" y="613" on="0"/>
        <pt x="1336" y="846" on="0"/>
        <pt x="1470" y="904" on="0"/>
      </contour>
    </TTGlyph>
    <TTGlyph name="combiningcaron" xMin="333" yMin="955" xMax="773" yMax="1369">
      <contour>
        <pt x="448" y="955" on="0"/>
        <pt x="406" y="1009" on="0"/>
        <pt x="372" y="1070" on="0"/>
        <pt x="360" y="1104" on="0"/>
        <pt x="333" y="1265" on="0"/>
        <pt x="367" y="1279" on="1"/>
        <pt x="391" y="1285" on="0"/>
        <pt x="445" y="1252" on="0"/>
        <pt x="478" y="1181" on="0"/>
        <pt x="487" y="1153" on="1"/>
        <pt x="493" y="1132" on="0"/>
        <pt x="500" y="1112" on="0"/>
        <pt x="513" y="1102" on="0"/>
        <pt x="523" y="1112" on="1"/>
        <pt x="560" y="1141" on="0"/>
        <pt x="616" y="1230" on="0"/>
        <pt x="649" y="1301" on="0"/>
        <pt x="668" y="1333" on="1"/>
        <pt x="714" y="1369" on="0"/>
        <pt x="773" y="1331" on="0"/>
        <pt x="744" y="1246" on="1"/>
        <pt x="732" y="1224" on="0"/>
        <pt x="731" y="1221" on="1"/>
        <pt x="644" y="1082" on="0"/>
        <pt x="641" y="1084" on="1"/>
        <pt x="637" y="1080" on="0"/>
        <pt x="602" y="1034" on="0"/>
        <pt x="559" y="1001" on="1"/>
        <pt x="520" y="972" on="0"/>
        <pt x="492" y="963" on="1"/>
      </contour>
    </TTGlyph>
    <TTGlyph name="comma" xMin="133" yMin="-118" xMax="338" yMax="201">
      <contour>
        <pt x="184" y="-25" on="1"/>
        <pt x="152" y="-13" on="0"/>
        <pt x="133" y="-1" on="0"/>
        <pt x="133" y="18" on="1"/>
        <pt x="133" y="45" on="0"/>
        <pt x="196" y="134" on="0"/>
        <pt x="276" y="201" on="0"/>
        <pt x="301" y="201" on="1"/>
        <pt x="338" y="201" on="0"/>
        <pt x="338" y="156" on="1"/>
        <pt x="338" y="105" on="0"/>
        <pt x="217" y="-64" on="0"/>
        <pt x="168" y="-96" on="1"/>
        <pt x="135" y="-118" on="0"/>
        <pt x="135" y="-102" on="1"/>
        <pt x="135" y="-95" on="0"/>
        <pt x="146" y="-82" on="0"/>
        <pt x="175" y="-43" on="0"/>
      </contour>
    </TTGlyph>
    <TTGlyph name="comma.vrt2" xMin="487" yMin="498" xMax="1274" yMax="928">
      <contour>
        <pt x="870" y="928" on="0"/>
        <pt x="982" y="888" on="0"/>
        <pt x="1099" y="797" on="0"/>
        <pt x="1204" y="628" on="0"/>
        <pt x="1274" y="517" on="0"/>
        <pt x="1220" y="498" on="0"/>
        <pt x="1102" y="649" on="0"/>
        <pt x="966" y="750" on="0"/>
        <pt x="879" y="739" on="0"/>
        <pt x="839" y="680" on="0"/>
        <pt x="798" y="598" on="0"/>
        <pt x="651" y="598" on="0"/>
        <pt x="487" y="675" on="0"/>
        <pt x="551" y="790" on="0"/>
        <pt x="742" y="921" on="0"/>
      </contour>
    </TTGlyph>
    <TTGlyph name="commamnc" xMin="506" yMin="422" xMax="827" yMax="1025">
      <contour>
        <pt x="549" y="1025" on="0"/>
        <pt x="617" y="991" on="1"/>
        <pt x="634" y="978" on="0"/>
        <pt x="636" y="977" on="1"/>
        <pt x="742" y="886" on="0"/>
        <pt x="741" y="885" on="1"/>
        <pt x="743" y="881" on="0"/>
        <pt x="778" y="846" on="0"/>
        <pt x="822" y="766" on="0"/>
        <pt x="827" y="713" on="0"/>
        <pt x="823" y="672" on="1"/>
        <pt x="812" y="626" on="0"/>
        <pt x="799" y="597" on="0"/>
        <pt x="759" y="558" on="0"/>
        <pt x="726" y="529" on="0"/>
        <pt x="556" y="422" on="0"/>
        <pt x="525" y="455" on="1"/>
        <pt x="506" y="478" on="0"/>
        <pt x="518" y="555" on="0"/>
        <pt x="583" y="626" on="0"/>
        <pt x="638" y="677" on="0"/>
        <pt x="722" y="753" on="0"/>
        <pt x="683" y="824" on="0"/>
        <pt x="615" y="881" on="0"/>
        <pt x="559" y="917" on="0"/>
        <pt x="534" y="937" on="1"/>
        <pt x="509" y="980" on="0"/>
      </contour>
    </TTGlyph>
    <TTGlyph name="d" xMin="6" yMin="-37" xMax="979" yMax="1180">
      <contour>
        <pt x="473" y="313" on="1"/>
        <pt x="385" y="213" on="0"/>
        <pt x="246" y="73" on="0"/>
        <pt x="159" y="4" on="0"/>
        <pt x="143" y="4" on="1"/>
        <pt x="117" y="4" on="0"/>
        <pt x="52" y="88" on="0"/>
        <pt x="6" y="218" on="0"/>
        <pt x="6" y="285" on="1"/>
        <pt x="6" y="382" on="0"/>
        <pt x="194" y="579" on="0"/>
        <pt x="434" y="709" on="0"/>
        <pt x="494" y="709" on="1"/>
        <pt x="543" y="709" on="0"/>
        <pt x="590" y="647" on="1"/>
        <pt x="667" y="808" on="0"/>
        <pt x="806" y="1058" on="0"/>
        <pt x="900" y="1180" on="0"/>
        <pt x="920" y="1180" on="1"/>
        <pt x="942" y="1180" on="0"/>
        <pt x="979" y="1137" on="0"/>
        <pt x="979" y="1110" on="1"/>
        <pt x="979" y="1058" on="0"/>
        <pt x="827" y="805" on="0"/>
        <pt x="679" y="565" on="0"/>
        <pt x="573" y="332" on="0"/>
        <pt x="573" y="233" on="1"/>
        <pt x="573" y="143" on="0"/>
        <pt x="631" y="143" on="1"/>
        <pt x="666" y="143" on="0"/>
        <pt x="772" y="222" on="0"/>
        <pt x="870" y="315" on="1"/>
        <pt x="870" y="242" on="1"/>
        <pt x="654" y="-37" on="0"/>
        <pt x="537" y="-37" on="1"/>
        <pt x="490" y="-37" on="0"/>
        <pt x="449" y="35" on="0"/>
        <pt x="449" y="106" on="1"/>
        <pt x="449" y="202" on="0"/>
      </contour>
      <contour>
        <pt x="547" y="557" on="1"/>
        <pt x="458" y="527" on="0"/>
        <pt x="218" y="394" on="0"/>
        <pt x="193" y="369" on="1"/>
        <pt x="171" y="349" on="0"/>
        <pt x="137" y="239" on="0"/>
        <pt x="137" y="211" on="1"/>
        <pt x="137" y="194" on="0"/>
        <pt x="157" y="172" on="0"/>
        <pt x="172" y="172" on="1"/>
        <pt x="186" y="172" on="0"/>
        <pt x="222" y="196" on="0"/>
        <pt x="301" y="266" on="0"/>
        <pt x="313" y="276" on="1"/>
        <pt x="330" y="291" on="0"/>
        <pt x="447" y="390" on="0"/>
        <pt x="501" y="446" on="0"/>
        <pt x="539" y="515" on="0"/>
      </contour>
    </TTGlyph>
    <TTGlyph name="d.fina" xMin="-58" yMin="-383" xMax="1552" yMax="1423">
      <component glyphName="d.medi" x="0" y="0" flags="0x1000"/>
    </TTGlyph>
    <TTGlyph name="d.init" xMin="-2" yMin="422" xMax="1358" yMax="1423">
      <component glyphName="d.isol" x="0" y="0" flags="0x1000"/>
    </TTGlyph>
    <TTGlyph name="d.isol" xMin="-2" yMin="422" xMax="1358" yMax="1423">
      <contour>
        <pt x="205" y="1129" on="0"/>
        <pt x="95" y="1017" on="0"/>
        <pt x="78" y="909" on="0"/>
        <pt x="154" y="786" on="0"/>
        <pt x="364" y="724" on="0"/>
        <pt x="497" y="722" on="0"/>
        <pt x="547" y="726" on="0"/>
        <pt x="715" y="751" on="0"/>
        <pt x="811" y="802" on="0"/>
        <pt x="721" y="943" on="0"/>
        <pt x="600" y="1058" on="0"/>
        <pt x="465" y="1131" on="0"/>
        <pt x="344" y="1153" on="0"/>
      </contour>
      <contour>
        <pt x="1103" y="1334" on="1"/>
        <pt x="1249" y="1423" on="0"/>
        <pt x="1321" y="1357" on="1"/>
        <pt x="1358" y="1319" on="0"/>
        <pt x="1325" y="1262" on="0"/>
        <pt x="1264" y="1236" on="0"/>
        <pt x="1222" y="1202" on="0"/>
        <pt x="1189" y="1161" on="1"/>
        <pt x="1095" y="1109" on="0"/>
        <pt x="1015" y="1158" on="0"/>
        <pt x="1002" y="1228" on="0"/>
        <pt x="1067" y="1310" on="0"/>
      </contour>
      <contour>
        <pt x="1060" y="591" on="1"/>
        <pt x="1060" y="590" on="1"/>
        <pt x="1027" y="580" on="0"/>
        <pt x="1026" y="562" on="1"/>
        <pt x="1023" y="541" on="0"/>
        <pt x="990" y="443" on="0"/>
        <pt x="942" y="423" on="1"/>
        <pt x="918" y="422" on="1"/>
        <pt x="885" y="444" on="0"/>
        <pt x="856" y="503" on="0"/>
        <pt x="819" y="575" on="0"/>
        <pt x="816" y="618" on="1"/>
        <pt x="814" y="686" on="0"/>
        <pt x="777" y="682" on="1"/>
        <pt x="732" y="680" on="0"/>
        <pt x="649" y="631" on="0"/>
        <pt x="545" y="605" on="0"/>
        <pt x="409" y="600" on="0"/>
        <pt x="252" y="633" on="0"/>
        <pt x="151" y="682" on="0"/>
        <pt x="39" y="792" on="0"/>
        <pt x="14" y="839" on="0"/>
        <pt x="1" y="898" on="0"/>
        <pt x="-2" y="1002" on="0"/>
        <pt x="80" y="1153" on="0"/>
        <pt x="195" y="1238" on="0"/>
        <pt x="277" y="1277" on="0"/>
        <pt x="343" y="1286" on="0"/>
        <pt x="453" y="1277" on="0"/>
        <pt x="582" y="1215" on="0"/>
        <pt x="683" y="1131" on="0"/>
        <pt x="797" y="993" on="0"/>
        <pt x="862" y="909" on="0"/>
        <pt x="902" y="887" on="1"/>
        <pt x="936" y="868" on="0"/>
        <pt x="981" y="865" on="1"/>
        <pt x="998" y="865" on="1"/>
        <pt x="1027" y="864" on="0"/>
        <pt x="1061" y="861" on="1"/>
        <pt x="1096" y="858" on="0"/>
        <pt x="1135" y="855" on="1"/>
        <pt x="1191" y="840" on="0"/>
        <pt x="1204" y="728" on="0"/>
        <pt x="1179" y="600" on="0"/>
        <pt x="1135" y="605" on="1"/>
        <pt x="1100" y="604" on="0"/>
      </contour>
    </TTGlyph>
    <TTGlyph name="d.medi" xMin="-58" yMin="-383" xMax="1552" yMax="1423">
      <contour>
        <pt x="910" y="1334" on="1"/>
        <pt x="1056" y="1423" on="0"/>
        <pt x="1129" y="1357" on="1"/>
        <pt x="1165" y="1319" on="0"/>
        <pt x="1132" y="1262" on="0"/>
        <pt x="1071" y="1236" on="0"/>
        <pt x="1029" y="1202" on="0"/>
        <pt x="996" y="1161" on="1"/>
        <pt x="902" y="1109" on="0"/>
        <pt x="823" y="1158" on="0"/>
        <pt x="809" y="1228" on="0"/>
        <pt x="874" y="1310" on="0"/>
      </contour>
      <contour>
        <pt x="1469" y="-250" on="1"/>
        <pt x="1496" y="-235" on="0"/>
        <pt x="1503" y="-172" on="0"/>
        <pt x="1503" y="-105" on="0"/>
        <pt x="1469" y="20" on="0"/>
        <pt x="1418" y="113" on="0"/>
        <pt x="1379" y="155" on="0"/>
        <pt x="1329" y="178" on="0"/>
        <pt x="1279" y="195" on="0"/>
        <pt x="1231" y="195" on="0"/>
        <pt x="1141" y="163" on="0"/>
        <pt x="1101" y="100" on="0"/>
        <pt x="1091" y="54" on="0"/>
        <pt x="1152" y="-15" on="0"/>
        <pt x="1231" y="-87" on="0"/>
        <pt x="1322" y="-163" on="0"/>
        <pt x="1383" y="-216" on="0"/>
        <pt x="1435" y="-250" on="0"/>
      </contour>
      <contour>
        <pt x="228" y="875" on="1"/>
        <pt x="231" y="875" on="0"/>
        <pt x="235" y="875" on="1"/>
        <pt x="274" y="863" on="0"/>
        <pt x="297" y="826" on="1"/>
        <pt x="302" y="818" on="0"/>
        <pt x="326" y="778" on="0"/>
        <pt x="342" y="750" on="1"/>
        <pt x="360" y="714" on="0"/>
        <pt x="412" y="643" on="0"/>
        <pt x="372" y="716" on="0"/>
        <pt x="437" y="819" on="1"/>
        <pt x="504" y="909" on="0"/>
        <pt x="621" y="861" on="1"/>
        <pt x="679" y="857" on="0"/>
        <pt x="703" y="860" on="1"/>
        <pt x="723" y="864" on="0"/>
        <pt x="783" y="865" on="1"/>
        <pt x="782" y="866" on="1"/>
        <pt x="835" y="866" on="0"/>
        <pt x="846" y="865" on="1"/>
        <pt x="884" y="865" on="0"/>
        <pt x="928" y="861" on="1"/>
        <pt x="920" y="862" on="0"/>
        <pt x="995" y="855" on="1"/>
        <pt x="1050" y="840" on="0"/>
        <pt x="1064" y="728" on="0"/>
        <pt x="1039" y="600" on="0"/>
        <pt x="995" y="605" on="1"/>
        <pt x="959" y="604" on="0"/>
        <pt x="929" y="600" on="1"/>
        <pt x="846" y="603" on="0"/>
        <pt x="748" y="602" on="1"/>
        <pt x="693" y="601" on="0"/>
        <pt x="568" y="585" on="0"/>
        <pt x="546" y="539" on="1"/>
        <pt x="558" y="519" on="0"/>
        <pt x="562" y="508" on="1"/>
        <pt x="677" y="405" on="0"/>
        <pt x="704" y="380" on="1"/>
        <pt x="739" y="348" on="0"/>
        <pt x="854" y="246" on="1"/>
        <pt x="912" y="195" on="0"/>
        <pt x="954" y="161" on="1"/>
        <pt x="991" y="132" on="0"/>
        <pt x="1010" y="127" on="1"/>
        <pt x="1038" y="119" on="0"/>
        <pt x="1089" y="196" on="0"/>
        <pt x="1170" y="265" on="0"/>
        <pt x="1328" y="283" on="0"/>
        <pt x="1439" y="229" on="0"/>
        <pt x="1503" y="136" on="0"/>
        <pt x="1543" y="-6" on="0"/>
        <pt x="1552" y="-139" on="0"/>
        <pt x="1543" y="-238" on="0"/>
        <pt x="1509" y="-349" on="0"/>
        <pt x="1488" y="-362" on="1"/>
        <pt x="1468" y="-383" on="0"/>
        <pt x="1423" y="-383" on="0"/>
        <pt x="1337" y="-293" on="0"/>
        <pt x="1257" y="-230" on="0"/>
        <pt x="1101" y="-108" on="0"/>
        <pt x="973" y="-14" on="0"/>
        <pt x="814" y="121" on="0"/>
        <pt x="489" y="409" on="0"/>
        <pt x="413" y="477" on="1"/>
        <pt x="350" y="534" on="0"/>
        <pt x="335" y="546" on="1"/>
        <pt x="331" y="549" on="0"/>
        <pt x="330" y="550" on="1"/>
        <pt x="324" y="555" on="0"/>
        <pt x="317" y="560" on="1"/>
        <pt x="259" y="601" on="0"/>
        <pt x="237" y="600" on="1"/>
        <pt x="234" y="600" on="1"/>
        <pt x="234" y="601" on="1"/>
        <pt x="163" y="601" on="1"/>
        <pt x="152" y="601" on="0"/>
        <pt x="11" y="616" on="0"/>
        <pt x="-44" y="649" on="0"/>
        <pt x="-51" y="704" on="1"/>
        <pt x="-58" y="755" on="0"/>
        <pt x="-51" y="801" on="1"/>
        <pt x="-51" y="787" on="0"/>
        <pt x="-50" y="790" on="1"/>
        <pt x="-49" y="797" on="0"/>
        <pt x="-47" y="803" on="1"/>
        <pt x="-36" y="841" on="0"/>
        <pt x="0" y="856" on="1"/>
        <pt x="26" y="862" on="0"/>
        <pt x="53" y="865" on="1"/>
        <pt x="98" y="872" on="0"/>
        <pt x="132" y="875" on="1"/>
        <pt x="183" y="880" on="0"/>
        <pt x="217" y="875" on="1"/>
        <pt x="217" y="875" on="1"/>
        <pt x="217" y="877" on="1"/>
        <pt x="218" y="877" on="1"/>
        <pt x="222" y="876" on="0"/>
        <pt x="226" y="875" on="1"/>
      </contour>
    </TTGlyph>
    <TTGlyph name="d1.init" xMin="-3" yMin="388" xMax="1733" yMax="1423">
      <contour>
        <pt x="1139" y="983" on="0"/>
        <pt x="1094" y="1039" on="1"/>
        <pt x="1046" y="1088" on="0"/>
        <pt x="931" y="1164" on="0"/>
        <pt x="819" y="1207" on="0"/>
        <pt x="725" y="1227" on="0"/>
        <pt x="618" y="1236" on="0"/>
        <pt x="522" y="1215" on="0"/>
        <pt x="470" y="1147" on="0"/>
        <pt x="459" y="1070" on="0"/>
        <pt x="488" y="995" on="0"/>
        <pt x="531" y="945" on="0"/>
        <pt x="561" y="904" on="1"/>
        <pt x="647" y="837" on="0"/>
        <pt x="731" y="816" on="0"/>
        <pt x="773" y="807" on="1"/>
        <pt x="907" y="800" on="0"/>
        <pt x="1048" y="801" on="0"/>
        <pt x="1122" y="804" on="0"/>
        <pt x="1142" y="864" on="0"/>
        <pt x="1167" y="881" on="0"/>
      </contour>
      <contour>
        <pt x="1442" y="1310" on="0"/>
        <pt x="1478" y="1334" on="1"/>
        <pt x="1624" y="1423" on="0"/>
        <pt x="1696" y="1357" on="1"/>
        <pt x="1733" y="1319" on="0"/>
        <pt x="1700" y="1262" on="0"/>
        <pt x="1638" y="1236" on="0"/>
        <pt x="1597" y="1202" on="0"/>
        <pt x="1564" y="1161" on="1"/>
        <pt x="1469" y="1109" on="0"/>
        <pt x="1390" y="1158" on="0"/>
        <pt x="1377" y="1228" on="0"/>
      </contour>
      <contour>
        <pt x="1328" y="575" on="0"/>
        <pt x="1315" y="524" on="1"/>
        <pt x="1298" y="416" on="0"/>
        <pt x="1251" y="389" on="1"/>
        <pt x="1227" y="388" on="1"/>
        <pt x="1167" y="396" on="0"/>
        <pt x="1156" y="531" on="1"/>
        <pt x="1157" y="541" on="1"/>
        <pt x="1158" y="607" on="0"/>
        <pt x="1123" y="630" on="0"/>
        <pt x="962" y="632" on="0"/>
        <pt x="768" y="620" on="0"/>
        <pt x="715" y="614" on="0"/>
        <pt x="578" y="603" on="0"/>
        <pt x="473" y="598" on="0"/>
        <pt x="397" y="595" on="0"/>
        <pt x="304" y="592" on="0"/>
        <pt x="269" y="592" on="0"/>
        <pt x="184" y="589" on="0"/>
        <pt x="112" y="601" on="1"/>
        <pt x="53" y="609" on="0"/>
        <pt x="5" y="658" on="0"/>
        <pt x="0" y="711" on="1"/>
        <pt x="-3" y="783" on="0"/>
        <pt x="49" y="814" on="1"/>
        <pt x="122" y="848" on="0"/>
        <pt x="259" y="843" on="0"/>
        <pt x="351" y="839" on="0"/>
        <pt x="534" y="816" on="0"/>
        <pt x="418" y="881" on="0"/>
        <pt x="382" y="963" on="1"/>
        <pt x="372" y="982" on="0"/>
        <pt x="354" y="1049" on="1"/>
        <pt x="347" y="1111" on="0"/>
        <pt x="371" y="1180" on="1"/>
        <pt x="414" y="1273" on="0"/>
        <pt x="466" y="1301" on="1"/>
        <pt x="525" y="1344" on="0"/>
        <pt x="601" y="1362" on="0"/>
        <pt x="718" y="1376" on="0"/>
        <pt x="822" y="1360" on="0"/>
        <pt x="902" y="1334" on="0"/>
        <pt x="952" y="1311" on="0"/>
        <pt x="1063" y="1243" on="0"/>
        <pt x="1125" y="1187" on="0"/>
        <pt x="1169" y="1148" on="0"/>
        <pt x="1216" y="1098" on="0"/>
        <pt x="1264" y="1039" on="0"/>
        <pt x="1313" y="956" on="0"/>
        <pt x="1323" y="900" on="1"/>
        <pt x="1324" y="863" on="0"/>
        <pt x="1392" y="860" on="1"/>
        <pt x="1419" y="858" on="0"/>
        <pt x="1451" y="855" on="1"/>
        <pt x="1506" y="840" on="0"/>
        <pt x="1519" y="728" on="0"/>
        <pt x="1494" y="600" on="0"/>
        <pt x="1451" y="605" on="1"/>
        <pt x="1415" y="604" on="0"/>
        <pt x="1383" y="594" on="1"/>
      </contour>
    </TTGlyph>
    <TTGlyph name="d1.medi" xMin="-58" yMin="-619" xMax="1738" yMax="1423">
      <contour>
        <pt x="950" y="1334" on="1"/>
        <pt x="1096" y="1423" on="0"/>
        <pt x="1169" y="1357" on="1"/>
        <pt x="1205" y="1319" on="0"/>
        <pt x="1172" y="1262" on="0"/>
        <pt x="1111" y="1236" on="0"/>
        <pt x="1069" y="1202" on="0"/>
        <pt x="1036" y="1161" on="1"/>
        <pt x="942" y="1109" on="0"/>
        <pt x="863" y="1158" on="0"/>
        <pt x="849" y="1228" on="0"/>
        <pt x="914" y="1310" on="0"/>
      </contour>
      <contour>
        <pt x="1338" y="198" on="0"/>
        <pt x="1186" y="167" on="0"/>
        <pt x="1152" y="80" on="0"/>
        <pt x="1197" y="16" on="0"/>
        <pt x="1322" y="-65" on="0"/>
        <pt x="1459" y="-122" on="0"/>
        <pt x="1566" y="-118" on="0"/>
        <pt x="1622" y="-67" on="0"/>
        <pt x="1618" y="69" on="0"/>
        <pt x="1517" y="167" on="0"/>
      </contour>
      <contour>
        <pt x="451" y="614" on="1"/>
        <pt x="451" y="615" on="0"/>
        <pt x="450" y="615" on="1"/>
      </contour>
      <contour>
        <pt x="572" y="554" on="1"/>
        <pt x="561" y="525" on="0"/>
        <pt x="572" y="503" on="1"/>
        <pt x="583" y="481" on="0"/>
        <pt x="654" y="420" on="1"/>
        <pt x="685" y="390" on="0"/>
        <pt x="762" y="323" on="0"/>
        <pt x="843" y="255" on="0"/>
        <pt x="945" y="173" on="0"/>
        <pt x="1017" y="112" on="0"/>
        <pt x="1078" y="121" on="0"/>
        <pt x="1120" y="223" on="0"/>
        <pt x="1248" y="293" on="0"/>
        <pt x="1443" y="310" on="0"/>
        <pt x="1600" y="278" on="0"/>
        <pt x="1695" y="184" on="0"/>
        <pt x="1737" y="49" on="0"/>
        <pt x="1722" y="-95" on="0"/>
        <pt x="1630" y="-207" on="0"/>
        <pt x="1480" y="-221" on="0"/>
        <pt x="1496" y="-276" on="0"/>
        <pt x="1564" y="-349" on="0"/>
        <pt x="1682" y="-459" on="0"/>
        <pt x="1738" y="-555" on="0"/>
        <pt x="1711" y="-619" on="0"/>
        <pt x="1630" y="-601" on="0"/>
        <pt x="1517" y="-448" on="0"/>
        <pt x="1415" y="-341" on="0"/>
        <pt x="1248" y="-202" on="0"/>
        <pt x="1139" y="-112" on="0"/>
        <pt x="975" y="19" on="0"/>
        <pt x="854" y="114" on="0"/>
        <pt x="718" y="227" on="0"/>
        <pt x="418" y="480" on="0"/>
        <pt x="397" y="497" on="0"/>
        <pt x="346" y="538" on="1"/>
        <pt x="346" y="539" on="1"/>
        <pt x="317" y="560" on="1"/>
        <pt x="259" y="601" on="0"/>
        <pt x="237" y="600" on="1"/>
        <pt x="234" y="600" on="1"/>
        <pt x="234" y="601" on="1"/>
        <pt x="163" y="601" on="1"/>
        <pt x="152" y="601" on="0"/>
        <pt x="11" y="616" on="0"/>
        <pt x="-44" y="649" on="0"/>
        <pt x="-51" y="704" on="1"/>
        <pt x="-58" y="755" on="0"/>
        <pt x="-51" y="784" on="1"/>
        <pt x="-51" y="787" on="0"/>
        <pt x="-50" y="790" on="1"/>
        <pt x="-49" y="797" on="0"/>
        <pt x="-47" y="803" on="1"/>
        <pt x="-36" y="841" on="0"/>
        <pt x="0" y="856" on="1"/>
        <pt x="26" y="862" on="0"/>
        <pt x="53" y="865" on="1"/>
        <pt x="98" y="872" on="0"/>
        <pt x="132" y="875" on="1"/>
        <pt x="183" y="880" on="0"/>
        <pt x="217" y="875" on="1"/>
        <pt x="217" y="875" on="1"/>
        <pt x="217" y="877" on="1"/>
        <pt x="218" y="877" on="1"/>
        <pt x="222" y="876" on="0"/>
        <pt x="226" y="875" on="1"/>
        <pt x="228" y="875" on="1"/>
        <pt x="231" y="875" on="0"/>
        <pt x="235" y="875" on="1"/>
        <pt x="274" y="863" on="0"/>
        <pt x="297" y="826" on="1"/>
        <pt x="302" y="818" on="0"/>
        <pt x="326" y="778" on="0"/>
        <pt x="342" y="750" on="1"/>
        <pt x="353" y="728" on="0"/>
        <pt x="366" y="708" on="1"/>
        <pt x="366" y="707" on="1"/>
        <pt x="368" y="704" on="0"/>
        <pt x="370" y="701" on="1"/>
        <pt x="372" y="699" on="0"/>
        <pt x="374" y="697" on="1"/>
        <pt x="380" y="688" on="0"/>
        <pt x="395" y="672" on="1"/>
        <pt x="397" y="671" on="0"/>
        <pt x="398" y="670" on="1"/>
        <pt x="427" y="643" on="0"/>
        <pt x="412" y="759" on="0"/>
        <pt x="451" y="819" on="1"/>
        <pt x="501" y="892" on="0"/>
        <pt x="695" y="861" on="1"/>
        <pt x="812" y="857" on="0"/>
        <pt x="859" y="859" on="0"/>
        <pt x="945" y="861" on="1"/>
        <pt x="998" y="866" on="0"/>
        <pt x="1044" y="864" on="1"/>
        <pt x="1044" y="864" on="1"/>
        <pt x="1069" y="864" on="0"/>
        <pt x="1097" y="861" on="1"/>
        <pt x="1090" y="862" on="0"/>
        <pt x="1164" y="855" on="1"/>
        <pt x="1220" y="840" on="0"/>
        <pt x="1233" y="728" on="0"/>
        <pt x="1208" y="600" on="0"/>
        <pt x="1164" y="605" on="1"/>
        <pt x="1129" y="604" on="0"/>
        <pt x="1098" y="603" on="1"/>
        <pt x="1090" y="603" on="0"/>
        <pt x="1082" y="603" on="1"/>
        <pt x="1070" y="602" on="0"/>
        <pt x="1029" y="600" on="1"/>
        <pt x="990" y="602" on="0"/>
        <pt x="945" y="602" on="1"/>
        <pt x="898" y="602" on="1"/>
        <pt x="826" y="601" on="0"/>
        <pt x="583" y="585" on="0"/>
        <pt x="572" y="555" on="1"/>
      </contour>
    </TTGlyph>
    <TTGlyph name="dollar" xMin="90" yMin="-14" xMax="1042" yMax="1288">
      <contour>
        <pt x="641" y="1104" on="1"/>
        <pt x="770" y="1118" on="1"/>
        <pt x="791" y="1173" on="0"/>
        <pt x="817" y="1232" on="0"/>
        <pt x="870" y="1288" on="0"/>
        <pt x="905" y="1288" on="1"/>
        <pt x="924" y="1288" on="0"/>
        <pt x="924" y="1274" on="1"/>
        <pt x="924" y="1268" on="0"/>
        <pt x="877" y="1166" on="0"/>
        <pt x="860" y="1122" on="1"/>
        <pt x="956" y="1120" on="0"/>
        <pt x="1042" y="1081" on="0"/>
        <pt x="1042" y="1018" on="1"/>
        <pt x="1042" y="938" on="0"/>
        <pt x="971" y="905" on="1"/>
        <pt x="946" y="894" on="0"/>
        <pt x="856" y="868" on="0"/>
        <pt x="850" y="868" on="1"/>
        <pt x="838" y="868" on="0"/>
        <pt x="838" y="877" on="1"/>
        <pt x="838" y="881" on="0"/>
        <pt x="842" y="885" on="1"/>
        <pt x="861" y="895" on="0"/>
        <pt x="879" y="906" on="0"/>
        <pt x="879" y="918" on="1"/>
        <pt x="879" y="929" on="0"/>
        <pt x="826" y="940" on="0"/>
        <pt x="786" y="940" on="1"/>
        <pt x="707" y="725" on="1"/>
        <pt x="928" y="700" on="0"/>
        <pt x="928" y="543" on="1"/>
        <pt x="928" y="463" on="0"/>
        <pt x="844" y="333" on="0"/>
        <pt x="675" y="240" on="0"/>
        <pt x="547" y="211" on="1"/>
        <pt x="531" y="163" on="0"/>
        <pt x="496" y="38" on="0"/>
        <pt x="474" y="-14" on="0"/>
        <pt x="459" y="-14" on="1"/>
        <pt x="444" y="-14" on="0"/>
        <pt x="424" y="40" on="0"/>
        <pt x="424" y="76" on="1"/>
        <pt x="424" y="126" on="0"/>
        <pt x="451" y="197" on="1"/>
        <pt x="401" y="193" on="0"/>
        <pt x="324" y="193" on="1"/>
        <pt x="302" y="130" on="0"/>
        <pt x="271" y="-8" on="0"/>
        <pt x="262" y="-8" on="1"/>
        <pt x="250" y="-8" on="0"/>
        <pt x="221" y="80" on="0"/>
        <pt x="221" y="100" on="1"/>
        <pt x="221" y="119" on="0"/>
        <pt x="246" y="209" on="1"/>
        <pt x="160" y="238" on="0"/>
        <pt x="117" y="255" on="0"/>
        <pt x="90" y="289" on="0"/>
        <pt x="90" y="322" on="1"/>
        <pt x="90" y="404" on="0"/>
        <pt x="184" y="473" on="1"/>
        <pt x="220" y="439" on="0"/>
        <pt x="265" y="410" on="0"/>
        <pt x="311" y="399" on="1"/>
        <pt x="395" y="649" on="1"/>
        <pt x="336" y="651" on="0"/>
        <pt x="251" y="675" on="0"/>
        <pt x="203" y="737" on="0"/>
        <pt x="203" y="791" on="1"/>
        <pt x="203" y="819" on="0"/>
        <pt x="229" y="896" on="0"/>
        <pt x="252" y="930" on="1"/>
        <pt x="297" y="996" on="0"/>
        <pt x="439" y="1061" on="0"/>
        <pt x="559" y="1085" on="1"/>
        <pt x="565" y="1100" on="0"/>
        <pt x="578" y="1137" on="0"/>
        <pt x="588" y="1162" on="0"/>
        <pt x="615" y="1215" on="0"/>
        <pt x="623" y="1231" on="1"/>
        <pt x="690" y="1242" on="0"/>
        <pt x="690" y="1219" on="1"/>
        <pt x="690" y="1213" on="0"/>
        <pt x="677" y="1182" on="0"/>
        <pt x="648" y="1121" on="0"/>
      </contour>
      <contour>
        <pt x="438" y="770" on="1"/>
        <pt x="494" y="922" on="1"/>
        <pt x="412" y="901" on="0"/>
        <pt x="322" y="845" on="0"/>
        <pt x="322" y="815" on="1"/>
        <pt x="322" y="777" on="0"/>
      </contour>
      <contour>
        <pt x="705" y="944" on="1"/>
        <pt x="573" y="934" on="1"/>
        <pt x="510" y="760" on="1"/>
        <pt x="633" y="741" on="1"/>
      </contour>
      <contour>
        <pt x="674" y="621" on="1"/>
        <pt x="610" y="418" on="1"/>
        <pt x="699" y="450" on="0"/>
        <pt x="780" y="504" on="0"/>
        <pt x="780" y="539" on="1"/>
        <pt x="780" y="575" on="0"/>
        <pt x="733" y="604" on="0"/>
      </contour>
      <contour>
        <pt x="596" y="631" on="1"/>
        <pt x="469" y="641" on="1"/>
        <pt x="385" y="389" on="1"/>
        <pt x="397" y="387" on="0"/>
        <pt x="428" y="387" on="1"/>
        <pt x="477" y="387" on="0"/>
        <pt x="518" y="397" on="1"/>
      </contour>
    </TTGlyph>
    <TTGlyph name="dz.fina" xMin="-214" yMin="308" xMax="1398" yMax="1709">
      <contour>
        <pt x="-50" y="784" on="1"/>
        <pt x="-50" y="787" on="0"/>
        <pt x="-49" y="791" on="1"/>
        <pt x="-41" y="840" on="0"/>
        <pt x="0" y="857" on="1"/>
        <pt x="41" y="864" on="0"/>
        <pt x="89" y="872" on="0"/>
        <pt x="123" y="872" on="1"/>
        <pt x="175" y="863" on="0"/>
        <pt x="224" y="877" on="0"/>
        <pt x="235" y="932" on="0"/>
        <pt x="147" y="1130" on="0"/>
        <pt x="129" y="1241" on="1"/>
        <pt x="115" y="1316" on="0"/>
        <pt x="101" y="1326" on="1"/>
        <pt x="98" y="1346" on="1"/>
        <pt x="98" y="1370" on="1"/>
        <pt x="106" y="1437" on="0"/>
        <pt x="139" y="1499" on="1"/>
        <pt x="186" y="1574" on="0"/>
        <pt x="234" y="1574" on="1"/>
        <pt x="285" y="1574" on="0"/>
        <pt x="299" y="1493" on="0"/>
        <pt x="340" y="1393" on="0"/>
        <pt x="384" y="1326" on="0"/>
        <pt x="464" y="1211" on="0"/>
        <pt x="644" y="1017" on="0"/>
        <pt x="824" y="822" on="0"/>
        <pt x="975" y="581" on="0"/>
        <pt x="1033" y="489" on="0"/>
        <pt x="1154" y="614" on="0"/>
        <pt x="1262" y="803" on="0"/>
        <pt x="1293" y="1028" on="0"/>
        <pt x="1191" y="1187" on="0"/>
        <pt x="1065" y="1293" on="0"/>
        <pt x="1189" y="1301" on="0"/>
        <pt x="1398" y="1105" on="0"/>
        <pt x="1393" y="951" on="0"/>
        <pt x="1317" y="733" on="0"/>
        <pt x="1129" y="422" on="0"/>
        <pt x="1013" y="308" on="0"/>
        <pt x="873" y="357" on="0"/>
        <pt x="956" y="439" on="0"/>
        <pt x="829" y="682" on="0"/>
        <pt x="594" y="952" on="0"/>
        <pt x="487" y="1064" on="0"/>
        <pt x="381" y="1170" on="0"/>
        <pt x="312" y="1255" on="1"/>
        <pt x="255" y="1323" on="0"/>
        <pt x="265" y="1265" on="1"/>
        <pt x="265" y="1258" on="0"/>
        <pt x="268" y="1195" on="0"/>
        <pt x="299" y="1045" on="0"/>
        <pt x="336" y="935" on="1"/>
        <pt x="382" y="812" on="0"/>
        <pt x="426" y="777" on="0"/>
        <pt x="486" y="716" on="0"/>
        <pt x="533" y="648" on="0"/>
        <pt x="535" y="579" on="0"/>
        <pt x="507" y="550" on="1"/>
        <pt x="478" y="535" on="0"/>
        <pt x="420" y="544" on="0"/>
        <pt x="360" y="588" on="1"/>
        <pt x="339" y="598" on="0"/>
        <pt x="309" y="602" on="1"/>
        <pt x="232" y="601" on="0"/>
        <pt x="182" y="602" on="1"/>
        <pt x="169" y="602" on="1"/>
        <pt x="112" y="601" on="0"/>
        <pt x="82" y="600" on="1"/>
        <pt x="11" y="599" on="0"/>
        <pt x="-43" y="632" on="0"/>
        <pt x="-50" y="687" on="1"/>
        <pt x="-58" y="738" on="0"/>
      </contour>
      <contour>
        <pt x="268" y="1700" on="0"/>
        <pt x="343" y="1695" on="0"/>
        <pt x="452" y="1689" on="0"/>
        <pt x="627" y="1679" on="0"/>
        <pt x="717" y="1664" on="0"/>
        <pt x="769" y="1656" on="0"/>
        <pt x="831" y="1644" on="1"/>
        <pt x="888" y="1627" on="0"/>
        <pt x="896" y="1551" on="0"/>
        <pt x="773" y="1547" on="1"/>
        <pt x="726" y="1547" on="0"/>
        <pt x="603" y="1542" on="0"/>
        <pt x="552" y="1538" on="0"/>
        <pt x="424" y="1532" on="0"/>
        <pt x="277" y="1535" on="0"/>
        <pt x="140" y="1544" on="0"/>
        <pt x="113" y="1547" on="1"/>
        <pt x="40" y="1550" on="0"/>
        <pt x="-7" y="1545" on="0"/>
        <pt x="-77" y="1544" on="0"/>
        <pt x="-152" y="1545" on="0"/>
        <pt x="-214" y="1574" on="0"/>
        <pt x="-195" y="1644" on="1"/>
        <pt x="-159" y="1689" on="0"/>
        <pt x="-69" y="1709" on="0"/>
        <pt x="5" y="1709" on="1"/>
        <pt x="114" y="1708" on="0"/>
        <pt x="159" y="1706" on="1"/>
        <pt x="220" y="1701" on="0"/>
      </contour>
    </TTGlyph>
    <TTGlyph name="dz.init" xMin="0" yMin="447" xMax="1412" yMax="1615">
      <component glyphName="dz.isol" x="0" y="0" flags="0x1000"/>
    </TTGlyph>
    <TTGlyph name="dz.isol" xMin="0" yMin="447" xMax="1412" yMax="1615">
      <contour>
        <pt x="1280" y="602" on="1"/>
        <pt x="1244" y="592" on="0"/>
        <pt x="1218" y="567" on="1"/>
        <pt x="1171" y="530" on="0"/>
        <pt x="1125" y="477" on="0"/>
        <pt x="1006" y="447" on="0"/>
        <pt x="924" y="549" on="0"/>
        <pt x="932" y="741" on="0"/>
        <pt x="972" y="814" on="0"/>
        <pt x="1011" y="831" on="0"/>
        <pt x="1034" y="859" on="0"/>
        <pt x="1014" y="908" on="0"/>
        <pt x="989" y="948" on="0"/>
        <pt x="938" y="1000" on="0"/>
        <pt x="793" y="1113" on="0"/>
        <pt x="716" y="1162" on="0"/>
        <pt x="623" y="1228" on="0"/>
        <pt x="554" y="1289" on="0"/>
        <pt x="517" y="1294" on="0"/>
        <pt x="510" y="1218" on="0"/>
        <pt x="530" y="1138" on="1"/>
        <pt x="545" y="1088" on="0"/>
        <pt x="561" y="1033" on="0"/>
        <pt x="561" y="1029" on="1"/>
        <pt x="598" y="842" on="0"/>
        <pt x="595" y="842" on="1"/>
        <pt x="595" y="835" on="0"/>
        <pt x="602" y="769" on="0"/>
        <pt x="581" y="645" on="0"/>
        <pt x="541" y="586" on="0"/>
        <pt x="503" y="545" on="1"/>
        <pt x="452" y="506" on="0"/>
        <pt x="415" y="486" on="0"/>
        <pt x="338" y="478" on="0"/>
        <pt x="279" y="475" on="0"/>
        <pt x="6" y="506" on="0"/>
        <pt x="0" y="567" on="1"/>
        <pt x="0" y="608" on="0"/>
        <pt x="78" y="679" on="0"/>
        <pt x="207" y="699" on="0"/>
        <pt x="309" y="706" on="0"/>
        <pt x="464" y="716" on="0"/>
        <pt x="483" y="826" on="0"/>
        <pt x="459" y="945" on="0"/>
        <pt x="428" y="1031" on="0"/>
        <pt x="410" y="1116" on="0"/>
        <pt x="400" y="1295" on="0"/>
        <pt x="435" y="1425" on="0"/>
        <pt x="490" y="1454" on="1"/>
        <pt x="517" y="1475" on="0"/>
        <pt x="577" y="1485" on="0"/>
        <pt x="647" y="1393" on="0"/>
        <pt x="762" y="1302" on="0"/>
        <pt x="827" y="1249" on="0"/>
        <pt x="955" y="1126" on="0"/>
        <pt x="1079" y="1019" on="0"/>
        <pt x="1124" y="946" on="0"/>
        <pt x="1148" y="907" on="0"/>
        <pt x="1187" y="876" on="0"/>
        <pt x="1218" y="869" on="0"/>
        <pt x="1240" y="864" on="1"/>
        <pt x="1259" y="864" on="0"/>
        <pt x="1277" y="861" on="1"/>
        <pt x="1300" y="859" on="0"/>
        <pt x="1343" y="855" on="1"/>
        <pt x="1398" y="840" on="0"/>
        <pt x="1412" y="728" on="0"/>
        <pt x="1386" y="600" on="0"/>
        <pt x="1343" y="605" on="1"/>
        <pt x="1313" y="604" on="0"/>
      </contour>
      <contour>
        <pt x="491" y="1606" on="0"/>
        <pt x="566" y="1600" on="0"/>
        <pt x="676" y="1595" on="0"/>
        <pt x="850" y="1584" on="0"/>
        <pt x="940" y="1570" on="0"/>
        <pt x="992" y="1561" on="0"/>
        <pt x="1053" y="1549" on="1"/>
        <pt x="1110" y="1532" on="0"/>
        <pt x="1119" y="1457" on="0"/>
        <pt x="996" y="1453" on="1"/>
        <pt x="949" y="1453" on="0"/>
        <pt x="825" y="1447" on="0"/>
        <pt x="774" y="1443" on="0"/>
        <pt x="648" y="1437" on="0"/>
        <pt x="501" y="1441" on="0"/>
        <pt x="362" y="1449" on="0"/>
        <pt x="337" y="1453" on="1"/>
        <pt x="264" y="1456" on="0"/>
        <pt x="216" y="1451" on="0"/>
        <pt x="145" y="1449" on="0"/>
        <pt x="71" y="1451" on="0"/>
        <pt x="9" y="1480" on="0"/>
        <pt x="27" y="1549" on="1"/>
        <pt x="64" y="1595" on="0"/>
        <pt x="154" y="1615" on="0"/>
        <pt x="228" y="1615" on="1"/>
        <pt x="337" y="1614" on="0"/>
        <pt x="383" y="1612" on="1"/>
        <pt x="444" y="1606" on="0"/>
      </contour>
    </TTGlyph>
    <TTGlyph name="dz.medi" xMin="-214" yMin="349" xMax="1166" yMax="1709">
      <contour>
        <pt x="-50" y="784" on="1"/>
        <pt x="-50" y="787" on="0"/>
        <pt x="-49" y="790" on="1"/>
        <pt x="-41" y="839" on="0"/>
        <pt x="0" y="856" on="1"/>
        <pt x="41" y="864" on="0"/>
        <pt x="89" y="871" on="0"/>
        <pt x="122" y="868" on="1"/>
        <pt x="175" y="862" on="0"/>
        <pt x="224" y="876" on="0"/>
        <pt x="235" y="931" on="0"/>
        <pt x="147" y="1129" on="0"/>
        <pt x="129" y="1240" on="1"/>
        <pt x="115" y="1315" on="0"/>
        <pt x="101" y="1325" on="1"/>
        <pt x="98" y="1345" on="1"/>
        <pt x="98" y="1369" on="1"/>
        <pt x="106" y="1436" on="0"/>
        <pt x="139" y="1498" on="1"/>
        <pt x="186" y="1573" on="0"/>
        <pt x="234" y="1573" on="1"/>
        <pt x="285" y="1573" on="0"/>
        <pt x="299" y="1493" on="0"/>
        <pt x="340" y="1392" on="0"/>
        <pt x="384" y="1325" on="0"/>
        <pt x="438" y="1267" on="0"/>
        <pt x="504" y="1192" on="0"/>
        <pt x="554" y="1142" on="0"/>
        <pt x="644" y="1041" on="0"/>
        <pt x="747" y="944" on="1"/>
        <pt x="826" y="873" on="0"/>
        <pt x="867" y="829" on="1"/>
        <pt x="877" y="823" on="0"/>
        <pt x="888" y="814" on="1"/>
        <pt x="915" y="793" on="0"/>
        <pt x="946" y="824" on="0"/>
        <pt x="985" y="847" on="0"/>
        <pt x="1028" y="856" on="1"/>
        <pt x="1044" y="858" on="0"/>
        <pt x="1078" y="857" on="1"/>
        <pt x="1079" y="857" on="1"/>
        <pt x="1087" y="856" on="0"/>
        <pt x="1097" y="855" on="1"/>
        <pt x="1152" y="840" on="0"/>
        <pt x="1166" y="728" on="0"/>
        <pt x="1140" y="600" on="0"/>
        <pt x="1097" y="605" on="1"/>
        <pt x="1087" y="605" on="0"/>
        <pt x="1079" y="604" on="1"/>
        <pt x="1072" y="603" on="0"/>
        <pt x="1065" y="602" on="1"/>
        <pt x="1019" y="581" on="0"/>
        <pt x="1034" y="484" on="0"/>
        <pt x="1015" y="437" on="1"/>
        <pt x="1000" y="380" on="0"/>
        <pt x="913" y="349" on="0"/>
        <pt x="841" y="424" on="0"/>
        <pt x="809" y="577" on="0"/>
        <pt x="787" y="653" on="1"/>
        <pt x="765" y="728" on="0"/>
        <pt x="650" y="890" on="1"/>
        <pt x="635" y="903" on="0"/>
        <pt x="622" y="920" on="1"/>
        <pt x="586" y="968" on="0"/>
        <pt x="487" y="1063" on="0"/>
        <pt x="381" y="1169" on="0"/>
        <pt x="312" y="1254" on="1"/>
        <pt x="255" y="1322" on="0"/>
        <pt x="265" y="1264" on="1"/>
        <pt x="265" y="1257" on="0"/>
        <pt x="268" y="1194" on="0"/>
        <pt x="299" y="1044" on="0"/>
        <pt x="336" y="934" on="1"/>
        <pt x="382" y="811" on="0"/>
        <pt x="426" y="776" on="0"/>
        <pt x="486" y="715" on="0"/>
        <pt x="533" y="647" on="0"/>
        <pt x="535" y="578" on="0"/>
        <pt x="507" y="549" on="1"/>
        <pt x="478" y="535" on="0"/>
        <pt x="420" y="543" on="0"/>
        <pt x="360" y="587" on="1"/>
        <pt x="339" y="597" on="0"/>
        <pt x="309" y="601" on="1"/>
        <pt x="232" y="600" on="0"/>
        <pt x="195" y="601" on="1"/>
        <pt x="186" y="601" on="1"/>
        <pt x="113" y="601" on="0"/>
        <pt x="82" y="600" on="1"/>
        <pt x="11" y="599" on="0"/>
        <pt x="-43" y="632" on="0"/>
        <pt x="-50" y="687" on="1"/>
        <pt x="-58" y="738" on="0"/>
      </contour>
      <contour>
        <pt x="268" y="1700" on="0"/>
        <pt x="343" y="1695" on="0"/>
        <pt x="452" y="1689" on="0"/>
        <pt x="627" y="1679" on="0"/>
        <pt x="717" y="1664" on="0"/>
        <pt x="769" y="1656" on="0"/>
        <pt x="831" y="1644" on="1"/>
        <pt x="888" y="1627" on="0"/>
        <pt x="896" y="1551" on="0"/>
        <pt x="773" y="1547" on="1"/>
        <pt x="726" y="1547" on="0"/>
        <pt x="603" y="1542" on="0"/>
        <pt x="552" y="1538" on="0"/>
        <pt x="424" y="1532" on="0"/>
        <pt x="277" y="1535" on="0"/>
        <pt x="140" y="1544" on="0"/>
        <pt x="113" y="1547" on="1"/>
        <pt x="40" y="1550" on="0"/>
        <pt x="-7" y="1545" on="0"/>
        <pt x="-77" y="1544" on="0"/>
        <pt x="-152" y="1545" on="0"/>
        <pt x="-214" y="1574" on="0"/>
        <pt x="-195" y="1644" on="1"/>
        <pt x="-159" y="1689" on="0"/>
        <pt x="-69" y="1709" on="0"/>
        <pt x="5" y="1709" on="1"/>
        <pt x="114" y="1708" on="0"/>
        <pt x="159" y="1706" on="1"/>
        <pt x="220" y="1701" on="0"/>
      </contour>
    </TTGlyph>
    <TTGlyph name="dz1.init" xMin="0" yMin="475" xMax="1359" yMax="1628">
      <contour>
        <pt x="1018" y="934" on="0"/>
        <pt x="938" y="1000" on="0"/>
        <pt x="793" y="1113" on="0"/>
        <pt x="716" y="1162" on="0"/>
        <pt x="623" y="1228" on="0"/>
        <pt x="554" y="1289" on="0"/>
        <pt x="517" y="1294" on="0"/>
        <pt x="510" y="1218" on="0"/>
        <pt x="530" y="1138" on="1"/>
        <pt x="545" y="1088" on="0"/>
        <pt x="561" y="1033" on="0"/>
        <pt x="561" y="1029" on="1"/>
        <pt x="598" y="842" on="0"/>
        <pt x="595" y="842" on="1"/>
        <pt x="595" y="835" on="0"/>
        <pt x="602" y="769" on="0"/>
        <pt x="581" y="645" on="0"/>
        <pt x="541" y="586" on="0"/>
        <pt x="503" y="545" on="1"/>
        <pt x="452" y="506" on="0"/>
        <pt x="415" y="486" on="0"/>
        <pt x="338" y="478" on="0"/>
        <pt x="279" y="475" on="0"/>
        <pt x="6" y="506" on="0"/>
        <pt x="0" y="567" on="1"/>
        <pt x="0" y="608" on="0"/>
        <pt x="78" y="679" on="0"/>
        <pt x="207" y="699" on="0"/>
        <pt x="309" y="706" on="0"/>
        <pt x="464" y="716" on="0"/>
        <pt x="483" y="826" on="0"/>
        <pt x="459" y="945" on="0"/>
        <pt x="428" y="1031" on="0"/>
        <pt x="410" y="1116" on="0"/>
        <pt x="400" y="1295" on="0"/>
        <pt x="435" y="1425" on="0"/>
        <pt x="490" y="1454" on="1"/>
        <pt x="517" y="1475" on="0"/>
        <pt x="577" y="1485" on="0"/>
        <pt x="647" y="1393" on="0"/>
        <pt x="762" y="1302" on="0"/>
        <pt x="827" y="1249" on="0"/>
        <pt x="955" y="1126" on="0"/>
        <pt x="1079" y="1019" on="0"/>
        <pt x="1182" y="903" on="0"/>
        <pt x="1280" y="793" on="0"/>
        <pt x="1359" y="694" on="0"/>
        <pt x="1282" y="639" on="0"/>
        <pt x="1157" y="792" on="0"/>
        <pt x="1091" y="858" on="0"/>
      </contour>
      <contour>
        <pt x="491" y="1618" on="0"/>
        <pt x="566" y="1613" on="0"/>
        <pt x="676" y="1607" on="0"/>
        <pt x="850" y="1597" on="0"/>
        <pt x="940" y="1583" on="0"/>
        <pt x="993" y="1574" on="0"/>
        <pt x="1054" y="1562" on="1"/>
        <pt x="1111" y="1545" on="0"/>
        <pt x="1119" y="1470" on="0"/>
        <pt x="996" y="1465" on="1"/>
        <pt x="949" y="1465" on="0"/>
        <pt x="826" y="1460" on="0"/>
        <pt x="775" y="1456" on="0"/>
        <pt x="648" y="1450" on="0"/>
        <pt x="501" y="1453" on="0"/>
        <pt x="363" y="1462" on="0"/>
        <pt x="337" y="1465" on="1"/>
        <pt x="264" y="1469" on="0"/>
        <pt x="217" y="1464" on="0"/>
        <pt x="146" y="1462" on="0"/>
        <pt x="72" y="1464" on="0"/>
        <pt x="9" y="1493" on="0"/>
        <pt x="28" y="1562" on="1"/>
        <pt x="65" y="1607" on="0"/>
        <pt x="154" y="1628" on="0"/>
        <pt x="229" y="1628" on="1"/>
        <pt x="338" y="1627" on="0"/>
        <pt x="383" y="1624" on="1"/>
        <pt x="445" y="1619" on="0"/>
      </contour>
    </TTGlyph>
    <TTGlyph name="dz1.medi" xMin="-214" yMin="535" xMax="968" yMax="1709">
      <contour>
        <pt x="268" y="1700" on="0"/>
        <pt x="343" y="1695" on="0"/>
        <pt x="452" y="1689" on="0"/>
        <pt x="627" y="1679" on="0"/>
        <pt x="717" y="1664" on="0"/>
        <pt x="769" y="1656" on="0"/>
        <pt x="831" y="1644" on="1"/>
        <pt x="888" y="1627" on="0"/>
        <pt x="896" y="1551" on="0"/>
        <pt x="773" y="1547" on="1"/>
        <pt x="726" y="1547" on="0"/>
        <pt x="603" y="1542" on="0"/>
        <pt x="552" y="1538" on="0"/>
        <pt x="424" y="1532" on="0"/>
        <pt x="277" y="1535" on="0"/>
        <pt x="140" y="1544" on="0"/>
        <pt x="113" y="1547" on="1"/>
        <pt x="40" y="1550" on="0"/>
        <pt x="-7" y="1545" on="0"/>
        <pt x="-77" y="1544" on="0"/>
        <pt x="-152" y="1545" on="0"/>
        <pt x="-214" y="1574" on="0"/>
        <pt x="-195" y="1644" on="1"/>
        <pt x="-159" y="1689" on="0"/>
        <pt x="-69" y="1709" on="0"/>
        <pt x="5" y="1709" on="1"/>
        <pt x="114" y="1708" on="0"/>
        <pt x="159" y="1706" on="1"/>
        <pt x="220" y="1701" on="0"/>
      </contour>
      <contour>
        <pt x="-50" y="784" on="1"/>
        <pt x="-50" y="787" on="0"/>
        <pt x="-49" y="790" on="1"/>
        <pt x="-41" y="839" on="0"/>
        <pt x="0" y="856" on="1"/>
        <pt x="41" y="864" on="0"/>
        <pt x="89" y="871" on="0"/>
        <pt x="122" y="868" on="1"/>
        <pt x="175" y="862" on="0"/>
        <pt x="224" y="876" on="0"/>
        <pt x="235" y="931" on="0"/>
        <pt x="147" y="1129" on="0"/>
        <pt x="129" y="1240" on="1"/>
        <pt x="115" y="1315" on="0"/>
        <pt x="101" y="1325" on="1"/>
        <pt x="98" y="1345" on="1"/>
        <pt x="98" y="1369" on="1"/>
        <pt x="106" y="1436" on="0"/>
        <pt x="139" y="1498" on="1"/>
        <pt x="186" y="1573" on="0"/>
        <pt x="234" y="1573" on="1"/>
        <pt x="285" y="1573" on="0"/>
        <pt x="299" y="1493" on="0"/>
        <pt x="340" y="1392" on="0"/>
        <pt x="384" y="1325" on="0"/>
        <pt x="438" y="1267" on="0"/>
        <pt x="504" y="1192" on="0"/>
        <pt x="554" y="1142" on="0"/>
        <pt x="644" y="1041" on="0"/>
        <pt x="743" y="936" on="1"/>
        <pt x="815" y="856" on="0"/>
        <pt x="871" y="799" on="1"/>
        <pt x="968" y="705" on="0"/>
        <pt x="900" y="622" on="0"/>
        <pt x="818" y="717" on="1"/>
        <pt x="785" y="760" on="0"/>
        <pt x="664" y="890" on="1"/>
        <pt x="650" y="903" on="0"/>
        <pt x="636" y="920" on="1"/>
        <pt x="586" y="968" on="0"/>
        <pt x="487" y="1063" on="0"/>
        <pt x="381" y="1169" on="0"/>
        <pt x="312" y="1254" on="1"/>
        <pt x="255" y="1322" on="0"/>
        <pt x="265" y="1264" on="1"/>
        <pt x="265" y="1257" on="0"/>
        <pt x="268" y="1194" on="0"/>
        <pt x="299" y="1044" on="0"/>
        <pt x="336" y="934" on="1"/>
        <pt x="382" y="811" on="0"/>
        <pt x="426" y="776" on="0"/>
        <pt x="486" y="715" on="0"/>
        <pt x="533" y="647" on="0"/>
        <pt x="535" y="578" on="0"/>
        <pt x="507" y="549" on="1"/>
        <pt x="478" y="535" on="0"/>
        <pt x="420" y="543" on="0"/>
        <pt x="360" y="587" on="1"/>
        <pt x="339" y="597" on="0"/>
        <pt x="309" y="601" on="1"/>
        <pt x="232" y="600" on="0"/>
        <pt x="195" y="601" on="1"/>
        <pt x="186" y="601" on="1"/>
        <pt x="112" y="601" on="0"/>
        <pt x="82" y="600" on="1"/>
        <pt x="11" y="599" on="0"/>
        <pt x="-43" y="632" on="0"/>
        <pt x="-50" y="687" on="1"/>
        <pt x="-58" y="738" on="0"/>
      </contour>
    </TTGlyph>
    <TTGlyph name="e" xMin="8" yMin="-27" xMax="614" yMax="733">
      <contour>
        <pt x="176" y="279" on="1"/>
        <pt x="176" y="254" on="1"/>
        <pt x="176" y="195" on="0"/>
        <pt x="234" y="129" on="0"/>
        <pt x="281" y="129" on="1"/>
        <pt x="330" y="129" on="0"/>
        <pt x="435" y="175" on="0"/>
        <pt x="539" y="251" on="0"/>
        <pt x="614" y="315" on="1"/>
        <pt x="614" y="254" on="1"/>
        <pt x="501" y="118" on="0"/>
        <pt x="303" y="-27" on="0"/>
        <pt x="201" y="-27" on="1"/>
        <pt x="112" y="-27" on="0"/>
        <pt x="8" y="111" on="0"/>
        <pt x="8" y="231" on="1"/>
        <pt x="8" y="336" on="0"/>
        <pt x="106" y="507" on="0"/>
        <pt x="217" y="602" on="1"/>
        <pt x="293" y="667" on="0"/>
        <pt x="443" y="733" on="0"/>
        <pt x="502" y="733" on="1"/>
        <pt x="549" y="733" on="0"/>
        <pt x="604" y="690" on="0"/>
        <pt x="604" y="647" on="1"/>
        <pt x="604" y="584" on="0"/>
        <pt x="510" y="459" on="0"/>
        <pt x="317" y="336" on="0"/>
      </contour>
      <contour>
        <pt x="186" y="344" on="1"/>
        <pt x="276" y="379" on="0"/>
        <pt x="404" y="483" on="0"/>
        <pt x="465" y="578" on="0"/>
        <pt x="465" y="600" on="1"/>
        <pt x="465" y="623" on="0"/>
        <pt x="444" y="623" on="1"/>
        <pt x="426" y="623" on="0"/>
        <pt x="345" y="577" on="0"/>
        <pt x="262" y="503" on="0"/>
        <pt x="196" y="403" on="0"/>
      </contour>
    </TTGlyph>
    <TTGlyph name="e.fina" xMin="-58" yMin="599" xMax="1547" yMax="1554">
      <contour>
        <pt x="-7" y="1359" on="0"/>
        <pt x="58" y="1441" on="0"/>
        <pt x="94" y="1465" on="1"/>
        <pt x="240" y="1554" on="0"/>
        <pt x="313" y="1488" on="1"/>
        <pt x="349" y="1450" on="0"/>
        <pt x="316" y="1393" on="0"/>
        <pt x="255" y="1367" on="0"/>
        <pt x="213" y="1333" on="0"/>
        <pt x="180" y="1292" on="1"/>
        <pt x="86" y="1240" on="0"/>
        <pt x="7" y="1289" on="0"/>
      </contour>
      <contour>
        <pt x="715" y="823" on="0"/>
        <pt x="827" y="819" on="0"/>
        <pt x="1063" y="806" on="0"/>
        <pt x="1224" y="799" on="0"/>
        <pt x="1310" y="801" on="0"/>
        <pt x="1430" y="829" on="0"/>
        <pt x="1471" y="933" on="0"/>
        <pt x="1379" y="1062" on="0"/>
        <pt x="1290" y="1137" on="0"/>
        <pt x="1170" y="1219" on="0"/>
        <pt x="967" y="1316" on="0"/>
        <pt x="763" y="1357" on="0"/>
        <pt x="656" y="1366" on="0"/>
        <pt x="653" y="1370" on="0"/>
        <pt x="653" y="1367" on="1"/>
        <pt x="544" y="1382" on="0"/>
        <pt x="544" y="1421" on="1"/>
        <pt x="544" y="1428" on="1"/>
        <pt x="544" y="1466" on="0"/>
        <pt x="677" y="1469" on="0"/>
        <pt x="763" y="1459" on="0"/>
        <pt x="878" y="1439" on="0"/>
        <pt x="1005" y="1402" on="0"/>
        <pt x="1174" y="1316" on="0"/>
        <pt x="1317" y="1212" on="0"/>
        <pt x="1420" y="1110" on="0"/>
        <pt x="1526" y="974" on="0"/>
        <pt x="1547" y="894" on="1"/>
        <pt x="1547" y="836" on="1"/>
        <pt x="1547" y="788" on="0"/>
        <pt x="1441" y="711" on="0"/>
        <pt x="1195" y="663" on="0"/>
        <pt x="980" y="644" on="0"/>
        <pt x="827" y="637" on="0"/>
        <pt x="709" y="626" on="0"/>
        <pt x="168" y="601" on="1"/>
        <pt x="163" y="601" on="1"/>
        <pt x="152" y="601" on="0"/>
        <pt x="11" y="599" on="0"/>
        <pt x="-44" y="632" on="0"/>
        <pt x="-51" y="687" on="1"/>
        <pt x="-58" y="738" on="0"/>
        <pt x="-51" y="784" on="1"/>
        <pt x="-51" y="787" on="0"/>
        <pt x="-50" y="790" on="1"/>
        <pt x="-42" y="834" on="0"/>
        <pt x="0" y="856" on="1"/>
        <pt x="54" y="869" on="0"/>
        <pt x="159" y="864" on="0"/>
        <pt x="222" y="862" on="0"/>
      </contour>
    </TTGlyph>
    <TTGlyph name="e.init" xMin="-19" yMin="400" xMax="709" yMax="1203">
      <contour>
        <pt x="471" y="599" on="1"/>
        <pt x="427" y="596" on="0"/>
        <pt x="396" y="524" on="0"/>
        <pt x="335" y="421" on="0"/>
        <pt x="261" y="400" on="0"/>
        <pt x="213" y="469" on="0"/>
        <pt x="194" y="563" on="0"/>
        <pt x="192" y="645" on="0"/>
        <pt x="222" y="750" on="0"/>
        <pt x="262" y="781" on="0"/>
        <pt x="308" y="835" on="0"/>
        <pt x="290" y="917" on="0"/>
        <pt x="238" y="1006" on="0"/>
        <pt x="160" y="1050" on="0"/>
        <pt x="49" y="1033" on="0"/>
        <pt x="7" y="1073" on="1"/>
        <pt x="-19" y="1158" on="0"/>
        <pt x="112" y="1203" on="0"/>
        <pt x="246" y="1158" on="0"/>
        <pt x="353" y="1051" on="0"/>
        <pt x="392" y="954" on="0"/>
        <pt x="403" y="873" on="0"/>
        <pt x="460" y="863" on="1"/>
        <pt x="468" y="863" on="0"/>
        <pt x="475" y="862" on="1"/>
        <pt x="475" y="861" on="1"/>
        <pt x="596" y="858" on="0"/>
        <pt x="640" y="855" on="1"/>
        <pt x="695" y="840" on="0"/>
        <pt x="709" y="728" on="0"/>
        <pt x="683" y="600" on="0"/>
        <pt x="640" y="605" on="1"/>
        <pt x="604" y="604" on="0"/>
      </contour>
    </TTGlyph>
    <TTGlyph name="e.isol" xMin="-19" yMin="-535" xMax="2968" yMax="1203">
      <contour>
        <pt x="275" y="791" on="0"/>
        <pt x="296" y="833" on="0"/>
        <pt x="290" y="917" on="0"/>
        <pt x="238" y="1006" on="0"/>
        <pt x="160" y="1050" on="0"/>
        <pt x="49" y="1033" on="0"/>
        <pt x="7" y="1073" on="1"/>
        <pt x="-19" y="1158" on="0"/>
        <pt x="112" y="1203" on="0"/>
        <pt x="246" y="1158" on="0"/>
        <pt x="353" y="1051" on="0"/>
        <pt x="392" y="954" on="0"/>
        <pt x="398" y="914" on="1"/>
        <pt x="401" y="886" on="0"/>
        <pt x="429" y="875" on="1"/>
        <pt x="429" y="874" on="1"/>
        <pt x="437" y="869" on="0"/>
        <pt x="445" y="863" on="1"/>
        <pt x="499" y="821" on="0"/>
        <pt x="608" y="770" on="0"/>
        <pt x="755" y="712" on="0"/>
        <pt x="841" y="675" on="0"/>
        <pt x="1017" y="598" on="0"/>
        <pt x="1943" y="165" on="0"/>
        <pt x="2212" y="22" on="0"/>
        <pt x="2520" y="-141" on="0"/>
        <pt x="2727" y="-238" on="0"/>
        <pt x="2896" y="-301" on="0"/>
        <pt x="2955" y="-343" on="0"/>
        <pt x="2968" y="-400" on="0"/>
        <pt x="2940" y="-441" on="0"/>
        <pt x="2823" y="-476" on="0"/>
        <pt x="2800" y="-478" on="1"/>
        <pt x="2768" y="-481" on="0"/>
        <pt x="2708" y="-482" on="0"/>
        <pt x="2633" y="-481" on="1"/>
        <pt x="2591" y="-484" on="0"/>
        <pt x="2557" y="-490" on="1"/>
        <pt x="2511" y="-502" on="1"/>
        <pt x="2440" y="-535" on="0"/>
        <pt x="2477" y="-464" on="0"/>
        <pt x="2522" y="-450" on="1"/>
        <pt x="2585" y="-434" on="1"/>
        <pt x="2652" y="-419" on="0"/>
        <pt x="2696" y="-421" on="1"/>
        <pt x="2720" y="-405" on="0"/>
        <pt x="2720" y="-400" on="1"/>
        <pt x="2739" y="-354" on="0"/>
        <pt x="2692" y="-325" on="0"/>
        <pt x="2607" y="-279" on="0"/>
        <pt x="2551" y="-255" on="1"/>
        <pt x="2525" y="-239" on="0"/>
        <pt x="2424" y="-201" on="0"/>
        <pt x="2357" y="-167" on="1"/>
        <pt x="2243" y="-118" on="1"/>
        <pt x="2106" y="-56" on="0"/>
        <pt x="1889" y="27" on="1"/>
        <pt x="1013" y="402" on="0"/>
        <pt x="928" y="430" on="0"/>
        <pt x="704" y="504" on="0"/>
        <pt x="570" y="552" on="0"/>
        <pt x="466" y="579" on="0"/>
        <pt x="432" y="548" on="0"/>
        <pt x="418" y="500" on="0"/>
        <pt x="394" y="456" on="0"/>
        <pt x="362" y="418" on="0"/>
        <pt x="315" y="380" on="1"/>
        <pt x="286" y="356" on="0"/>
        <pt x="261" y="359" on="1"/>
        <pt x="218" y="359" on="0"/>
        <pt x="203" y="507" on="1"/>
        <pt x="195" y="588" on="0"/>
        <pt x="218" y="694" on="0"/>
        <pt x="256" y="763" on="0"/>
      </contour>
    </TTGlyph>
</ttFont>
